<?xml version="1.0" encoding="UTF-8"?>
<svg  width="100" height="auto" id="Layer_1" data-name="Layer 1" xmlns="http://www.w3.org/2000/svg" viewBox="0 0 270.442966940287079 293.281278298133657">
  <defs>
    <style>
      .cls-1 {
        fill: #f5b26e;
      }

      .cls-1, .cls-2, .cls-3, .cls-4 {
        stroke-width: 0px;
      }

      .cls-2 {
        fill: #252329;
      }

      .cls-3 {
        fill: #51c3c3;
      }

      .cls-4 {
        fill: #fff;
      }
    </style>
  </defs>
  <path class="cls-1" d="M255.377556508929047,158.806074980579979c-11.43438720703125-15.003845214844659-26.057861328125-26.396179199219659-41.03387451171875-37.467956542969659-2.1151123046875-1.56365966796875-4.08807373046875-1.70367431640625-6.609130859375-1.11053466796875-50.55084228515625,11.892333984375-97.596191406247272,32.010559082032159-140.914916992182953,60.593200683594659-17.94598388671875,11.8411865234375-14.20648193359375,5.7222900390625-18.00958251953125,28.071044921875-2.3006591796875,13.519836425777612-2.013671875,13.568908691402612,9.1387939453125,21.553039550777612.09564208984375.06842041015625.237060546875.07293701171875.35784912109375.10845947265625l.00018310546875-.0003662109375c.490478515625-1.4593505859375,1.83001708984375-1.58056640625,3.02105712890625-1.80853271484375,3.2984619140625-.631347656246362,6.59417724609375-1.368408203121362,9.927124023436591-1.70001220703125,2.7890625-.27752685546875,3.14215087890625-1.2821044921875,1.8316650390625-3.53106689453125-3.875061035155341-6.64996337890625-1.651062011717841-14.618408203121362,5.013610839847388-18.518066406246362,2.423339843746362-1.41790771484375,4.900695800777612-2.6634521484375,7.423522949214203-3.767333984375,3.659790039058862-1.601318359375,7.418212890621362-2.895751953125,11.253845214841022-3.96282958984375,4.42974853515625-1.232421875,8.961791992192047-2.1639404296875,13.569213867190228-2.8992919921875,3.580749511719659-.571533203125,7.189636230470569-1.18499755859375,10.922424316407159-1.616943359375-2.593017578125-5.85491943359375-1.02197265625-9.0382080078125,4.8336181640625-10.60516357421875,3.45574951171875-.92474365234375,3.78204345703125-1.71112060546875,1.44793701171875-4.36187744140625-2.09765625-2.38226318359375-3.51434326171875-5.11016845703125-4.4644775390625-8.05908203125-2.87554931640625-8.92437744140625-.03662109375-11.9176025390625,9.3016357421875-9.93560791015625.36553955078125.07757568359375.72674560546875.175537109375,1.09002685546875.26397705078125.81207275390625,2.53424072265625,2.94146728515625,1.16632080078125,4.49102783203125,1.51605224609375l-.00018310546875-.00018310546875c.00006103515625.00006103515625.00018310546875.00006103515625.000244140625.0001220703125,1.4620361328125.54034423828125,2.924072265625,1.0806884765625,4.3861083984375,1.62109375.8868408203125,1.9925537109375,2.72320556640625,2.4716796875,4.6004638671875,2.8856201171875,3.044921875,1.9610595703125,5.36865234375,4.690673828125,7.83502197265625,7.2791748046875,3.007934570308862,3.156982421875,4.051452636715112,7.05035400390625,3.973999023433862,11.197265625-.0419921875,2.24285888671875-.706787109375,4.55865478515625-3.089111328121362,5.73919677734375-.3302001953125-.0345458984375-.5589599609375.10455322265625-.4556884765625.2862548828125.24554443359375.4322509765625-.30682373046875.04736328125.0819091796875.3477783203125.07208251953125.0556640625.1488037109375.1064453125.2218017578125.1611328125,2.301391601558862,1.722900390625,5.027282714840112,2.99774169921875,6.353576660152612,5.73699951171875.11431884765625.236083984375.2379150390625.46234130859375.32989501953125.7218017578125.00006103515625.00018310546875.00018310546875.0003662109375.000244140625.00054931640625,2.278564453125.048828125,4.633544921878638-.578369140625,6.537231445316138,1.50115966796875,3.21942138671875,3.51678466796875,6.973144531246362,6.5408935546875,9.688598632808862,10.52435302734375.24371337890625,1.9818115234375,1.275634765625,3.45465087890625,2.9246826171875,4.529296875.00006103515625.0001220703125.00006103515625.00018310546875.0001220703125.00030517578125.8765869140625,1.14837646484375.7730712890625,2.966674804683862,2.442626953125,3.573059082027612.09765625.056884765625.1953125.10137939453125.29290771484375.1395263671875.753662109375.2945556640625,1.50372314453125.06402587890625,2.2166748046875-.216552734375,7.32818603515625-2.883850097652612,14.9315185546875-4.636840820308862,22.72210693359375-5.686767578121362,1.224365234375-.16497802734375,2.61163330078125-.21148681640625,3.47186279296875-1.27734375.132568359375-.16424560546875.25457763671875-.3489990234375.3594970703125-.5660400390625.00006103515625-.00018310546875.00018310546875-.000244140625.000244140625-.00042724609375-2.8636474609375-6.270751953125-6.7186279296875-12.015625-9.61871337890625-18.28521728515625-1.093017578125-2.3629150390625-1.40240478515625-4.46185302734375-.67169189453125-6.7496337890625,3.0357666015625-9.5047607421875,6.28125-18.91839599609375,11.1964111328125-27.682861328125,1.56573486328125-2.79193115234375,3.4000244140625-4.1490478515625,6.578369140625-3.15045166015625.01751708984375,4.09283447265625.0347900390625,8.1856689453125.05279541015625,12.27850341796875.006591796875,1.49664306640625.43292236328125,3.32037353515625,2.1890869140625,2.21368408203125,2.7451171875-1.72991943359375,5.54486083984375-.76177978515625,8.30078125-1.08111572265625l.00006103515625.00006103515625c1.2037353515625.7935791015625,2.56781005859375,1.42303466796875,3.036865234375,2.96807861328125-.2882080078125,2.9000244140625.80712890625,5.94537353515625-1.14862060546875,8.68878173828125-.59014892578125.827880859375.16229248046875,2.10040283203125,1.10943603515625,1.50897216796875,1.491455078125-.9312744140625,3.8409423828125-.45556640625,4.545654296875-2.6619873046875h.00006103515625c2.8804931640625-1.700439453125,5.6771240234375-3.56121826171875,8.8795166015625-4.6466064453125,2.47674560546875.08392333984375,4.9534912109375.1678466796875,7.4305419921875.25146484375.000244140625.0001220703125.00042724609375.000244140625.00067138671875.0003662109375,1.30047607421875,2.4473876953125,1.72509765625,5.1051025390625,1.8773193359375,7.83209228515625v.0001220703125c4.99725341796875-7.87469482421875,4.48284912109375-15.2269287109375-1.24493408203125-22.74273681640625Z"/>
  <path class="cls-4" d="M254.931379711781119,173.331784254128252c-2.47705078125-.0836181640625-4.95379638671875-.16754150390625-7.4305419921875-.25146484375-3.202392578125,1.08538818359375-5.9990234375,2.9461669921875-8.8795166015625,4.6466064453125h-.00006103515625c-.7047119140625,2.2064208984375-3.05419921875,1.730712890625-4.545654296875,2.6619873046875-.9471435546875.5914306640625-1.6995849609375-.68109130859375-1.10943603515625-1.50897216796875,1.95574951171875-2.743408203125.86041259765625-5.78875732421875,1.14862060546875-8.68878173828125-.46905517578125-1.5450439453125-1.8331298828125-2.17449951171875-3.036865234375-2.96807861328125l-.00006103515625-.00006103515625c-2.75592041015625.3193359375-5.5556640625-.6488037109375-8.30078125,1.08111572265625-1.75616455078125,1.106689453125-2.1824951171875-.717041015625-2.1890869140625-2.21368408203125-.01800537109375-4.09283447265625-.0352783203125-8.1856689453125-.05279541015625-12.27850341796875-3.1783447265625-.99859619140625-5.01263427734375.3585205078125-6.578369140625,3.15045166015625-4.9151611328125,8.76446533203125-8.16064453125,18.1781005859375-11.1964111328125,27.682861328125-.730712890625,2.28778076171875-.42132568359375,4.38671875.67169189453125,6.7496337890625,2.90008544921875,6.26959228515625,6.75506591796875,12.01446533203125,9.61871337890625,18.28521728515625-.00006103515625.00018310546875-.00018310546875.000244140625-.000244140625.00042724609375.0003662109375-.00006103515625.00079345703125-.0001220703125.00115966796875-.00018310546875,3.77032470703125.4110107421875,6.48138427734375,2.5599365234375,8.4713134765625,5.5633544921875,6.965087890625,10.51287841796875,5.49908447265625,26.723510742183862-3.1475830078125,35.880065917957836-.4283447265625.45361328125-.8233642578125,1.16253662109375-1.33837890625,1.2752685546875-4.21478271484375.92230224609375-5.13409423828125,4.556945800779431-6.67510986328125,7.763854980465112-2.37359619140625,4.939575195307043-5.95965576171875,8.896972656242724-10.38604736328125,12.093200683582836-2.086181640625,1.50653076171875-4.29638671875,1.8377685546875-5.88641357421875-.52069091796875-1.427734375-2.117553710933862-.582275390625-4.046386718746362,1.38818359375-5.505065917961474,2.77728271484375-2.055847167970569,5.35699462890625-4.294189453121362,7.16748046875-8.042968749994543-.074951171875-.1058349609375-.1512451171875-.20458984375-.23016357421875-.289306640625-1.6265869140625.68316650390625-2.85076904296875,1.19549560546875-4.05145263671875,1.703308105466931-21.314819335933862,9.014221191398974-43.561340332027612,1.8304443359375-53.630126953121362-17.247009277332836-1.3123779296875-2.486572265623181-2.104248046875-4.813537597652612.94830322265625-6.329040527340112,2.81280517578125-1.396484375,4.33026123046875.58721923828125,5.60296630859375,2.79736328125,10.389404296871362,18.042358398424767,29.190490722652612,21.651489257797948,48.067993164058862,12.245117187489086,3.755859375-1.871520996090112,2.22723388671875-5.438415527340112,2.87420654296875-8.271850585930224.5743408203125-2.5152587890625-1.94171142578125-2.51568603515625-3.3497314453125-3.238952636716931-5.03765869140625-2.587585449216931-9.6561279296875-5.674316406246362-13.53302001953125-9.882690429685681-5.34033203125-5.79693603515625-5.40802001953125-5.73455810546875-1.35662841796875-12.3865966796875-1.6695556640625-.60638427734375-1.5660400390625-2.4246826171875-2.442626953125-3.57305908203125-.00006103515625-.0001220703125-.00006103515625-.00018310546875-.0001220703125-.00030517578125-1.6490478515625-1.07464599609375-2.68096923828125-2.5474853515625-2.9246826171875-4.529296875-2.7154541015625-3.98345947265625-6.469177246090112-7.007568359375-9.688598632808862-10.52435302734375-1.9036865234375-2.07952880859375-4.258666992191138-1.45233154296875-6.537231445316138-1.50115966796875-.00006103515625-.00018310546875-.00018310546875-.0003662109375-.000244140625-.00054931640625-.00006103515625.0003662109375-.00006103515625.000732421875-.0001220703125.0010986328125-1.7803955078125,2.23272705078125-3.79132080078125,2.2899169921875-6.274475097652612,1.0404052734375-4.81536865234375-2.42315673828125-9.9456787109375-3.9549560546875-15.3251953125-4.507080078125-2.579833984375-.2647705078125-4.465576171875-1.25164794921875-4.0806884765625-4.1468505859375.382080078125-2.87408447265625,2.52301025390625-3.31488037109375,5.03497314453125-3.06103515625,4.86749267578125.491943359375,9.5277099609375,1.791748046875,14.114013671875,3.41949462890625,2.382324218746362-1.1805419921875,3.047119140621362-3.496337890625,3.089111328121362-5.73919677734375.07745361328125-4.14691162109375-.966064453125-8.040283203125-3.973999023433862-11.197265625-2.46636962890625-2.5885009765625-4.79010009765625-5.318115234375-7.83502197265625-7.2791748046875-1.87725830078125-.4139404296875-3.713623046875-.89306640625-4.6004638671875-2.8856201171875-1.4620361328125-.5404052734375-2.924072265625-1.08074951171875-4.3861083984375-1.62109375-.00006103515625-.00006103515625-.00018310546875-.00006103515625-.000244140625-.0001220703125l.00018310546875.00018310546875c-1.549560546875-.3497314453125-3.678955078125,1.0181884765625-4.49102783203125-1.51605224609375-.36328125-.08843994140625-.7244873046875-.1864013671875-1.09002685546875-.26397705078125-9.3382568359375-1.98199462890625-12.17718505859375,1.01123046875-9.3016357421875,9.93560791015625.950134277345569,2.94891357421875,2.3668212890625,5.67681884765625,4.464477539060681,8.05908203125,2.334106445314319,2.6507568359375,2.007812500003638,3.4371337890625-1.447937011716931,4.36187744140625-5.8555908203125,1.56695556640625-7.4266357421875,4.750244140625-4.8336181640625,10.60516357421875-3.732788085936591.43194580078125-7.341674804686591,1.04541015625-10.92242431640625,1.616943359375-4.607421874999091.7353515625-9.139465332033069,1.6668701171875-13.569213867190228,2.8992919921875l-11.253845214841931,3.96282958984375c-2.522827148435681,1.1038818359375-5.000183105466931,2.34942626953125-7.423522949216931,3.767333984375-6.664672851563409,3.899658203125-8.888671874999091,11.86810302734375-5.01361083984375,18.51806640625,1.310485839847388,2.24896240234375.957397460941138,3.2535400390625-1.8316650390625,3.53106689453125-3.332946777342841.33160400390625-6.628662109374091,1.06866455078125-9.927124023436591,1.70001220703125-1.1910400390625.22796630859375-2.53057861328125.34918212890625-3.02105712890625,1.80853271484375,5.43621826171875,4.438171386720569,11.316833496092841,8.55377197265625,17.874145507810681,10.651062011715112,10.787048339841022,3.4500732421875,18.019409179683862,10.551025390617724,23.946044921872272,19.585754394520336.2049560546875.3123779296875.47662353515625.58154296875.67633056640625.896728515625,1.317321777344659,2.0791015625,3.226318359379547,3.310668945308862,5.447082519534888,4.349365234371362,24.291320800780341,11.361511230461474,49.906494140620453,16.480651855461474,76.634948730464203,16.415405273430224,9.64971923828125-.0235595703125,17.7857666015625-3.594604492183862,24.19183349609375-10.80792236328125,10.177490234375-11.460021972645336,18.66363525390625-24.03497314451306,24.76495361328125-38.157958984347715,2.17205810546875-5.027709960939319,4.1834716796875-10.093139648439319,6.98101806640625-14.881164550783069,6.92578125-11.853271484375,13.2027587890625-24.06280517578125,17.79925537109375-37.0555419921875-.1522216796875-2.72698974609375-.57684326171875-5.38470458984375-1.8773193359375-7.83209228515625-.000244140625-.0001220703125-.00042724609375-.000244140625-.00067138671875-.0003662109375ZM222.977888500843619,179.417965894753252c-2.76654052734375,3.54351806640625-5.4150390625,7.140625-7.451171875,11.1680908203125-.60943603515625,1.2054443359375-1.75921630859375,1.71368408203125-3.0927734375,1.78778076171875-2.4530029296875.01226806640625-4.3173828125-2.20501708984375-3.451904296875-4.56842041015625,1.86456298828125-5.091796875,4.75299072265625-9.6124267578125,8.741943359375-13.31976318359375,1.37359619140625-1.27655029296875,3.09930419921875-1.6258544921875,4.699462890625-.09893798828125,1.59771728515625,1.5245361328125,1.86956787109375,3.3468017578125.554443359375,5.03125Z"/>
  <g>
    <path class="cls-4" d="M163.079262587971243,82.341586886032928c5.350524902347388-18.32708740234375,6.137084960941138-35.87506103515625-.6944580078125-53.402099609375-1.181640625-3.03173828125-2.48443603515625-3.43072509765625-5.16900634765625-2.12164306640625-12.002685546871362,5.85302734375-17.796386718746362,15.82275390625-19.294372558590112,28.71112060546875-.13836669921875,1.19024658203125.17767333984375,2.15350341796875.9410400390625,3.0946044921875,7.01690673828125,8.650634765625,15.43243408203125,15.848388671875,24.216796874996362,23.718017578125Z"/>
    <path class="cls-4" d="M99.462685439533743,30.284457979782928c6.641662597660797.846923828125,12.968017578128638,2.95111083984375,20.118713378911707,5.4813232421875-4.397766113282159-9.23150634765625-9.382934570314319-17.00079345703125-15.154296875-24.29217529296875-.937194824222388-1.18402099609375-1.580932617191138-.90191650390625-2.059692382816138.39129638671875-1.947875976563409,5.26123046875-3.442871093750909,10.63897705078125-4.193481445313409,16.2091064453125-.1431884765625,1.0626220703125-.0924072265625,2.03436279296875,1.288757324217841,2.21044921875Z"/>
    <path class="cls-4" d="M84.833290908288291,40.613986788376678c.883666992186591-1.23114013671875.49114990234375-2.0328369140625-.70013427734375-2.71539306640625-3.48895263671875-1.9990234375-7.151245117182953-3.5277099609375-11.12689208984375-4.25543212890625-1.3349609375-.24432373046875-2.297607421875.2010498046875-2.47625732421875,1.56072998046875-.994628906249091,7.56939697265625-.726440429686591,15.06121826171875,1.4554443359375,23.38848876953125,4.61798095703125-6.4669189453125,8.721923828125-12.23052978515625,12.84783935546875-17.9783935546875Z"/>
    <path class="cls-4" d="M60.57712635750795,74.787326632126678c1.04229736328125-1.6231689453125-.416320800780341-2.30047607421875-1.528625488280341-2.718505859375-2.315979003907159-.8702392578125-4.35986328125-3.07244873046875-7.171630859375-1.73028564453125-.267272949219659.1275634765625-.282958984375.91552734375-.305541992188409,1.4019775390625-.21875,4.71319580078125-.21649169921875,9.41619873046875.828125,15.3304443359375,3.12548828125-4.67626953125,5.71075439453125-8.44189453125,8.17767333984375-12.28363037109375Z"/>
  </g>
  <path class="cls-3" d="M81.136406606589844,251.587319877416121c-5.624999999996362-1.966796875-10.77642822265625-5.268615722652612-16.376770019530341-7.330078124992724-6.2215576171875-2.29022216796875-13.02276611328125-1.5125732421875-19.52764892578125-2.696533203125-6.67572021484375-1.21502685546875-11.16265869140625-4.210205078121362-13.9925537109375-10.365600585933862-2.47357177734375-5.380371093751819-4.2786865234375-10.984130859378638-6.28411865234375-16.5179443359375-2.1217041015625-5.85443115234375-1.2415771484375-11.2476806640625,3.93389892578125-15.235107421875,18.59185791015625-14.323974609375,37.75958251953125-27.80462646484375,58.233642578121362-39.3509521484375,17.257263183597388-9.732177734375,35.026184082033069-18.3583984375,53.426879882814319-25.7559814453125,12.10791015625-4.86767578125,24.408508300777612-9.11053466796875,36.8216552734375-13.06787109375,9.767822265621362-3.114013671875,19.683105468746362-5.677307128907159,29.665710449215112-8.0382080078125,8.45025634765625-1.998474121094659,17.0030517578125-3.441345214844659,25.47222900390625-5.31109619140625,3.12982177734375-.69097900390625,4.66278076171875-.000732421875,4.7020263671875,3.767578125.06341552734375,6.09173583984375,1.42919921875,12.11212158203125,1.339111328125,18.26824951171875-.0355224609375,2.426025390625,2.291259765625,4.55865478515625,4.4202880859375,4.55810546875,2.3782958984375-.0006103515625,1.21661376953125-2.76629638671875,1.3427734375-4.31201171875.66400146484375-8.13714599609375-.89324951171875-16.1572265625-1.42144775390625-24.233947753907159-.091552734375-1.399841308592841-.7103271484375-2.118347167967841-1.90447998046875-2.882507324217841-7.8287353515625-5.00933837890625-15.841552734375-9.72100830078125-23.70843505859375-14.65765380859375-13.30474853515625-8.34906005859375-27.2044677734375-15.61572265625-40.850830078125-23.343505859375-1.922485351558862-1.08868408203125-2.95751953125-.8201904296875-3.327148437496362,1.51446533203125-.65911865234375,4.16290283203125-1.20977783203125,8.36480712890625-2.2366943359375,12.44189453125-1.23095703125,4.88763427734375-2.25506591796875,9.8643798828125-4.36883544921875,14.49334716796875-.757507324222388,1.6588134765625-1.591064453128638,1.9326171875-3.004089355472388.41656494140625-2.33544921875-2.50567626953125-4.8094482421875-4.89788818359375-7.368957519527612-7.17626953125-8.39215087890625-7.47039794921875-16.729248046875-14.989013671875-23.9359130859375-23.65655517578125-1.79791259765625-2.162353515625-2.89739990234375-4.24493408203125-2.044311523435681-7.40838623046875.742370605466931-2.7528076171875,1.437866210935681-5.958984375-2.681091308595569-7.71826171875-8.952453613280341-3.82373046875-17.6861572265625-8.1246337890625-27.328125000002728-10.13311767578125-3.06854248046875-.63916015625-5.156677246094659-.2498779296875-6.989257812500909,2.5098876953125-4.619567871092841,6.95672607421875-9.270935058589203,13.90911865234375-14.268188476557953,20.59515380859375-13.705932617186591,18.3375244140625-26.372619628905341,37.31707763671875-36.195617675780341,58.04827880859375-5.269287109375,11.12078857421875-10.39996337890625,22.32330322265625-15.09417724609375,33.69488525390625-3.27557373046875,7.934814453125-5.7518310546875,16.20306396484375-8.49853515625,24.35162353515625-2.86541748046875,8.50091552734375-5.641845703125,17.03192138671875-8.41546630859375,25.5633544921875-.35150146484375,1.08111572265625-.1937255859375,2.21307373046875.23828125,3.2994384765625,5.28204345703125,13.2818603515625,12.11016845703125,25.780517578125,19.43798828125,38.009887695308862.74365234375,1.241088867183862,1.49176025390625,2.846862792965112,3.337646484375,3.297912597650793,5.749267578125,1.4049072265625,11.4322509765625,3.098876953125,17.21026611328125,4.364135742185681,10.25189208984375,2.24493408203125,20.424377441405341,4.785644531248181,30.599792480467841,7.341735839841931,2.63128662109375.661010742185681,5.323852539059772,2.117309570307043,8.826538085933862,1.439453124994543-2.56207275390625-3.806518554682043-4.613281249997272-7.185363769523974-9.186035156246362-8.784362792961474Z"/>
  <path class="cls-3" d="M41.460137075337116,209.955422904772604c1.11376953125-3.7451171875,1.07745361328125-7.83233642578125,1.67425537109375-12.80401611328125-4.39105224609375,3.414428710939319-8.01190185546875,6.08770751953125-11.44366455078125,8.984985351564319-1.0323486328125.871520996091931-1.75628662109375,2.150512695310681-1.089599609375,3.908569335935681,1.9512939453125,5.14605712890625,3.52520751953125,10.437194824216931,5.5333251953125,15.55926513671875,3.11602783203125,7.948120117189319,5.17510986328125,9.411071777345569,13.65057373046875,9.168640136720569.07513427734375-1.31231689453125-.86138916015625-1.85498046875-1.72943115234375-2.583251953125-2.25872802734375-1.894958496095569-4.37127685546875-3.963073730470569-6.6026611328125-5.892150878908069-.97967529296875-.84698486328125-2.00067138671875-1.838317871091931-1.659423828125-3.077819824220569,1.19525146484375-4.341369628902612.3594970703125-8.868835449216931,1.6666259765625-13.264221191404431Z"/>
  <path class="cls-3" d="M221.700615590963935,117.446389701647604c2.82196044921875,2.87060546875,5.70428466796875,4.922119140625,8.9249267578125,6.785705566407159.94464111328125-9.676330566407159.74627685546875-10.631225585938409-8.9249267578125-6.785705566407159Z"/>
  <g>
    <path class="cls-2" d="M26.751009400406474,256.61595332680281c-.0020751953125-.00238037109375-.00390625-.00482177734375-.0059814453125-.0072021484375-.014404296875-.0009765625-.028564453125-.002685546875-.04296875-.003662109375l.0489501953125.0108642578125Z"/>
    <path class="cls-2" d="M264.273226197281474,154.636583209629862c-2.96392822265625-4.65008544921875-7.36041259765625-8.179382324219659-9.766845703125-13.196655273438409-1.6280517578125-.532470703125-.90350341796875-1.76171875-.84588623046875-2.80908203125.71392822265625-12.9837646484375-.06396484375-25.886474609375-2.04150390625-38.7315673828125-.20147705078125-1.30859375-.953125-1.770751953125-1.9598388671875-2.40509033203125-8.77142333984375-5.52691650390625-17.39019775390625-11.30072021484375-26.2381591796875-16.70001220703125-8.997802734375-5.49078369140625-18.203857421875-10.64044189453125-27.3187255859375-15.93939208984375-1.31951904296875-1.4019775390625-2.8787841796875-2.434814453125-4.70587158203125-3.0550537109375-4.47198486328125-2.40179443359375-9.7257080078125-3.39678955078125-13.3099365234375-7.3958740234375-.949951171871362-2.4654541015625-.705566406246362-5.14422607421875-1.368652343746362-7.660888671875-.0545654296875-.94000244140625-.109130859375-1.87994384765625-.1636962890625-2.8199462890625-.356872558597388-.31353759765625-1.004882812503638-.60723876953125-1.027648925784888-.943359375-.421997070308862-6.2259521484375-3.261047363277612-11.76617431640625-4.890808105465112-17.6448974609375-2.124023437503638-7.6612548828125-7.236511230476026-10.38543701171875-13.091552734382276-8.89410400390625-10.770629882808862,2.743408203125-18.28399658203125,9.57275390625-24.2706298828125,18.45904541015625-.74871826171875,1.1114501953125-1.31536865234375,2.22711181640625-2.74871826171875,2.86346435546875-5.15264892578125-12.4267578125-12.089599609374091-23.58148193359375-20.36029052734375-33.91680908203125-3.434265136717841-4.2916259765625-12.239562988280341-6.05401611328125-15.995361328127728.3951416015625-2.264160156246362,3.8878173828125-3.503173828125,8.06695556640625-4.578979492188409,12.3492431640625-1.200561523436591,1.360595703125-.12109375,3.36212158203125-1.327209472655341,4.72113037109375-.0550537109375.4403076171875-.110107421875.880615234375-.1651611328125,1.32086181640625-.75726318359375,1.4730224609375-.31683349609375,3.28277587890625-1.31805419921875,4.68719482421875-.195373535155341.699951171875-.291442871092841,1.61529541015625-1.378845214841022,1.03326416015625-5.699890136714203-3.0506591796875-11.745300292964203-4.549560546875-18.227294921871362-4.14532470703125-2.5166015625.86004638671875-4.5247802734375,2.405517578125-6.1048583984375,4.528076171875-2.09429931640625,2.756591796875-1.89892578125,6.19903564453125-2.7906494140625,9.3157958984375-.0015869140625,3.781982421875-.003173828125,7.56402587890625-.0047607421875,11.34600830078125.81036376953125,2.53948974609375.73114013671875,5.23016357421875,1.32666015625,7.80615234375.09857177734375.97576904296875.1971435546875,1.95147705078125.295654296875,2.92724609375-.3487548828125,1.032958984375-1.244384765625.7669677734375-1.99609375.84075927734375-1.38507080078125-.21759033203125-2.97406005859375.58380126953125-4.1236572265625-.8211669921875-.5679931640625-.935302734375-1.56146240234375-.51300048828125-2.3524169921875-.73712158203125-.6361083984375-.19683837890625-1.272216796875-.39373779296875-1.9083251953125-.590576171875-1.430419921875,1.10406494140625-3.43701171875.1292724609375-4.8377685546875,1.34051513671875l-.0699462890625.0361328125c-2.1204833984375.79461669921875-4.1251220703125,1.6817626953125-3.64208984375,4.55682373046875-1.351806640625,7.2042236328125-.50244140625,14.4774169921875-.68157958984375,21.71826171875.13824462890625.15069580078125.13592529296875.29931640625-.007080078125.44573974609375.57037353515625,1.5567626953125.6009521484375,3.20074462890625.78704833984375,4.82061767578125,1.57122802734375,2.505126953125,2.12628173828125,5.0389404296875.22296142578125,7.6419677734375-1.33575439453125,1.1658935546875-1.78875732421875,2.8746337890625-2.66070556640625,4.32568359375-1.13543701171875,1.8416748046875-2.3583984375,3.63861083984375-2.94549560546875,5.76055908203125-2.25152587890625,5.03509521484375-4.88751220703125,9.88641357421875-7.24493408203125,14.87255859375-1.707763671875,3.6121826171875-2.3599853515625,7.65234375-4.68536376953125,10.9688720703125-1.24365234375,5.36431884765625-3.71490478515625,10.313232421875-5.7379150390625,15.360229492188409-4.64984130859375,11.60015869140625-8.72271728515625,23.36602783203125-12.592041015625,35.2364501953125-1.31036376953125,4.02001953125-1.785400390625,8.39569091796875-4.241943359375,12.02691650390625-.16033935546875,3.4202880859375-2.15728759765625,6.47503662109375-.567138671875,10.313720703125,3.89801025390625,9.40997314453125,8.04296875,18.68701171875,12.99432373046875,27.57220458984375,3.99041748046875,7.160827636713293,7.65948486328125,14.556396484365905,13.13958740234375,20.788452148422948,4.2152099609375.281494140625,8.2816162109375,1.1759033203125,12.13238525390625,2.9566650390625.38555908203125.444458007810681.806640625.532470703123181,1.27691650390625.12725830078125,5.728515625.855651855466931,11.27850341796875,2.395385742185681,16.7166748046875,4.362365722652612,1.3919677734375.06085205078125,2.78424072265625.12164306640625,4.17645263671875.1824951171875,1.373291015625,1.087829589840112,3.27923583984375.27679443359375,4.66796875,1.309387207027612,6.620910644532159,1.590637207029431,13.255126953125,3.128540039060681,19.857604980465112,4.792236328121362,3.825195312496362.9638671875,7.905578613277612,1.533569335933862,11.347839355469659,3.300170898433862,26.581298828124091,13.64227294921875,54.965698242190228,19.387145996097388,84.596984863283978,19.639953613284888,14.03533935546875.1197509765625,25.80181884765625-5.150451660159888,34.7381591796875-16.195251464847388,3.48504638671875-4.30731201171875,6.891845703125-8.677856445307043,10.33526611328125-13.019836425770336,1.87786865234375-3.037963867185681,3.73468017578125-6.088317871090112,5.63519287109375-9.111267089840112,7.0888671875-11.275390624990905,10.90570068359375-24.207275390610448,17.95867919921875-35.492858886704198,3.2462158203125-5.19439697265625,5.139892578125-11.11541748046875,8.7900390625-16.0806884765625.2239990234375-.822265625.35589599609375-1.68353271484375.6861572265625-2.4605712890625,3.205810546875-7.5430908203125,6.81158447265625-14.94036865234375,9.57720947265625-22.6400146484375,3.1190185546875-8.68365478515625-.27703857421875-16.286865234375-4.96533203125-23.6422119140625ZM136.951937134777836,56.389879108066452c1.49798583984375-12.88836669921875,7.291687011722388-22.85809326171875,19.294372558597388-28.71112060546875,2.684570312496362-1.30908203125,3.987365722652612-.91009521484375,5.169006347652612,2.12164306640625,6.831542968753638,17.52703857421875,6.044982910159888,35.07501220703125.6944580078125,53.402099609375-8.784362792965112-7.86962890625-17.199890136715112-15.0673828125-24.216796875-23.718017578125-.76336669921875-.94110107421875-1.07940673828125-1.90435791015625-.9410400390625-3.0946044921875ZM97.204439576184996,28.934923053378952c.7506103515625-5.57012939453125,2.24560546875-10.9478759765625,4.193481445313409-16.2091064453125.478759765625-1.293212890625,1.12249755859375-1.5753173828125,2.0596923828125-.39129638671875,5.771362304685681,7.2913818359375,10.756530761721478,15.0606689453125,15.154296874998181,24.29217529296875-7.150695800777612-2.53021240234375-13.477050781248181-4.6343994140625-20.118713378904431-5.4813232421875-1.381164550782159-.17608642578125-1.431945800782159-1.1478271484375-1.288757324219659-2.21044921875ZM69.560518677750224,36.064805865878952c.178649902344659-1.35968017578125,1.141296386719659-1.8050537109375,2.476257324219659-1.56072998046875,3.97564697265625.72772216796875,7.637939453125,2.25640869140625,11.126892089842841,4.25543212890625,1.191284179688409.68255615234375,1.583801269532159,1.4842529296875.700134277344659,2.71539306640625-4.125915527344659,5.74786376953125-8.2298583984375,11.511474609375-12.847839355469659,17.9783935546875-2.181884765625-8.3272705078125-2.4500732421875-15.819091796875-1.4554443359375-23.38848876953125ZM50.601839478531474,72.601426959628952c.0225830078125-.4864501953125.03826904296875-1.2744140625.3055419921875-1.4019775390625,2.811767578125-1.3421630859375,4.85565185546875.86004638671875,7.171630859375,1.73028564453125,1.1123046875.41802978515625,2.5709228515625,1.0953369140625,1.52862548828125,2.718505859375-2.4669189453125,3.84173583984375-5.05218505859375,7.60736083984375-8.17767333984375,12.28363037109375-1.04461669921875-5.91424560546875-1.046875-10.61724853515625-.828125-15.3304443359375ZM81.202425416032384,259.32353389320906c-10.1754150390625-2.55609130859375-20.347900390625909-5.0968017578125-30.599792480469659-7.341735839841931-5.77801513671875-1.265258789057043-11.46099853515625-2.959228515619543-17.21026611328125-4.364135742182043-1.84588623046875-.4510498046875-2.593994140625-2.05682373046875-3.337646484375-3.297912597654431-7.32781982421875-12.229370117182043-14.15594482421875-24.728027343744543-19.43798828125-38.009887695307043-.4320068359375-1.08636474609375-.58978271484375-2.21832275390625-.23828125-3.2994384765625,2.77362060546875-8.53143310546875,5.550048828125-17.06243896484375,8.41546630859375-25.5633544921875,2.7467041015625-8.1485595703125,5.22296142578125-16.41680908203125,8.49853515625-24.35162353515625,4.6942138671875-11.371582031250909,9.82489013671875-22.574096679688409,15.09417724609375-33.694885253907159,9.822998046875-20.731201171875,22.48968505859375-39.71075439453125,36.195617675782159-58.04827880859375,4.99725341796875-6.68603515625,9.648620605461474-13.638427734375,14.268188476554315-20.59515380859375,1.832580566407159-2.759765625,3.920715332035797-3.1490478515625,6.989257812504547-2.5098876953125,9.641967773436591,2.00848388671875,18.375671386719659,6.30938720703125,27.328124999999091,10.13311767578125,4.11895751953125,1.75927734375,3.4234619140625,4.9654541015625,2.681091308595569,7.71826171875-.853088378908069,3.1634521484375.246398925779431,5.24603271484375,2.044311523435681,7.40838623046875,7.2066650390625,8.66754150390625,15.543762207034888,16.1861572265625,23.935913085941138,23.65655517578125,2.559509277340112,2.27838134765625,5.033508300777612,4.67059326171875,7.368957519527612,7.17626953125,1.41302490234375,1.51605224609375,2.24658203125,1.24224853515625,3.004089355472388-.41656494140625,2.11376953125-4.62896728515625,3.13787841796875-9.605712890625,4.368835449222388-14.49334716796875,1.02691650390625-4.07708740234375,1.57757568359375-8.27899169921875,2.2366943359375-12.44189453125.369628906246362-2.33465576171875,1.4046630859375-2.6031494140625,3.327148437496362-1.51446533203125,13.6463623046875,7.727783203125,27.54608154296875,14.99444580078125,40.850830078125,23.343505859375,7.86688232421875,4.9366455078125,15.87969970703125,9.6483154296875,23.70843505859375,14.65765380859375,1.19415283203125.76416015625,1.81292724609375,1.482666015625,1.90447998046875,2.88250732421875.5281982421875,8.07672119140625,2.08544921875,16.0968017578125,1.42144775390625,24.23394775390625-.12615966796875,1.54571533203125,1.0355224609375,4.3114013671875-1.3427734375,4.31201171875-2.1290283203125.00054931640625-4.455810546875-2.132080078125-4.4202880859375-4.55810546875.090087890625-6.1561279296875-1.27569580078125-12.176513671875-1.339111328125-18.26824951171875-.03924560546875-3.768310546875-1.57220458984375-4.45855712890625-4.7020263671875-3.767578125-8.46917724609375,1.8697509765625-17.02197265625,3.3126220703125-25.47222900390625,5.31109619140625-9.98260498046875,2.36090087890625-19.89788818359375,4.9241943359375-29.665710449215112,8.0382080078125-12.413146972663526,3.95733642578125-24.713745117191138,8.2001953125-36.821655273444776,13.06787109375-18.40069580078125,7.3975830078125-36.169616699216931,16.023803710938409-53.426879882815228,25.755981445313409-20.474060058587384,11.54632568359375-39.641784667962384,25.0269775390625-58.233642578118634,39.3509521484375-5.17547607421875,3.9874267578125-6.05560302734375,9.38067626953125-3.93389892578125,15.235107421875,2.00543212890625,5.533813476560681,3.810546875,11.1375732421875,6.28411865234375,16.5179443359375,2.82989501953125,6.155395507810681,7.31683349609375,9.150573730465112,13.9925537109375,10.365600585933862,6.5048828125,1.1839599609375,13.30609130859375.40631103515625,19.52764892578125,2.696533203121362,5.600341796875,2.06146240234375,10.751770019532159,5.363281249998181,16.376770019532159,7.330078124994543,4.572753906245453,1.598999023435681,6.623962402336474,4.977844238279431,9.186035156242724,8.784362792965112-3.502685546874091.6778564453125-6.195251464836474-.7784423828125-8.826538085930224-1.439453124998181ZM230.332064087906474,124.623399615878952c-3.22064208984375-1.86358642578125-6.10296630859375-3.91510009765625-8.9249267578125-6.78570556640625,9.67120361328125-3.84552001953125,9.86956787109375-2.890625,8.9249267578125,6.78570556640625ZM41.159456666031474,226.688768268223612c2.23138427734375,1.9290771484375,4.34393310546875,3.9971923828125,6.6026611328125,5.89215087890625.8680419921875.728271484375,1.8045654296875,1.27093505859375,1.72943115234375,2.583251953125-8.4754638671875.242431640625-10.5345458984375-1.22052001953125-13.65057373046875-9.16864013671875-2.00811767578125-5.122070312503638-3.58203125-10.4132080078125-5.5333251953125-15.55926513671875-.66668701171875-1.758056640625.0572509765625-3.03704833984375,1.089599609375-3.9085693359375,3.4317626953125-2.89727783203125,7.0526123046875-5.570556640625,11.44366455078125-8.9849853515625-.5968017578125,4.9716796875-.56048583984375,9.05889892578125-1.67425537109375,12.80401611328125-1.30712890625,4.3953857421875-.47137451171875,8.9228515625-1.6666259765625,13.264221191402612-.34124755859375,1.239501953128638.67974853515625,2.230834960941138,1.659423828125,3.077819824222388ZM256.329012330093974,182.142625690098612v-.0001220703125c-4.59649658203125,12.99273681640625-10.87347412109375,25.2022705078125-17.79925537109375,37.0555419921875-2.79754638671875,4.788024902341931-4.8089599609375,9.85345458984375-6.98101806640625,14.88116455078125-6.101318359375,14.122985839836474-14.58746337890625,26.697937011702379-24.76495361328125,38.157958984345896-6.40606689453125,7.213317871097388-14.5421142578125,10.78436279296875-24.19183349609375,10.80792236328125-26.72845458984375.06524658203125-52.343627929691138-5.05389404296875-76.634948730471478-16.415405273428405-2.220764160155341-1.038696289064319-4.129760742186591-2.270263671873181-5.44708251953125-4.349365234373181-.19970703125-.315185546875-.47137451171875-.584350585935681-.67633056640625-.896728515623181-5.926635742192047-9.034729003902612-13.158996582033978-16.135681152334655-23.946044921872272-19.585754394518517-6.55731201171875-2.0972900390625-12.43792724609375-6.212890624996362-17.8741455078125-10.651062011715112l-.00018310546875.0003662109375c-.12078857421875-.0355224609375-.26220703125-.0400390625-.35784912109375-.10845947265625-11.1524658203125-7.984130859378638-11.439453125-8.033203125003638-9.1387939453125-21.55303955078125,3.8031005859375-22.3487548828125.0635986328125-16.2298583984375,18.00958251953125-28.071044921875,43.318725585933862-28.5826416015625,90.364074707027612-48.700866699219659,140.9149169921875-60.593200683594659,2.52105712890625-.5931396484375,4.4940185546875-.453125,6.609130859375,1.11053466796875,14.97601318359375,11.07177734375,29.5994873046875,22.464111328125,41.03387451171875,37.467956542969659,5.727783203125,7.51580810546875,6.2421875,14.8680419921875,1.24493408203125,22.74273681640625Z"/>
    <path class="cls-2" d="M212.571382935562724,209.680356031472002c-.0003662109375.00006103515625-.00079345703125.0001220703125-.00115966796875.00018310546875-.10491943359375.217041015625-.2269287109375.40179443359375-.3594970703125.5660400390625-.8602294921875,1.06585693359375-2.24749755859375,1.11236572265625-3.47186279296875,1.27734375-7.79058837890625,1.0499267578125-15.3939208984375,2.80291748046875-22.72210693359375,5.686767578125-.71295166015625.28057861328125-1.4630126953125.5111083984375-2.2166748046875.216552734375-.09759521484375-.03814697265625-.19525146484375-.0826416015625-.29290771484375-.1395263671875-4.0513916015625,6.652038574216931-3.98370361328125,6.589660644529431,1.35662841796875,12.3865966796875,3.87689208984375,4.2083740234375,8.495361328125,7.29510498046875,13.53302001953125,9.882690429683862,1.40802001953125.7232666015625,3.924072265625.72369384765625,3.3497314453125,3.238952636716931-.64697265625,2.833435058591931.88165283203125,6.400329589841931-2.87420654296875,8.271850585930224-18.87750244140625,9.406372070308862-37.678588867191138,5.797241210935681-48.0679931640625-12.245117187487267-1.272705078125-2.21014404296875-2.7901611328125-4.19384765625-5.60296630859375-2.79736328125-3.05255126953125,1.515502929685681-2.26068115234375,3.842468261715112-.94830322265625,6.329040527340112,10.06878662109375,19.077453613268517,32.315307617191138,26.261230468729991,53.630126953125,17.247009277332836,1.20068359375-.5078125,2.42486572265625-1.0201416015625,4.05145263671875-1.70330810546875.07891845703125.084716796875.15521240234375.1834716796875.23016357421875.289306640625-1.81048583984375,3.748779296871362-4.39019775390625,5.987121582027612-7.16748046875,8.042968749996362-1.970458984375,1.458679199215112-2.81591796875,3.387512207025793-1.38818359375,5.505065917961474,1.59002685546875,2.358459472652612,3.80023193359375,2.027221679683862,5.88641357421875.520690917965112,4.4263916015625-3.196228027336474,8.012451171875-7.153625488273974,10.38604736328125-12.093200683581017,1.541015625-3.206909179685681,2.4603271484375-6.841552734371362,6.67510986328125-7.763854980465112.5150146484375-.11273193359375.9100341796875-.8216552734375,1.33837890625-1.2752685546875,8.64666748046875-9.156555175772155,10.1126708984375-25.367187499987267,3.1475830078125-35.880065917956017-1.98992919921875-3.00341796875-4.70098876953125-5.15234375-8.4713134765625-5.5633544921875Z"/>
    <path class="cls-2" d="M161.913546021496586,197.257918446549411c.00006103515625-.0003662109375.00006103515625-.000732421875.0001220703125-.0010986328125-.09197998046875-.25946044921875-.215576171875-.4857177734375-.32989501953125-.7218017578125-1.3262939453125-2.7392578125-4.05218505859375-4.01409912109375-6.353576660152612-5.73699951171875-.072998046875-.0546875-.14971923828125-.10546875-.2218017578125-.1611328125-.38873291015625-.3004150390625.16363525390625.08447265625-.0819091796875-.3477783203125-.103271484375-.18170166015625.12548828125-.32080078125.4556884765625-.2862548828125-4.5863037109375-1.62774658203125-9.24652099609375-2.92755126953125-14.114013671878638-3.41949462890625-2.511962890625-.25384521484375-4.65289306640625.18695068359375-5.03497314453125,3.06103515625-.3848876953125,2.89520263671875,1.5008544921875,3.882080078125,4.0806884765625,4.1468505859375,5.379516601566138.5521240234375,10.509826660159888,2.08392333984375,15.325195312503638,4.507080078125,2.483154296871362,1.24951171875,4.494079589840112,1.19232177734375,6.274475097652612-1.0404052734375Z"/>
    <path class="cls-2" d="M211.953585084000224,193.352098346348612c1.33355712890625-.0740966796875,2.48333740234375-.58233642578125,3.0927734375-1.78778076171875,2.0361328125-4.0274658203125,4.68463134765625-7.62457275390625,7.451171875-11.1680908203125,1.31512451171875-1.6844482421875,1.04327392578125-3.5067138671875-.554443359375-5.03125-1.60015869140625-1.52691650390625-3.32586669921875-1.1776123046875-4.699462890625.09893798828125-3.98895263671875,3.70733642578125-6.87738037109375,8.22796630859375-8.741943359375,13.31976318359375-.865478515625,2.3634033203125.9989013671875,4.5806884765625,3.451904296875,4.56842041015625Z"/>
  </g>
</svg>