<?xml version="1.0" encoding="UTF-8"?>
<svg id="Layer_1" data-name="Layer 1" xmlns="http://www.w3.org/2000/svg" viewBox="0 0 359.336768240048514 46.666067918100453">
  <defs>
    <style>
      .cls-1 {
        fill: #231f20;
        stroke-width: 0px;
      }
    </style>
  </defs>
  <path class="cls-1" d="M32.167090965808711,31.775321262875877c.410425403072622.923457156912264,1.06104294544275,1.769959550749263,1.951852627111293,2.539507181510999s1.851578238861293,1.387517697887233,2.882305671577342,1.853910201378312c1.030727432715139.466392503491079,1.92386907690252.699588755236618,2.679424932558504.699588755236618h-16.664204149750731c.774211555795773,0,1.602058249492984-.14924560111649,2.483540081091633-.44773680335129.881481831597739-.2984912022348,1.639369649773471-.764883705725879,2.273663454521738-1.399177510475056s.998079957471418-1.450480685858565,1.091358458170362-2.448560643329984l-2.910289221787025-7.443624355724751h-15.558853916477347c-.848834356353109,2.471880268505629-1.693004787673999,4.939096611975401-2.532511293958123,7.401649030409317.074622800559155,1.007407807543132.429081103212411,1.830590576204486,1.063374907960679,2.469548305987701s1.396845547957128,1.110014158311969,2.28765522962567,1.413169285580807,1.72332030040161.454732690903256,2.497531856197384.454732690903256H0c.774211555795773,0,1.665021237465226-.172565226292136,2.672429045006538-.517695678874588s1.935528889489433-.846502393837,2.784363245844361-1.504115823761822c.848834356354018-.657613429923003,1.45980853592846-1.452812648374675,1.832922538720595-2.385597655358652.055967100419366-.158573451186385.111934200837823-.321810827408626.167901301257189-.489712128664905,1.072702758030573-3.13415762346267,2.145405516061146-6.272979171961197,3.21810827409081-9.416464645493761.596982404470509-1.72565226291772,1.189300883904252-3.451304525837259,1.776955438303048-5.176956788756797l1.679013012569158-4.925104836867831c.391769702934653-1.147325558589728.783539405866577-2.299315042213493,1.175309108798501-3.455968450873115.382441852862939-1.110014158308331.764883705725879-2.224692241654338,1.147325558589728-3.344034250032564.065294950488351-.195884851467781.135253826012558-.3964336279696.209876626570804-.601646329505456.046639250349472-.139917751046596.093278500698034-.284499427129049.139917751047506-.433745028245539l.027983550209683-.055967100421185v-.055967100417547c0-.027983550211502-.004663925034947-.060631025455223-.013991775104842-.0979424257348,0-.046639250347653-.004663925034947-.093278500697124-.013991775104842-.139917751046596-.027983550207864-.195884851465962-.06529495048926-.387105777897887-.111934200836913-.573662779293954-.27983550209683-1.082030608100467-.818518843628226-1.963512439699116-1.616050024598735-2.644445494795946S13.357481299996834.027983550209683,12.312762092175035.027983550209683h7.443624355724751l12.326753867279876,31.551452861198413v.013991775105751h.013991775103932l.069958875525117.18189307636203ZM22.540749693744146,24.569557083930704h3.190124723881127L17.657620182188111,3.903705254224406c-.06529495048926.195884851465962-.135253826012558.387105777896068-.209876626572623.573662779292135-.046639250347653.149245601118309-.097942425731162.293827277200762-.153909526150528.433745028249177-.055967100419366.177229151326173-.116598125873679.359122227688204-.18189307636294.545679229084271l-.279835502094102.839506506285034c-.429081103210592,1.231276209218777-.853498281389875,2.462552418433916-1.273251534530573,3.693828627652692l-1.25925975942846,3.693828627652692c-.578326704328902,1.697668712708037-1.156653408658713,3.390673500382036-1.734980112989433,5.079014363021997l-1.762963663196388,5.148973238545295c-.027983550210593.093278500698943-.060631025454313.191220926433743-.097942425733891.293827277200762-.037311400278668.121262050908626-.079286725593192.242524101815434-.125925975942664.363786152722241h11.962967714557635Z"/>
  <path class="cls-1" d="M55.407429414788567,28.389311687527879c.550343154120128,1.156653408657803.638957729783215,2.341290367527108.26584372699017,3.553910876604277-.391769702932834,1.091358458170362-1.040055282785033,2.000823839978693-1.944856739558418,2.728396145424995-.904801456774294.72757230544812-1.893553564175818,1.273251534532392-2.9662563222073,1.637037687254633-2.201372616478693.736900155518015-4.44472055827373.876817906564611-6.730043825381472.419753253141607-.97942425733163-.186557001396068-1.926201039419539-.501371941250909-2.840330346262817-.944444819568162-.914129306842369-.443072878319072-1.720988337883682-1.023731545164992-2.42057709312121-1.741976000541399-.690260905167634-.718244455378226-1.156653408658713-1.557750961661441-1.399177510474146-2.518519518853282-.111934200838732-.522359603910445-.139917751047506-1.044719207822709-.08395065062814-1.567078811733154.046639250348562-.345130452582453.125925975941755-.68093305509683.237860176780487-1.007407807539494.074622800558245-.298491202236619.205212701535856-.573662779295773.391769702931924-.825514731181102.195884851466872-.21454055160757.436076990765287-.3474624151022.720576417894335-.398765590485709.284499427130868-.051303175383509.557339041673004-.002331962517928.818518843628226.146913638600381.205212701535856.130589900978521.359122227689113.303155127268838.461728578456132.517695678876407.111934200838732.242524101813615.11659812587277.489712128664905.013991775104842.741564080550233-.317146902373679,1.04471920782089-.279835502095011,2.075446640537848.111934200837823,3.092182298149055.391769702933743.923457156914083.986420144884505,1.697668712708037,1.783951325855014,2.322634667387319s1.667353199982244,1.086694533134505,2.609466057035206,1.385185735369305c.541015304051143.177229151327992,1.091358458169452.307819052304694,1.651029462359475.391769702931924.326474752444483.06529495048926.662277354957951.093278500700762,1.007407807541313.083950650629049h.209876626571713c.279835502095011,0,.545679229085181-.023319625173826.797531180970509-.069958875523298.233196251745539-.055967100417547.452400728386237-.158573451186385.657613429923003-.307819052304694.205212701535856-.14924560111649.382441852862939-.312482977338732.531687453980339-.489712128664905.391769702933743-.419753253143426.708916605306513-.8954736067044.951440707123766-1.427161060684739.447736803350381-1.026063507681101.694924830200762-2.094102340675818.741564080550233-3.204116498985968.065294950488351-1.137997708519833-.167901301257189-2.210700466550406-.699588755237528-3.218108274091719-.522359603910445-.970096407261735-1.259259759425731-1.730316187953576-2.210700466549497-2.280659342071885-.904801456773384-.438408953283215-1.856242163895331-.713580530342369-2.854322121367659-.825514731181102-.177229151327083-.027983550209683-.349794377619219-.051303175383509-.517695678876407-.069958875523298-.195884851465962-.018655700139789-.387105777896977-.041975325315434-.573662779293954-.069958875523298-.680933055097739-.102606350768838-1.34321041005569-.275171577060974-1.986832064873852-.517695678876407-1.026063507681101-.382441852863849-1.94019281452438-.942112857053871-2.742387920529836-1.679013012570067-.783539405865668-.718244455376407-1.305899009776113-1.590398436905161-1.567078811731335-2.616461944588082-.242524101816343-1.110014158308331-.102606350767928-2.17338906626901.419753253142517-3.190124723880217.475720353560973-.886145756632686,1.135665746001905-1.60905413704495,1.979836177321886-2.168725141234972.844170431319071-.559671004190022,1.74197600053958-.970096407261735,2.693416707663346-1.231276209218777,2.061454865432097-.559671004190022,4.1135818807943-.527023528944483,6.156381046087517.0979424257348,1.063374907961588.326474752442664,2.031139352705395.853498281387147,2.903293334234149,1.581070586835267s1.471468348516282,1.637037687254633,1.797943100958946,2.728396145424995c.083950650629049.307819052304694.135253826013468.620302029643426.153909526152347.937448932018015.046639250349472.307819052304694-.004663925034038.5969824044696-.153909526152347.867490056494717-.158573451186385.251851951885328-.375445965310064.424417178175645-.650617542370128.517695678876407s-.552675116637147.088614575661268-.832510618732158-.013991775105751c-.261179801955223-.102606350768838-.466392503491079-.279835502095011-.615638104609388-.531687453980339-.102606350767928-.214540551605751-.139917751046596-.438408953281396-.111934200837823-.671605205026935.009327850069894-.503703903772475-.060631025453404-.993416032437381-.209876626570804-1.469136386000173-.317146902373679-.951440707121947-.858162206423913-1.753635813127403-1.623045912149792-2.40658531801455-.391769702933743-.345130452584272-.820850806145245-.634293804749177-1.287243309635414-.867490056494717-.242524101817253-.121262050908626-.494376053702581-.228532326711502-.755555855657803-.321810827408626-.027983550209683-.009327850069894-.051303175384419-.018655700139789-.069958875524208-.027983550209683-.242524101815434-.102606350768838-.485048203630868-.172565226292136-.727572305446301-.209876626571713-.335802602514377-.027983550209683-.676269130062792-.041975325313615-1.021399582647064-.041975325313615h-.027983550208774c-.130589900977611-.009327850069894-.26584372699017.004663925034038-.405761478037675.041975325313615-.093278500698034.027983550209683-.186557001396977.060631025453404-.279835502095011.097942425732981-.391769702932834.186557001396068-.732236230481249.433745028247358-1.021399582646154.741564080552052-.690260905167634.783539405863849-1.142661633553871,1.693004787673999-1.357202185160531,2.728396145424995-.23319625174463,1.04471920782089-.26584372698926,2.094102340677637-.097942425732981,3.148149398566602.074622800558245.503703903772475.202880739019747.995747994955309.384773815380868,1.47613227355032.18189307636203.48038427859683.440740915799324.907133419292222.776543518314611,1.280247422084358.391769702931015.410425403073532.858162206423003.708916605308332,1.399177510473237.8954736067044.44773680335129.158573451186385.909465381808332.270507652025117,1.385185735369305.335802602514377.223868401675645.037311400279577.452400728387147.060631025453404.685596980132686.069958875523298.680933055097739.046639250349472,1.352538260124675.135253826012558,2.014815615083535.265843726991079,1.240604059286852.251851951885328,2.413581205569244.713580530342369,3.518931438842628,1.385185735367486,1.105350233275203.671605205028754,1.95651655214715,1.576406661803048,2.55349895661584,2.714404370322882Z"/>
  <path class="cls-1" d="M64.348173706721354,32.474910018112496c.158573451186385,1.259259759426641.659945392440022,2.303978967247531,1.504115823760003,3.13415762346267s1.844582351308418,1.245267984322709,3.00123575996713,1.245267984322709h-12.410704517908925c1.156653408659622,0,2.157065328648059-.41275736559146,3.00123575996804-1.238272096770743s1.345542372573618-1.867901976484063,1.504115823760003-3.127161735910704v-16.230459121503372c-.606310254538585.111934200838732-1.184636958868396.060631025455223-1.734980112987614-.153909526152347-.027983550211502-.018655700139789-.055967100419366-.032647475243721-.083950650629049-.041975325313615-.1492456011174-.083950650629049-.223868401675645-.205212701535856-.223868401675645-.36378615272406,0-.121262050906807.041975325313615-.221536439157717.125925975942664-.300823164752728.08395065062814-.079286725591373.18189307636203-.118930088390698.293827277199853-.118930088390698.055967100418457,0,.102606350767928.004663925037676.139917751047506.013991775105751.027983550209683.009327850069894.051303175383509.018655700139789.069958875523298.027983550209683.401097553002728.177229151326173.830178656215139.265843726991079,1.287243309637233.265843726991079.475720353560973,0,.923457156912264-.097942425732981,1.34321041005478-.293827277200762.363786152723151-.158573451186385.680933055097739-.377777927827992.951440707122856-.657613429923003.055967100418457-.065294950487441.111934200837823-.125925975942664.167901301256279-.181893076360211v.013991775103932-.013991775103932c.419753253142517-.494376053702581.764883705726788-1.040055282786852,1.035391357751905-1.637037687256452v19.448567395596911l.027983550209683.209876626569894ZM62.641177143941604,11.039510557642643c-.568998854259917,0-1.051715095372856-.19821681398389-1.448148723341546-.594650441949852-.396433627966871-.3964336279696-.594650441950762-.874485944048502-.594650441950762-1.434156948236705,0-.559671004190022.19821681398389-1.040055282786852.594650441950762-1.441152835788671.39643362796869-.401097553003638.87914986908163-.601646329503637,1.448148723341546-.601646329503637.559671004190932,0,1.037723320268924.2005487765,1.434156948236705.601646329503637s.594650441951671.881481831598649.594650441951671,1.441152835788671c0,.559671004188203-.19821681398389,1.037723320267105-.594650441951671,1.434156948236705s-.874485944045773.594650441949852-1.434156948236705.594650441949852Z"/>
  <path class="cls-1" d="M115.586054140296255,32.502893568322179c.158573451186385,1.268587609496535.657613429923003,2.317970742353282,1.497119936208946,3.148149398568421.839506506284124.830178656215139,1.842250388784123,1.24526798432089,3.00823164751182,1.24526798432089h-5.16296501364377v-.013991775105751h-2.084774490605923v.013991775105751h-5.162965013651956c1.156653408657803,0,2.157065328648969-.415089328105751,3.00123575996713-1.24526798432089.844170431319981-.830178656215139,1.345542372572709-1.879561789071886,1.504115823760003-3.148149398568421.009327850068985-.055967100419366.013991775105751-.111934200838732.013991775105751-.167901301256279v-13.79589025327914c-.018655700140698-.643621654819071-.177229151327083-1.22661228418292-.475720353561883-1.748971888093365l-.083950650629049-.139917751048415c-.027983550209683-.055967100417547-.060631025453404-.107270275802875-.097942425732981-.153909526152347-.027983550208774-.037311400277758-.060631025453404-.074622800557336-.097942425732981-.111934200836913-.083950650629049-.102606350767019-.167901301257189-.195884851465962-.251851951885328-.279835502095011l-.055967100419366-.055967100417547-.08395065062814-.083950650629049-.027983550209683-.027983550209683c-.289163352163996-.261179801955223-.5969824044696-.485048203630868-.923457156913173-.671605205026935l-.055967100418457-.027983550209683h-.013991775104842c-.251851951885328-.139917751048415-.508367828806513-.251851951887147-.769547630761735-.335802602514377-.29849120223389-.102606350768838-.59698240446869-.167901301258098-.895473606702581-.195884851465962-.06529495048926-.009327850069894-.135253826012558-.018655700141608-.209876626571713-.027983550209683-.4477368033522-.018655700139789-.886145756634505.013991775103932-1.315226859846007.097942425732981-.643621654818162.139917751046596-1.263923684462497.387105777897887-1.860906088931188.741564080550233-.494376053701671.279835502095011-.96076855719366.620302029645245-1.399177510474146,1.021399582647064-.186557001396977.167901301258098-.368450077758098.345130452584272-.545679229085181.531687453980339-.233196251746449.270507652025117-.457064653422094.541015304050234-.671605205027845.811522956075351v.013991775103932l-.867490056494717,1.091358458170362-.08395065062814.111934200838732-.783539405864758.97942425733163-.167901301257189.209876626571713-.685596980132686.867490056494717-.167901301257189.209876626569894-.293827277198943.377777927827992c-.485048203631777.559671004190022-.979424257332539,1.119342008380045-1.483128161104105,1.679013012568248-.89547360670349.998079957473237-1.818930763616663,1.977504214804867-2.77037147073861,2.938272771998527-.2984912022348.2984912022348-.5969824044696.592318479433743-.8954736067044.881481831598649l5.344858090013076-4.911113061765718,1.119342008380045-1.035391357750996.573662779293954-.545679229084271v11.543214461413299l.013991775104842.013991775103932c0,.06529495048926.004663925034947.135253826012558.013991775104842.209876626571713.158573451187294,1.25925975942846.659945392440022,2.30397896724935,1.504115823760003,3.134157623464489.844170431319071.830178656215139,1.849246276342456,1.24526798432089,3.015227535072881,1.24526798432089h-5.176956788755888l-.013991775105751-.013991775105751h-2.042799165292308c-.009327850069894.009327850071713-.018655700138879.013991775105751-.027983550208774.013991775105751h-5.162965013651046c1.156653408658713,0,2.157065328648059-.412757365589641,3.00123575996713-1.238272096770743.844170431319981-.825514731179283,1.345542372573618-1.867901976482244,1.504115823760003-3.127161735910704v-5.63868536721202c0-.457064653421185-.111934200836913-.74622800558609-.335802602513468-.867490056492898-.223868401675645-.121262050908626-.510699791323532-.13292186349463-.860494168941841-.034979437761649s-.720576417894335.256515876919366-1.112346120827169.475720353560973-.753223893138966.447736803353109-1.084362570619305.685596980132686c-.331138677477611.237860176781396-.594650441949852.436076990763468-.790535293416724.594650441951671-1.455144610893512,1.389849660405162-2.980248097309413,2.705076520251168-4.575310459250431,3.945680579538021-.466392503491988.354458302654166-.937448932019834.699588755236618-1.413169285578988,1.035391357750996-1.016735657612116.727572305446301-2.075446640537848,1.389849660405162-3.176132948778104,1.986832064872942-.074622800558245.037311400279577-.1492456011174.079286725595011-.223868401675645.125925975944483-.018655700139789.009327850068075-.041975325314525.018655700139789-.069958875523298.027983550207864-.06529495048926.037311400281396-.125925975943574.069958875523298-.18189307636294.097942425732981-.027983550208774.018655700139789-.055967100417547.03264747524554-.08395065062814.041975325315434-.018655700138879.009327850069894-.032647475243721.018655700139789-.041975325314525.027983550207864h-.013991775103932c-.046639250349472.027983550211502-.093278500698034.051303175385328-.139917751047506.069958875525117-.074622800559155.037311400279577-.144581676082453.074622800559155-.209876626571713.111934200836913l-.055967100418457.027983550211502h-.013991775104842l-.251851951886238.111934200836913c-.027983550208774.018655700139789-.055967100416638.032647475243721-.08395065062814.041975325315434l-.503703903770656.223868401673826-.279835502094102.111934200838732c-.755555855655984.31714690237277-1.534431336486705.573662779293954-2.33662644249307.769547630761735-.055967100419366.009327850069894-.111934200837823.023319625173826-.167901301256279.041975325313615-.074622800559155.018655700139789-.144581676082453.037311400279577-.209876626571713.055967100419366-.046639250348562.009327850068075-.097942425732981.023319625173826-.153909526152347.041975325313615l-.167901301257189.027983550209683c-.027983550208774.009327850069894-.051303175383509.013991775105751-.069958875523298.013991775105751l-.111934200838732.027983550207864c-.046639250348562.009327850069894-.097942425732981.018655700139789-.153909526150528.027983550209683-.886145756633596.139917751046596-1.762963663199116.139917751046596-2.630453719692923,0l-.419753253142517-.055967100417547c-.065294950488351-.009327850071713-.125925975942664-.023319625175645-.18189307636203-.041975325315434-.046639250348562-.009327850069894-.08395065062814-.023319625173826-.111934200836913-.041975325313615-2.145405516060237-.531687453982158-3.833746378700198-1.739644038023471-5.065022587918065-3.623869752129394-.848834356353109-1.427161060684739-1.221948359147973-2.945268659548674-1.119342008379135-4.554322796593624.102606350767928-1.609054137046769.657613429923003-3.071194635493157,1.665021237464316-4.386421495337345.988752107402433-1.221948359147063,2.20603654151455-2.091770378159708,3.651853302338168-2.609466057034297,1.445816760824528-.517695678876407,2.942936697031655-.631961842233068,4.491359808623201-.342798490068162,2.117421965851463.466392503492898,3.791771053386583,1.548423111593365,5.023047262603541,3.246091824301402v-7.16378885362974c-.121262050907717-1.240604059286852-.543347266567253-2.27133149200381-1.266255646979516-3.092182298149055s-1.583402549354105-1.231276209215139-2.581482506825523-1.231276209215139c-.904801456773384,0-1.697668712708946.33347063999463-2.378601767806686,1.000411919987528s-1.137997708518924,1.527435448935648-1.371193960265373,2.581482506824614c-.018655700139789.074622800560974-.032647475243721.158573451188204-.041975325313615.251851951885328,0,.009327850071713-.004663925034947.023319625175645-.013991775104842.041975325315434v.055967100419366l-.027983550208774.279835502093192c0,.037311400281396-.004663925036766.074622800559155-.013991775105751.111934200838732v.069958875523298l-.013991775104842.18189307636203c0,.037311400279577-.009327850069894.079286725595011-.027983550208774.125925975942664-.074622800559155.233196251745539-.200548776501819.424417178177464-.377777927828902.573662779293954-.223868401675645.195884851467781-.485048203630868.293827277200762-.783539405864758.293827277200762-.475720353560973,0-.839506506285034-.223868401677464-1.091358458170362-.671605205026935-.018655700139789-.046639250349472-.037311400279577-.088614575663087-.055967100419366-.125925975944483-.018655700139789-.065294950487441-.03264747524463-.130589900976702-.041975325314525-.195884851465962-.009327850069894-.027983550209683-.013991775103932-.051303175383509-.013991775103932-.069958875523298-.009327850069894-.046639250349472-.013991775104842-.097942425732981-.013991775104842-.153909526152347v-.041975325313615c0-.158573451186385.046639250349472-.342798490066343.139917751047506-.552675116638056s.205212701535856-.417421290623679.335802602513468-.622633992161354c.130589900978521-.205212701535856.247188026850381-.380109890345921.349794377618309-.524691566426554.102606350768838-.144581676084272.158573451187294-.226200364195392.167901301257189-.244856064335181.307819052303785-.419753253141607.648285579853109-.806859031037675,1.021399582646154-1.161317333691841.643621654819071-.587654554399705,1.37585788530032-1.040055282786852,2.196708691444655-1.357202185161441.046639250349472-.018655700139789.097942425732981-.037311400279577.153909526153257-.055967100419366l.279835502095011-.083950650629049c.167901301257189-.055967100417547.340466527548415-.102606350767019.517695678875498-.139917751046596.018655700138879,0,.041975325313615-.004663925034038.069958875523298-.013991775103932.279835502095011-.055967100419366.559671004189113-.093278500697124.839506506284124-.111934200836913.578326704330721-.037311400281396,1.147325558588818,0,1.70699656278066.111934200836913,1.688340862637233.36378615272406,3.078190523043304,1.235940134250995,4.169548981212756,2.616461944588082.195884851466872.251851951885328.373114002793045.517695678874588.53168745397943.7975311809696.438408953282305.774211555795773.727572305447211,1.590398436905161.867490056494717,2.448560643329984.102606350767928.541015304050234.139917751047506,1.086694533136324.111934200837823,1.637037687254633.018655700139789.186557001396068.027983550209683.377777927827992.027983550209683.573662779295773v11.599181561832665c.690260905167634-.494376053700762,1.361866110195479-1.012071732577169,2.014815615081716-1.553087036627403,2.024143465154339-1.651029462358565,3.936352729469036-3.413993125555862,5.73662779294682-5.288890989591891.839506506285034-.867490056494717,1.655693387395331-1.748971888093365,2.448560643329984-2.644445494797765v-6.282307022029272c-.606310254537675.102606350767019-1.184636958868396.046639250347653-1.734980112988524-.167901301258098-.027983550208774-.009327850069894-.055967100417547-.023319625175645-.08395065062814-.041975325315434-.14924560111649-.08395065062723-.223868401675645-.205212701535856-.223868401675645-.363786152722241,0-.121262050906807.041975325315434-.221536439157717.125925975942664-.300823164752728.083950650629049-.079286725593192.181893076361121-.118930088388879.293827277200762-.118930088388879.055967100417547,0,.102606350767928.004663925034038.139917751046596.013991775103932.027983550208774.009327850069894.051303175383509.023319625173826.069958875523298.041975325313615.401097553003638.167901301258098.830178656216049.251851951885328,1.287243309636324.251851951885328.475720353562792,0,.923457156913173-.093278500697124,1.34321041005569-.279835502093192.354458302655075-.167901301258098.671605205027845-.387105777897887.951440707122856-.657613429923003l.167901301257189-.195884851467781v.013991775105751-.013991775105751c.419753253142517-.485048203629049.764883705725879-1.030727432716958,1.035391357750996-1.637037687252814v5.708644242735318c.317146902374589-.466392503492898.657613429923003-.923457156914083,1.021399582647064-1.371193960265373l.167901301256279-.195884851467781c.858162206423913-1.026063507679282,1.849246276343365-1.893553564175818,2.973252209758357-2.602470169482331,1.124005933414082-.708916605306513,2.362278030183916-1.151989483623765,3.7148162903095-1.329218634949939.904801456773384-.102606350768838,1.795611138442837-.027983550209683,2.672429045006538.223868401675645.242524101814524.06529495048926.475720353560973.144581676082453.699588755236618.237860176779577.093278500698034.037311400279577.18189307636203.074622800560974.26584372699017.111934200838732.401097553002728.158573451186385.769547630761735.349794377620128,1.105350233274294.573662779295773.270507652025117.14924560111649.517695678875498.340466527548415.741564080552052.573662779293954l.013991775104842.013991775103932c.158573451187294.177229151327992.303155127268838.373114002793955.433745028247358.587654554399705.111934200837823.177229151327992.205212701535856.36378615272406.279835502094102.559671004190022.046639250349472.102606350767019.083950650629049.205212701535856.111934200838732.307819052302875.055967100419366.186557001397887.102606350767928.382441852863849.139917751047506.587654554399705l.027983550210593.27983550209683v15.320993739695041c0,.027983550207864.004663925033128.051303175383509.013991775103932.069958875523298ZM77.794269582379457,21.4913665608874c-1.026063507680192.485048203630868-1.863238051448207,1.399177510475056-2.511523631300406,2.742387920528927-.648285579854019,1.343210410057509-.972428369780573,2.896297446683093-.972428369780573,4.65926110988039,0,1.734980112989433.317146902374589,3.269411449477047.951440707122856,4.603294009461024s1.450480685859475,2.252675791864021,2.448560643330893,2.756379695634678c.53168745397943-.01865570013797,1.058710982925732-.074622800557336,1.581070586835267-.167901301256279.158573451187294-.027983550207864.317146902374589-.060631025453404.475720353560973-.097942425732981,1.119342008381864-.270507652025117,2.196708691445565-.652949504887147,3.232100049196561-1.147325558587909.027983550210593-.009327850071713.055967100418457-.023319625175645.083950650629049-.041975325315434.009327850068985,0,.018655700138879-.004663925034038.027983550208774-.013991775105751.391769702933743-.186557001396068.774211555796683-.38244185286203,1.147325558589728-.587654554397886.027983550208774-.009327850069894.051303175383509-.018655700139789.069958875523298-.027983550209683-.046639250348562-.21454055160757-.069958875523298-.429081103211502-.069958875523298-.643621654819071v-8.185188436274984c-.662277354957951-1.147325558587909-1.564746849214316-2.063786827950025-2.707408482769097-2.749383808082712-1.142661633553871-.685596980130867-2.394925505428546-1.051715095372856-3.756791615624024-1.098354345722328ZM87.77040523206324,33.300424749291778c.289163352164906,1.054047057890784.830178656215139,1.916873189349644,1.623045912150701,2.588478394378399.792867255934652.671605205026935,1.706996562778841,1.007407807541313,2.742387920529836,1.007407807541313h-4.505351583728043c-.317146902373679,0-.620302029643426-.041975325313615-.909465381809241-.125925975942664-.568998854259007-.167901301256279-1.058710982924822-.457064653421185-1.469136385997444-.867490056494717-.214540551605751-.214540551605751-.396433627966871-.452400728385328-.545679229085181-.713580530342369,1.063374907960679-.568998854258098,2.084774490606833-1.198628733971418,3.064198747939372-1.888889639139961Z"/>
  <path class="cls-1" d="M166.739983923239379,31.775321262875877c.410425403073532.923457156912264,1.061042945440931,1.769959550749263,1.951852627111293,2.539507181510999.890809681668543.769547630759917,1.851578238864022,1.387517697887233,2.882305671577342,1.853910201378312,1.030727432716958.466392503491079,1.92386907690161.699588755236618,2.679424932559414.699588755236618h-16.664204149748912c.774211555792135,0,1.602058249489346-.14924560111649,2.483540081087995-.44773680335129s1.639369649776199-.764883705725879,2.273663454525376-1.399177510475056c.634293804745539-.634293804747358.998079957469599-1.450480685858565,1.091358458168543-2.448560643329984l-2.910289221788844-7.443624355724751h-15.558853916475528c-.848834356354018,2.471880268505629-1.69300478767218,4.939096611975401-2.532511293957214,7.401649030409317.074622800558245,1.007407807543132.429081103212411,1.830590576204486,1.063374907960679,2.469548305987701.634293804746449.638957729785034,1.396845547954399,1.110014158311969,2.287655229624761,1.413169285580807.890809681667633.303155127268838,1.723320300400701.454732690903256,2.497531856196474.454732690903256h-13.711939602647362c.774211555793954,0,1.665021237463407-.172565226292136,2.672429045005629-.517695678874588s1.935528889489433-.846502393837,2.78436324584527-1.504115823761822c.848834356354018-.657613429923003,1.45980853592755-1.452812648374675,1.832922538719686-2.385597655358652.055967100419366-.158573451186385.111934200837823-.321810827408626.167901301258098-.489712128664905,1.072702758028754-3.13415762346267,2.145405516058418-6.272979171961197,3.2181082740899-9.416464645493761.596982404467781-1.72565226291772,1.189300883901524-3.451304525837259,1.776955438301229-5.176956788756797l1.679013012570067-4.925104836867831c.391769702931924-1.147325558589728.783539405866577-2.299315042213493,1.17530910880032-3.455968450873115.382441852862939-1.110014158308331.764883705726788-2.224692241654338,1.147325558586999-3.344034250032564.06529495048926-.195884851467781.135253826014377-.3964336279696.209876626572623-.601646329505456.046639250349472-.139917751046596.093278500698034-.284499427129049.139917751047506-.433745028245539l.027983550208774-.055967100421185v-.055967100417547c0-.027983550211502-.004663925034947-.060631025455223-.013991775103932-.0979424257348,0-.046639250347653-.004663925035857-.093278500697124-.013991775104842-.139917751046596-.027983550209683-.195884851465962-.06529495048926-.387105777897887-.111934200838732-.573662779293954-.279835502094102-1.082030608100467-.818518843627317-1.963512439699116-1.616050024596916-2.644445494795946-.797531180971419-.680933055098649-1.718656375368482-1.021399582647064-2.763375583189372-1.021399582647064h7.443624355727479l12.326753867277148,31.551452861198413v.013991775105751h.013991775103932l.069958875525117.18189307636203ZM157.113642651175724,24.569557083930704h3.190124723880217l-8.073254235436252-20.665851829706298c-.065294950488351.195884851465962-.135253826012558.387105777896068-.209876626569894.573662779292135-.046639250351291.149245601118309-.0979424257348.293827277200762-.153909526152347.433745028249177-.055967100420276.177229151326173-.11659812587277.359122227688204-.181893076361121.545679229084271l-.27983550209683.839506506285034c-.429081103212411,1.231276209218777-.853498281389875,2.462552418433916-1.273251534531482,3.693828627652692l-1.25925975942846,3.693828627652692c-.578326704327992,1.697668712708037-1.156653408658713,3.390673500382036-1.734980112988524,5.079014363021997l-1.762963663197297,5.148973238545295c-.027983550208774.093278500698943-.060631025452494.191220926433743-.097942425732981.293827277200762-.037311400279577.121262050908626-.079286725594102.242524101815434-.125925975943574.363786152722241h11.962967714558545Z"/>
  <path class="cls-1" d="M184.08278916557083,35.609067641575166c.844170431319071.830178656215139,1.849246276342456,1.245267984322709,3.015227535071972,1.245267984322709h-12.424696293013767c1.165981258727697,0,2.168725141234972-.41275736559146,3.008231647520006-1.238272096770743s1.34321041005569-1.867901976484063,1.511111711313788-3.127161735910704V3.441976675767364c-.615638104611207.111934200838732-1.193964808939199.060631025453404-1.734980112989433-.153909526152347-.037311400279577-.018655700139789-.069958875523298-.03264747524554-.097942425732981-.041975325313615-.139917751048415-.083950650629049-.209876626571713-.205212701535856-.209876626571713-.36378615272406,0-.121262050908626.039643362795687-.221536439159536.118930088390698-.300823164752728.079286725593192-.079286725593192.179561113844102-.118930088390698.300823164752728-.118930088390698.046639250349472,0,.093278500697124.004663925035857.139917751046596.013991775105751l.055967100417547.027983550209683c.401097553003638.177229151326173.830178656215139.265843726991079,1.287243309638143.265843726991079.485048203630868,0,.932785006983977-.0979424257348,1.34321041005569-.293827277200762.438408953281396-.195884851465962.811522956075351-.471056428526936,1.119342008380045-.825514731179283v-.013991775103932h.013991775103932c.419753253143426-.494376053702581.760219780691841-1.040055282788671,1.021399582647064-1.637037687256452v32.265033391542602c.177229151326173,1.399177510473237.687928942650615,2.513855593817425,1.532099373969686,3.344034250032564Z"/>
  <path class="cls-1" d="M196.927238711724385,35.609067641575166c.84417043132089.830178656215139,1.849246276344275,1.245267984322709,3.015227535073791,1.245267984322709h-12.424696293013767c1.165981258727697,0,2.168725141236791-.41275736559146,3.008231647520006-1.238272096770743.839506506285034-.825514731179283,1.34321041005569-1.867901976484063,1.511111711311969-3.127161735910704V3.441976675767364c-.615638104607569.111934200838732-1.19396480893738.060631025453404-1.734980112987614-.153909526152347-.037311400277758-.018655700139789-.069958875523298-.03264747524554-.097942425732981-.041975325313615-.139917751046596-.083950650629049-.209876626569894-.205212701535856-.209876626569894-.36378615272406,0-.121262050908626.039643362795687-.221536439159536.118930088388879-.300823164752728s.179561113844102-.118930088390698.300823164752728-.118930088390698c.046639250347653,0,.093278500697124.004663925035857.139917751046596.013991775105751l.055967100419366.027983550209683c.401097553003638.177229151326173.830178656215139.265843726991079,1.287243309636324.265843726991079.485048203630868,0,.932785006982158-.0979424257348,1.343210410053871-.293827277200762.438408953283215-.195884851465962.811522956075351-.471056428526936,1.119342008381864-.825514731179283v-.013991775103932h.013991775103932c.419753253141607-.494376053702581.760219780690022-1.040055282788671,1.021399582647064-1.637037687256452v32.265033391542602c.177229151326173,1.399177510473237.687928942648796,2.513855593817425,1.532099373967867,3.344034250032564Z"/>
  <path class="cls-1" d="M248.15812325774732,17.783546158130775c.027983550211502.736900155516196.009327850071713,1.473800311032392-.055967100417547,2.210700466550406-.503703903770656,4.738547835473582-2.644445494797765,8.74019551542915-6.422224773079506,12.004943039870341-.774211555793954.652949504887147-1.595062361939199,1.240604059286852-2.462552418433916,1.762963663197297v.013991775105751c-2.742387920530746,1.800275063475056-5.85322591881777,2.840330346261908-9.332513994864712,3.120165848356919h-3.372017800242247c-.251851951885328.009327850069894-.475720353562792.013991775103932-.671605205028754.013991775103932h-11.571198011624801c1.221948359148882,0,2.271331492005629-.461728578455222,3.148149398566602-1.385185735369305.139917751050234-.14924560111649.265843726991079-.303155127268838.377777927829811-.461728578455222.046639250349472-.055967100419366.088614575663087-.111934200838732.125925975942664-.167901301258098.205212701535856-.307819052302875.377777927829811-.643621654817252.517695678876407-1.007407807541313.037311400277758-.08395065062723.069958875523298-.167901301256279.097942425732981-.251851951885328.121262050908626-.354458302652347.2005487765-.722908380412264.237860176781396-1.105350233276113.009327850068075-.065294950487441.01865570013797-.135253826012558.027983550207864-.209876626569894V4.575310459251341c-.009327850069894-.046639250349472-.013991775105751-.088614575663087-.013991775105751-.125925975942664-.055967100417547-.494376053700762-.172565226290317-.956104632157803-.34979437761649-1.385185735369305-.195884851467781-.513031753840551-.466392503492898-.974760332297592-.811522956075351-1.385185735371124-.009327850071713-.01865570013797-.023319625175645-.037311400277758-.041975325315434-.055967100417547-.130589900976702-.139917751046596-.26584372698926-.275171577059155-.405761478037675-.405761478037675-.830178656215139-.764883705725879-1.800275063476874-1.147325558589728-2.910289221787025-1.147325558589728h6.939920451954094c.018655700139789-.009327850068075.037311400279577-.013991775105751.055967100419366-.013991775105751h7.093829978106442c.755555855654165,0,1.511111711311969.013991775105751,2.266667566967953.041975325315434s1.506447786277931.102606350768838,2.252675791864021.223868401675645c2.994239872414255.531687453980339,5.689988542595529,1.716324412847825,8.087246010542003,3.553910876606096h.013991775103932c1.874897864036029,1.557750961661441,3.400001350453749,3.404665275487787,4.575310459251341,5.54074294147722,1.585734511871124,2.60247016948415,2.45322456836584,5.391497340364367,2.602470169482331,8.367081512638833ZM229.870873195847707,36.252689296392418c.14924560111649-.01865570013797.303155127268838-.032647475243721.461728578455222-.041975325311796,1.837586463758271-.345130452586091,3.535255176466308-1.035391357752815,5.093006138127748-2.07078271550381s2.919617071856919-2.345954292561146,4.085598330584617-3.931688804434089c1.165981258729516-1.585734511871124,2.075446640537848-3.376681725276285,2.728396145426814-5.37284164022094.652949504887147-1.996159914942837.979424257329811-4.1135818807943.979424257329811-6.352265897554389,0-.214540551605751-.004663925034038-.429081103213321-.013991775103932-.643621654817252v-.069958875525117c-.111934200836913-2.919617071856919-.741564080550233-5.585050229308763-1.888889639139961-7.996299472360988s-2.674761007523557-4.409741120511171-4.582306346805126-5.995475632382295c-1.907545339277931-1.585734511872943-4.0646106679269-2.597806244448293-6.471195985943268-3.036215197729689-.354458302654166-.037311400279577-.713580530342369-.06529495048926-1.07736668306643-.083950650629049-.373114002792136-.027983550209683-.750891930620128-.041975325315434-1.133333783483977-.041975325315434-.177229151326173-.009327850068075-.354458302652347-.013991775103932-.531687453980339-.013991775103932h-.727572305446301c-.158573451186385.009327850069894-.321810827408626.013991775103932-.489712128666724.013991775103932h-1.706996562777931c-.009327850069894.009327850071713-.023319625173826.018655700139789-.041975325313615.027983550209683s-.037311400279577.023319625175645-.055967100419366.041975325315434c-.736900155516196.44773680335129-1.319890784880045,1.072702758030573-1.748971888093365,1.87489786403421-.298491202232981.568998854261736-.489712128666724,1.198628733975056-.573662779295773,1.88888963914178,0,.037311400279577-.004663925034038.079286725593192-.013991775102113.125925975942664v27.899599558861155c.009327850068075.018655700139789.013991775102113.037311400277758.013991775102113.055967100417547.167901301258098,1.315226859847826.699588755238437,2.38792961787658,1.595062361942837,3.218108274091719.186557001396068.167901301258098.38244185286203.321810827408626.587654554397886.46172857845886.046639250349472.027983550207864.0979424257348.055967100417547.153909526152347.08395065062723.009327850069894.009327850069894.023319625175645.018655700139789.041975325315434.027983550207864l.013991775103932.013991775105751h3.413993125557681c.634293804749177,0,1.263923684462497-.027983550209683,1.88888963914178-.083950650629049Z"/>
  <path class="cls-1" d="M270.698872951491467,22.83457697094309c.009327850069894.046639250347653.013991775105751.093278500698943.013991775105751.139917751048415v.139917751046596h-15.181075988648445c-.018655700139789.139917751046596-.032647475243721.279835502095011-.041975325313615.419753253141607-.027983550211502.466392503492898-.041975325313615.932785006983977-.041975325313615,1.399177510476875v.909465381806513c.009327850068075.055967100419366.013991775102113.111934200838732.013991775102113.167901301256279.009327850071713.270507652025117.023319625175645.531687453982158.041975325315434.783539405867486l.027983550209683.223868401675645c0,.074622800557336.004663925035857.14924560111649.013991775103932.223868401675645.009327850069894.046639250349472.013991775105751.093278500697124.013991775105751.139917751046596.214540551605751,1.669685162500173.631961842231249,3.155145286120387,1.252263871874675,4.456380370860643s1.385185735369305,2.331962517459033,2.294651117177636,3.092182298149055,1.895885526693746,1.140329671035943,2.959260434652606,1.140329671035943c1.100686308240256,0,2.117421965853282-.401097553,3.05020697283544-1.203292659007275.932785006983977-.802195106005456,1.702332637743893-1.893553564173999,2.308642892283387-3.274075374509266.027983550209683-.055967100419366.051303175383509-.107270275802875.069958875523298-.153909526152347.102606350767019-.2984912022348.184225038878139-.550343154120128.244856064333362-.755555855657803.060631025453404-.205212701535856.095610463215053-.326474752442664.104938313284947-.363786152722241v-.013991775103932c.009327850069894-.037311400279577.023319625173826-.074622800559155.041975325313615-.111934200838732.037311400279577-.102606350768838.088614575663087-.186557001397887.153909526152347-.251851951885328,0-.009327850069894.004663925035857-.013991775103932.013991775105751-.013991775103932v-.013991775105751c.261179801955223-.270507652025117.582990629363849-.345130452584272.965432482225879-.223868401675645.205212701537675.083950650629049.356790265172094.221536439159536.454732690905075.412757365589641s.123594013424736.394101665449853.076954763077083.608642217057422c-.009327850069894.037311400277758-.018655700139789.069958875523298-.027983550209683.097942425732981-.027983550209683.074622800557336-.06529495048926.144581676080634-.111934200838732.209876626569894-.158573451186385.317146902374589-.326474752444483.62962987971332-.503703903770656.937448932018015-.08395065062723.139917751048415-.172565226292136.275171577060974-.26584372698926.405761478037675v.013991775105751c-.979424257333449,1.473800311032392-2.215364391586263,2.616461944588082-3.707820402758443,3.427984900661613-.410425403071713.223868401675645-.834842581249177.41508932810757-1.273251534530573.573662779295773l-.27983550209683.08395065062723c-.01865570013797.009327850069894-.041975325311796.018655700141608-.069958875523298.027983550209683h-.013991775103932l-.013991775105751.013991775105751c-.018655700139789,0-.041975325313615.004663925034038-.069958875523298.013991775103932-.009327850068075.009327850069894-.018655700139789.013991775105751-.027983550207864.013991775105751h-.027983550209683l-.013991775105751.013991775103932-.111934200836913.027983550209683c-.457064653423004.121262050906807-.900137531740256.200548776501819-1.329218634951758.237860176779577l-.279835502095011.027983550209683c-.485048203630868.027983550209683-.92812108194812.027983550209683-1.329218634949939,0l-.139917751048415-.027983550209683c-.690260905166724-.055967100417547-1.357202185159622-.186557001396068-2.000823839976874-.391769702931924h-.013991775105751c-1.772291513267191-.587654554399705-3.288067149615017-1.623045912150701-4.547326909043477-3.106174073252987l-.013991775103932-.013991775105751c-1.744307963057508-2.052127015360384-2.7190682953551-4.598630084425167-2.924280996890957-7.639509207188894-.009327850069894-.233196251747358-.013991775103932-.471056428526936-.013991775103932-.713580530344188v-.167901301256279c0-.401097553001819.023319625173826-.802195106005456.069958875523298-1.203292659009094v-.111934200836913c.345130452582453-2.854322121367659,1.375857885299411-5.235255851690454,3.092182298147236-7.142801190972023,1.716324412849644-1.90754533927975,3.819754603595356-2.991907909898146,6.310290572240774-3.253087711853368.242524101815434-.01865570013797.489712128664905-.027983550209683.741564080550233-.027983550209683.410425403073532,0,.811522956075351.027983550209683,1.203292659009094.083950650629049,2.210700466550406.335802602514377,4.104254030724405,1.34321041005569,5.680660692527454,3.022223422625757,1.576406661801229,1.679013012568248,2.611798019550406,3.76378750317599,3.106174073251168,6.254323471819589v.013991775105751c.009327850071713.046639250349472.018655700139789.097942425732981.027983550211502.153909526152347,0,.01865570013797.004663925034038.046639250349472.013991775103932.08395065062723.009327850069894.046639250349472.013991775103932.093278500698943.013991775103932.139917751048415v.041975325313615ZM255.587755838368139,22.554741468848079h10.787658605757315c-.494376053700762-3.796434978419711-1.627709837184739-6.436216548181619-3.400001350453749-7.919344709285724-.177229151324354-.130589900976702-.354458302652347-.247188026849471-.53168745397852-.349794377618309-.317146902374589-.177229151327992-.638957729783215-.293827277200762-.965432482227698-.349794377618309-.167901301256279-.027983550209683-.335802602514377-.041975325313615-.503703903770656-.041975325313615-.606310254539494,0-1.184636958869305.186557001396068-1.734980112989433.559671004190022-.923457156912264.624965954677464-1.706996562777931,1.648697499840637-2.350618217595184,3.071194635489519-.643621654819071,1.422497135650701-1.07736668306643,3.099178185701021-1.301235084742075,5.030043150156416Z"/>
  <path class="cls-1" d="M291.336741230989901,28.389311687527879c.550343154120128,1.156653408657803.638957729783215,2.341290367527108.265843726991079,3.553910876604277-.391769702933743,1.091358458170362-1.040055282785033,2.000823839978693-1.944856739559327,2.728396145424995s-1.893553564175818,1.273251534532392-2.966256322206391,1.637037687254633c-2.201372616480512.736900155518015-4.444720558274639.876817906564611-6.730043825382381.419753253141607-.97942425733163-.186557001396068-1.926201039419539-.501371941250909-2.840330346261908-.944444819568162-.914129306844188-.443072878319072-1.720988337885501-1.023731545164992-2.42057709312212-1.741976000541399-.690260905166724-.718244455378226-1.156653408659622-1.557750961661441-1.399177510475056-2.518519518853282-.111934200836913-.522359603910445-.139917751046596-1.044719207822709-.08395065062723-1.567078811733154.046639250349472-.345130452582453.125925975942664-.68093305509683.237860176779577-1.007407807539494.074622800559155-.298491202236619.205212701535856-.573662779295773.391769702931924-.825514731181102.195884851467781-.21454055160757.436076990765287-.3474624151022.720576417896154-.398765590485709s.557339041672094-.002331962517928.818518843627317.146913638600381c.205212701535856.130589900978521.359122227688204.303155127268838.461728578455222.517695678876407.111934200838732.242524101813615.11659812587277.489712128664905.013991775105751.741564080550233-.317146902374589,1.04471920782089-.279835502095011,2.075446640537848.111934200838732,3.092182298149055.391769702931924.923457156914083.986420144883596,1.697668712708037,1.783951325853195,2.322634667387319.797531180971419.624965954677464,1.667353199984063,1.086694533134505,2.609466057036116,1.385185735369305.541015304050234.177229151327992,1.091358458170362.307819052304694,1.651029462360384.391769702931924.326474752442664.06529495048926.662277354957041.093278500700762,1.007407807539494.083950650629049h.209876626573532c.279835502093192,0,.545679229084271-.023319625173826.7975311809696-.069958875523298.233196251745539-.055967100417547.452400728387147-.158573451186385.657613429923003-.307819052304694s.38244185286203-.312482977338732.531687453980339-.489712128664905c.391769702931924-.419753253143426.708916605306513-.8954736067044.951440707121947-1.427161060684739.447736803353109-1.026063507681101.694924830202581-2.094102340675818.741564080552052-3.204116498985968.06529495048926-1.137997708519833-.167901301258098-2.210700466550406-.699588755236618-3.218108274091719-.522359603910445-.970096407261735-1.25925975942846-1.730316187953576-2.210700466550406-2.280659342071885-.904801456772475-.438408953283215-1.856242163894422-.713580530342369-2.854322121367659-.825514731181102-.177229151327992-.027983550209683-.349794377618309-.051303175383509-.517695678876407-.069958875523298-.195884851464143-.018655700139789-.387105777897887-.041975325315434-.573662779293954-.069958875523298-.68093305509683-.102606350768838-1.34321041005569-.275171577060974-1.986832064872942-.517695678876407-1.02606350768292-.382441852863849-1.94019281452529-.942112857053871-2.742387920530746-1.679013012570067-.783539405863849-.718244455376407-1.305899009776113-1.590398436905161-1.567078811731335-2.616461944588082-.242524101815434-1.110014158308331-.102606350768838-2.17338906626901.419753253141607-3.190124723880217.475720353560973-.886145756632686,1.135665746001905-1.60905413704495,1.979836177322795-2.168725141234972.844170431319071-.559671004190022,1.74197600053958-.970096407261735,2.693416707663346-1.231276209218777,2.061454865432097-.559671004190022,4.1135818807943-.527023528944483,6.156381046088427.0979424257348,1.063374907960679.326474752442664,2.031139352704486.853498281387147,2.90329333423324,1.581070586835267s1.471468348516282,1.637037687254633,1.797943100958946,2.728396145424995c.083950650629049.307819052304694.135253826012558.620302029643426.153909526152347.937448932018015.046639250349472.307819052304694-.004663925034038.5969824044696-.153909526152347.867490056494717-.158573451186385.251851951885328-.375445965310064.424417178175645-.650617542369218.517695678876407-.275171577060974.093278500697124-.552675116638056.088614575661268-.832510618733068-.013991775105751-.261179801955223-.102606350768838-.466392503491079-.279835502095011-.615638104609388-.531687453980339-.102606350768838-.214540551605751-.139917751046596-.438408953281396-.111934200836913-.671605205026935.009327850068075-.503703903772475-.060631025455223-.993416032437381-.209876626571713-1.469136386000173-.31714690237277-.951440707121947-.858162206423003-1.753635813127403-1.623045912148882-2.40658531801455-.391769702933743-.345130452584272-.820850806147064-.634293804749177-1.287243309636324-.867490056494717-.242524101817253-.121262050908626-.494376053702581-.228532326711502-.755555855657803-.321810827408626-.027983550209683-.009327850069894-.051303175383509-.018655700139789-.069958875523298-.027983550209683-.242524101815434-.102606350768838-.485048203630868-.172565226292136-.727572305446301-.209876626571713-.335802602514377-.027983550209683-.676269130062792-.041975325313615-1.021399582647064-.041975325313615h-.027983550209683c-.130589900978521-.009327850069894-.265843726991079.004663925034038-.405761478037675.041975325313615-.093278500698943.027983550209683-.186557001396068.060631025453404-.279835502095011.097942425732981-.391769702933743.186557001396068-.732236230482158.433745028247358-1.021399582645245.741564080552052-.690260905168543.783539405863849-1.14266163355569,1.693004787673999-1.357202185161441,2.728396145424995-.233196251745539,1.04471920782089-.26584372698926,2.094102340677637-.097942425732981,3.148149398566602.074622800557336.503703903772475.202880739019747.995747994955309.384773815381777,1.47613227355032.181893076360211.48038427859683.440740915799324.907133419292222.776543518313701,1.280247422084358.391769702931924.410425403073532.858162206423003.708916605308332,1.399177510473237.8954736067044.44773680335129.158573451186385.909465381808332.270507652025117,1.385185735369305.335802602514377.223868401675645.037311400279577.452400728387147.060631025453404.685596980132686.069958875523298.680933055098649.046639250349472,1.352538260125584.135253826012558,2.014815615084444.265843726991079,1.240604059286852.251851951885328,2.413581205566516.713580530342369,3.518931438840809,1.385185735367486,1.105350233276113.671605205028754,1.95651655214715,1.576406661803048,2.55349895661675,2.714404370322882Z"/>
  <path class="cls-1" d="M300.27748552292087,32.474910018112496c.158573451188204,1.259259759426641.659945392440932,2.303978967247531,1.504115823761822,3.13415762346267.844170431319071.830178656215139,1.844582351308418,1.245267984322709,3.001235759966221,1.245267984322709h-12.410704517908016c1.156653408659622,0,2.157065328648969-.41275736559146,3.00123575996804-1.238272096770743.84417043132089-.825514731179283,1.345542372573618-1.867901976484063,1.504115823760003-3.127161735910704v-16.230459121503372c-.606310254537675.111934200838732-1.184636958867486.060631025455223-1.734980112987614-.153909526152347-.027983550211502-.018655700139789-.055967100419366-.032647475243721-.083950650629049-.041975325313615-.149245601118309-.083950650629049-.223868401675645-.205212701535856-.223868401675645-.36378615272406,0-.121262050906807.041975325313615-.221536439157717.125925975942664-.300823164752728.08395065062723-.079286725591373.18189307636203-.118930088390698.293827277200762-.118930088390698.055967100417547,0,.102606350767019.004663925037676.139917751046596.013991775105751.027983550209683.009327850069894.051303175383509.018655700139789.069958875523298.027983550209683.401097553003638.177229151326173.830178656215139.265843726991079,1.287243309636324.265843726991079.475720353560973,0,.923457156914083-.097942425732981,1.34321041005569-.293827277200762.36378615272406-.158573451186385.680933055098649-.377777927827992.951440707123766-.657613429923003.055967100417547-.065294950487441.111934200836913-.125925975942664.167901301256279-.181893076360211v.013991775103932-.013991775103932c.419753253141607-.494376053702581.764883705725879-1.040055282786852,1.035391357750996-1.637037687256452v19.448567395596911l.027983550207864.209876626569894ZM298.570488960142939,11.039510557642643c-.568998854259917,0-1.051715095372856-.19821681398389-1.448148723340637-.594650441949852s-.594650441951671-.874485944048502-.594650441951671-1.434156948236705c0-.559671004190022.19821681398389-1.040055282786852.594650441951671-1.441152835788671s.87914986908072-.601646329503637,1.448148723340637-.601646329503637c.559671004190022,0,1.037723320268924.2005487765,1.434156948236705.601646329503637s.594650441951671.881481831598649.594650441951671,1.441152835788671c0,.559671004188203-.19821681398389,1.037723320267105-.594650441951671,1.434156948236705s-.874485944046683.594650441949852-1.434156948236705.594650441949852Z"/>
  <path class="cls-1" d="M332.024823235587064,38.729233489932085c-.093278500695305.792867255935562-.326474752444483,1.560082924181188-.699588755236618,2.301647004731421s-.834842581247358,1.429493023202667-1.385185735369305,2.063786827950025c-.802195106003637,1.352538260125584-1.944856739559327,2.345954292562965-3.427984900659794,2.980248097310323-2.098766265713493.848834356354928-4.174212906251341.783539405865668-6.226339921613544-.195884851465962-.578326704329811-.2984912022348-1.142661633552052-.620302029643426-1.693004787673999-.965432482227698-.53168745397852-.345130452584272-1.082030608100467-.662277354957041-1.651029462358565-.951440707121947-1.249931909358565-.615638104609388-2.560494844168716-1.026063507681101-3.931688804434089-1.231276209216958-.018655700139789-.009327850071713-.037311400279577-.013991775105751-.055967100419366-.013991775105751h-.041975325315434c-1.249931909354927.037311400279577-2.35528214263104.286831389646977-3.316050699821062.748559968104018-.96076855719366.461728578455222-1.674349087537848,1.06104294544275-2.140741591028927,1.797943100958946v.013991775105751c-.009327850068075.027983550209683-.023319625172007.051303175383509-.041975325311796.069958875523298-.251851951885328.373114002792136-.587654554401524.559671004188203-1.007407807544951.559671004188203-.335802602512558,0-.620302029641607-.118930088388879-.853498281387147-.356790265170275s-.349794377620128-.520027641390698-.349794377620128-.846502393837v-.139917751046596c.009327850071713-.037311400279577.013991775103932-.069958875523298.013991775103932-.097942425732981,0-.009327850069894.004663925035857-.013991775105751.01399177510757-.013991775105751v-.013991775103932c0-.027983550209683.004663925032219-.055967100419366.013991775103932-.08395065062723.009327850068075-.009327850071713.013991775103932-.018655700141608.013991775103932-.027983550211502l.027983550207864-.08395065062723c.009327850071713-.009327850069894.01399177510757-.018655700139789.01399177510757-.027983550211502.009327850068075-.027983550207864.018655700139789-.051303175383509.027983550207864-.069958875523298l.027983550211502-.027983550207864c.009327850068075-.027983550209683.023319625175645-.051303175385328.041975325311796-.069958875525117.009327850071713-.018655700139789.018655700139789-.032647475243721.027983550211502-.041975325313615.009327850068075-.018655700139789.018655700139789-.032647475243721.027983550207864-.041975325313615.018655700139789-.027983550209683.041975325315434-.055967100419366.069958875523298-.08395065062723v-.013991775105751c.018655700139789-.009327850071713.037311400279577-.023319625175645.055967100419366-.041975325315434l.013991775103932-.013991775105751c.046639250351291-.046639250347653.102606350770657-.088614575663087.167901301258098-.125925975940845.391769702931924-.326474752444483.816186881111207-.601646329505456,1.273251534530573-.825514731181102,1.137997708523471-.53168745397852,2.341290367530746-.81385491859146,3.609877977025462-.846502393837,1.268587609498354-.032647475243721,2.50452774374935.104938313284947,3.707820402756624.41275736559146,1.259259759426641.307819052304694,2.45322456836584.788203330899705,3.58189442681396,1.441152835788671.307819052304694.177229151326173.610974179573532.359122227688204.909465381810151.545679229084271.811522956075351.541015304050234,1.665021237466135.988752107401524,2.560494844168716,1.34321041005569,1.016735657609388.354458302652347,2.049795052844274.457064653421185,3.099178185701021.307819052302875s2.02181150263641-.513031753838732,2.917285109338991-1.091358458168543c.923457156914083-.615638104607569,1.632373762218776-1.394513585439199,2.126749815921357-2.33662644249307.494376053698943-.942112857052052.746228005584271-1.963512439699116.755555855655984-3.064198747939372.009327850068075-1.137997708518014-.244856064335181-2.224692241652519-.762551743209769-3.260083599405334s-1.280247422084358-1.837586463756452-2.28765522962567-2.406585318016369c-.830178656215139-.429081103211502-1.662689274948207-.582990629363849-2.497531856195565-.461728578455222-.834842581250996.121262050906807-1.637037687254633.405761478037675-2.40658531801455.853498281388966-.769547630763554.44773680335129-1.47613227355032.942112857052052-2.11975392837121,1.483128161102286-.158573451186385.121262050908626-.312482977340551.24718802685129-.461728578455222.377777927827992-.867490056494717.74622800558609-1.788615250890871,1.420165173130954-2.763375583188463,2.02181150263641s-2.045131127812056.925789119430192-3.211112386536115.972428369779664c-1.082030608100467,0-2.08710645312749-.275171577059155-3.015227535073791-.825514731179283-.928121081949939-.550343154120128-1.686008900123852-1.273251534532392-2.273663454521738-2.168725141236791-.699588755236618-1.100686308240256-1.06104294544275-2.289987192143599-1.084362570618396-3.567902651708209s.216872514123679-2.509191668785206.720576417894335-3.693828627654511c.419753253143426-.914129306842369.946776782089728-1.75829973816144,1.581070586835267-2.532511293957214-.410425403071713-.345130452584272-.848834356354928-.797531180971419-1.315226859846007-1.357202185159622-.438408953279577-.531687453982158-.816186881107569-1.144993596073618-1.133333783483977-1.83991842627438-.31714690237277-.694924830202581-.485048203630868-1.462140498446388-.503703903770656-2.301647004731421.027983550211502-1.49245601117218.541015304050234-2.828670533675904,1.539095261523471-4.008643567509353s2.266667566967953-2.115090003333535,3.805762828487786-2.805350908500259c1.539095261523471-.690260905168543,3.078190523046942-1.035391357750996,4.617285784566775-1.035391357750996,1.548423111595184,0,2.984912022344361.251851951883509,4.309466732262081.755555855654165.139917751046596-1.072702758028754.522359603910445-2.033471315222414,1.147325558587909-2.882305671575523.624965954681102-.848834356354928,1.424829098166811-1.52510348641772,2.399589430464403-2.028807390188376s2.040467202776199-.755555855657803,3.197120611435821-.755555855657803c.671605205028754,0,1.319890784881864.088614575664906,1.944856739559327.265843726991079.102606350767019.027983550209683.205212701534037.060631025455223.307819052304694.097942425732981.307819052304694.177229151326173.461728578455222.433745028249177.461728578455222.769547630759917,0,.242524101817253-.08395065062723.450068765871038-.251851951885328.622633992161354s-.373114002792136.258847839439113-.615638104609388.258847839439113c-.046639250347653,0-.093278500695305-.004663925035857-.139917751046596-.013991775103932-.065294950487441-.009327850069894-.130589900978521-.027983550209683-.195884851465962-.055967100421185-.541015304050234-.149245601114671-1.100686308240256-.223868401673826-1.679013012570067-.223868401673826-1.371193960265373,0-2.595474281930365.380109890345921-3.672840964994975,1.140329671035943s-1.858574126414169,1.755967775645331-2.343622330045037,2.987243984864108c1.539095261523471.690260905166724,2.768039508220681,1.630041799700848,3.686832740098907,2.819342683604191.918793231881864,1.189300883905162,1.39218162292309,2.525515406407067,1.420165173130954,4.008643567509353v.321810827410445c-.018655700139789.475720353560973-.088614575663087.937448932018015-.209876626569894,1.385185735369305-.513031753838732,1.79094721340698-1.630041799700848,3.260083599405334-3.351030137586349,4.407409157993243-1.720988337881863,1.147325558589728-3.775447315761994,1.758299738163259-6.163376933640393,1.832922538724233h-.377777927827992c-.419753253139788,0-.825514731179283-.023319625175645-1.217284434111207-.069958875526936-.51303175384237-.065294950485622-.993416032437381-.149245601114671-1.441152835788671-.251851951883509l-.111934200838732-.027983550209683c-1.296571159706218-.36378615272406-2.206036541512731-.704252680272475-2.728396145426814-1.021399582645245l-.391769702931924-.223868401677464-.125925975942664-.083950650629049-.013991775103932-.013991775102113-.335802602512558-.251851951887147-.083950650630868-.055967100419366c-.223868401673826.270507652025117-.438408953279577.550343154120128-.643621654817252.839506506285034-.065294950487441.093278500698943-.130589900978521.191220926431924-.195884851465962.293827277198943h.013991775103932c-.307819052304694.51303175384237-.461728578455222,1.175309108799411-.461728578455222,1.986832064874761,0,.848834356354928.167901301258098,1.534431336485795.503703903770656,2.05679094039624v.013991775105751c.485048203630868.68093305509683,1.11234612082626,1.268587609496535,1.881893751586176,1.762963663197297.769547630763554.494376053700762,1.667353199984063.652949504888966,2.693416707665165.475720353560973.494376053698943-.102606350767019,1.047051170338818-.307819052302875,1.65802534991235-.615638104607569s1.270919572012644-.657613429923003,1.979836177320976-1.049383132856747c1.147325558587909-.662277354957041,2.364609992702754-1.275583497048501,3.651853302337258-1.83991842627438,1.287243309638143-.56433492922406,2.583814469344361-.869822019010826,3.889713479118655-.916461269360298,1.305899009777931-.046639250349472,2.560494844168716.373114002793955,3.76378750317599,1.259259759426641.568998854261736.429081103213321,1.05871098292846.932785006983977,1.469136386000173,1.511111711313788,1.333882559985796,1.865570013966135,1.888889639139961,3.941016654502164,1.665021237462497,6.226339921609906ZM316.731813046101706,13.502062976078378c-.942112857053871.018655700139789-1.793279175923089.356790265172094-2.553498956614931,1.014403695093279s-1.366530035229516,1.543759186559328-1.818930763616663,2.658437269901697-.678601092578901,2.352950180114931-.678601092578901,3.714816290310409c0,1.520439561383682.284499427129049,2.891633521647236.853498281387147,4.113581880796119.354458302655985.764883705725879.788203330903343,1.408505360543131,1.301235084742075,1.930864964453576.839506506286853.876817906564611,1.804938988512731,1.324554709915901,2.896297446681274,1.34321041005569h.251851951885328c.904801456774294-.074622800559155,1.718656375367573-.445404840833362,2.441564755779837-1.112346120828079s1.301235084742075-1.548423111591546,1.734980112989433-2.644445494795946c.43374502824372-1.096022383204399.650617542367399-2.306310929765459.650617542367399-3.63086563968136,0-1.361866110195479-.228532326709683-2.600138206966221-.685596980129048-3.714816290310409-.457064653423004-1.114678083342369-1.068038832996535-2.005487765012731-1.832922538724233-2.672429045005629s-1.613718062078988-1.000411919989347-2.546503069061146-1.000411919989347h-.01399177510757Z"/>
  <path class="cls-1" d="M354.831416656320471,32.474910018112496c.158573451190023,1.259259759426641.657613429924822,2.303978967247531,1.497119936211675,3.13415762346267.839506506283215.830178656215139,1.842250388788671,1.245267984322709,3.008231647516368,1.245267984322709h-12.410704517908016c1.165981258727697,0,2.168725141236791-.41508932810757,3.008231647520006-1.245267984322709.839506506286853-.830178656215139,1.338546485021652-1.874897864036029,1.497119936208037-3.13415762346267.009327850071713-.055967100419366.013991775103932-.111934200838732.013991775103932-.167901301258098v-13.795890253277321c-.018655700139789-.652949504887147-.177229151326173-1.240604059286852-.475720353559154-1.762963663197297l-.083950650630868-.139917751048415c-.027983550207864-.046639250349472-.060631025451585-.093278500698943-.097942425731162-.139917751046596-.027983550207864-.046639250349472-.060631025455223-.088614575664906-.097942425731162-.125925975942664-.083950650630868-.093278500698943-.167901301258098-.18189307636203-.251851951888966-.265843726991079l-.055967100415728-.055967100419366-.083950650630868-.08395065062723-.027983550207864-.027983550209683c-.289163352164906-.261179801955223-.5969824044696-.485048203630868-.923457156914083-.671605205026935-.018655700139789-.009327850071713-.097942425731162-.051303175385328-.237860176781396-.125925975944483-.139917751046596-.074622800557336-.340466527548415-.158573451186385-.601646329501818-.251851951883509-.298491202236619-.093278500698943-.5969824044696-.158573451188204-.895473606706219-.195884851467781-.065294950487441-.009327850069894-.135253826010739-.013991775105751-.209876626569894-.013991775105751-.44773680335129-.027983550207864-.886145756634505.004663925035857-1.315226859846007.0979424257348-.643621654817252.139917751046596-1.263923684462497.382441852863849-1.860906088932097.727572305446301-.494376053698943.289163352164906-.956104632157803.62962987971332-1.385185735369305,1.021399582645245-.195884851465962.177229151327992-.382441852860211.359122227690023-.559671004190022.54567922908609-.671605205028754.764883705727698-1.273251534530573,1.585734511871124-1.804938988512731,2.462552418435735l-.027983550207864.041975325313615v12.718523570214529l.027983550207864.209876626569894c.158573451190023,1.259259759426641.659945392442751,2.303978967247531,1.504115823761822,3.13415762346267s1.849246276342456,1.245267984322709,3.015227535070153,1.245267984322709h-12.424696293011948c1.156653408659622,0,2.15706532864715-.41275736559146,3.001235759969859-1.238272096770743.844170431319071-.825514731179283,1.345542372571799-1.863238051448207,1.504115823758184-3.113169960804953v-16.244450896609123c-.606310254537675.102606350767019-1.184636958867486.046639250349472-1.734980112989433-.167901301258098l-.08395065062723-.027983550207864c-.149245601118309-.093278500698943-.223868401677464-.219204476641607-.223868401677464-.377777927829811,0-.111934200836913.041975325315434-.209876626569894.125925975942664-.293827277198943.083950650630868-.08395065062723.18189307636203-.125925975940845.293827277200762-.125925975940845.055967100419366,0,.102606350767019.009327850068075.139917751046596.027983550207864.027983550211502.009327850069894.051303175387147.018655700139789.069958875523298.027983550209683.401097553003638.177229151326173.830178656215139.265843726991079,1.287243309638143.265843726991079.475720353559154,0,.923457156914083-.097942425732981,1.343210410057509-.293827277200762.354458302652347-.158573451186385.671605205025116-.377777927827992.951440707121947-.657613429923003l.167901301258098-.195884851465962v.027983550209683-.013991775103932c.419753253139788-.494376053702581.76488370572406-1.040055282786852,1.035391357749177-1.637037687256452v5.694652467631386c.31714690237277-.466392503491079.657613429924822-.918793231878226,1.021399582645245-1.357202185159622l.167901301258098-.195884851465962c.858162206423003-1.02606350768292,1.849246276342456-1.895885526693746,2.973252209758357-2.609466057036116,1.124005933412263-.713580530342369,2.362278030184825-1.154321446141694,3.714816290310409-1.322222747397973.904801456774294-.102606350768838,1.795611138441018-.03264747524554,2.67242904500381.209876626571713.242524101817253.074622800557336.475720353562792.158573451186385.699588755236618.251851951885328.093278500698943.037311400279577.18189307636203.074622800557336.265843726992898.111934200836913.401097553003638.158573451188204.753223893138056.33113867748034,1.056379020406894.517695678876407s.566666891743807.396433627967781.790535293417634.62962987971332l.01399177510757.013991775105751c.158573451186385.167901301256279.303155127268838.359122227686385.43374502824372.573662779293954.111934200838732.177229151326173.205212701537675.368450077756279.27983550209683.573662779293954.046639250347653.093278500697124.08395065062723.191220926431924.111934200838732.293827277198943.055967100419366.195884851467781.102606350767019.396433627967781.139917751046596.601646329503637.009327850068075.083950650629049.018655700139789.172565226293955.027983550211502.265843726991079v15.334985514800792c0,.018655700139789.004663925032219.041975325313615.013991775100294.069958875523298Z"/>
</svg>