<?xml version="1.0" encoding="UTF-8"?>
<svg id="border" xmlns="http://www.w3.org/2000/svg" viewBox="0 0 425.1968503937 425.1968503937">
  <defs>
    <style>
      .cls-1 {
        fill: #231f20;
      }

      .cls-1, .cls-2, .cls-3, .cls-4, .cls-5 {
        stroke-width: 0px;
      }

      .cls-2 {
        fill: #f5b26e;
      }

      .cls-3 {
        fill: #252329;
      }

      .cls-4 {
        fill: #51c3c3;
      }

      .cls-5 {
        fill: #fff;
      }
    </style>
  </defs>
  <path class="cls-2" d="M330.966392257,171.8580886632c-11.434387207-15.0038452148-26.0578613281-26.3961791992-41.0338745117-37.467956543-2.1151123047-1.563659668-4.0880737305-1.7036743164-6.6091308594-1.110534668-50.5508422852,11.8923339844-97.5961914062,32.010559082-140.9149169922,60.5932006836-17.9459838867,11.8411865234-14.2064819336,5.7222900391-18.0095825195,28.0710449219-2.3006591797,13.5198364258-2.013671875,13.5689086914,9.1387939453,21.5530395508.0956420898.0684204102.2370605469.0729370117.3578491211.1084594727l.0001831055-.0003662109c.4904785156-1.4593505859,1.8300170898-1.5805664062,3.0210571289-1.8085327148,3.2984619141-.6313476562,6.5941772461-1.3684082031,9.9271240234-1.700012207,2.7890625-.2775268555,3.1421508789-1.2821044922,1.8316650391-3.5310668945-3.8750610352-6.6499633789-1.6510620117-14.6184082031,5.0136108398-18.5180664062,2.4233398437-1.4179077148,4.9006958008-2.6634521484,7.4235229492-3.7673339844,3.6597900391-1.6013183594,7.4182128906-2.8957519531,11.2538452148-3.9628295898,4.4297485352-1.232421875,8.9617919922-2.1639404297,13.5692138672-2.8992919922,3.5807495117-.5715332031,7.1896362305-1.1849975586,10.9224243164-1.6169433594-2.5930175781-5.8549194336-1.0219726562-9.0382080078,4.8336181641-10.6051635742,3.4557495117-.9247436523,3.782043457-1.7111206055,1.4479370117-4.3618774414-2.09765625-2.3822631836-3.5143432617-5.110168457-4.4644775391-8.0590820312-2.8755493164-8.9243774414-.0366210938-11.9176025391,9.3016357422-9.9356079102.3655395508.0775756836.7267456055.1755371094,1.0900268555.2639770508.8120727539,2.5342407227,2.9414672852,1.1663208008,4.491027832,1.5160522461l-.0001831055-.0001831055c.0000610352.0000610352.0001831055.0000610352.0002441406.0001220703,1.4620361328.5403442383,2.9240722656,1.0806884766,4.3861083984,1.62109375.8868408203,1.9925537109,2.7232055664,2.4716796875,4.6004638672,2.8856201172,3.044921875,1.9610595703,5.3686523438,4.6906738281,7.8350219727,7.2791748047,3.0079345703,3.1569824219,4.0514526367,7.0503540039,3.9739990234,11.197265625-.0419921875,2.2428588867-.7067871094,4.5586547852-3.0891113281,5.7391967773-.3302001953-.0345458984-.5589599609.1045532227-.4556884766.2862548828.2455444336.4322509766-.3068237305.0473632812.0819091797.3477783203.0720825195.0556640625.1488037109.1064453125.2218017578.1611328125,2.3013916016,1.7229003906,5.0272827148,2.9977416992,6.3535766602,5.7369995117.1143188477.2360839844.2379150391.4623413086.3298950195.7218017578.0000610352.0001831055.0001831055.0003662109.0002441406.0005493164,2.2785644531.048828125,4.6335449219-.5783691406,6.5372314453,1.501159668,3.2194213867,3.516784668,6.9731445312,6.5408935547,9.6885986328,10.5243530273.2437133789,1.9818115234,1.2756347656,3.4546508789,2.9246826172,4.529296875.0000610352.0001220703.0000610352.0001831055.0001220703.0003051758.8765869141,1.1483764648.7730712891,2.9666748047,2.4426269531,3.573059082.09765625.0568847656.1953125.1013793945.2929077148.1395263672.7536621094.2945556641,1.5037231445.0640258789,2.2166748047-.2165527344,7.3281860352-2.8838500977,14.9315185547-4.6368408203,22.7221069336-5.6867675781,1.2243652344-.1649780273,2.6116333008-.2114868164,3.471862793-1.27734375.1325683594-.1642456055.2545776367-.3489990234.3594970703-.5660400391.0000610352-.0001831055.0001831055-.0002441406.0002441406-.0004272461-2.8636474609-6.2707519531-6.7186279297-12.015625-9.6187133789-18.2852172852-1.0930175781-2.3629150391-1.4024047852-4.4618530273-.6716918945-6.7496337891,3.0357666016-9.5047607422,6.28125-18.9183959961,11.1964111328-27.6828613281,1.5657348633-2.7919311523,3.4000244141-4.1490478516,6.5783691406-3.1504516602.0175170898,4.0928344727.0347900391,8.1856689453.0527954102,12.278503418.0065917969,1.4966430664.4329223633,3.3203735352,2.1890869141,2.213684082,2.7451171875-1.7299194336,5.5448608398-.7617797852,8.30078125-1.0811157227l.0000610352.0000610352c1.2037353516.7935791016,2.5678100586,1.423034668,3.0368652344,2.9680786133-.2882080078,2.9000244141.8071289062,5.9453735352-1.1486206055,8.6887817383-.5901489258.8278808594.1622924805,2.100402832,1.1094360352,1.508972168,1.4914550781-.9312744141,3.8409423828-.4555664062,4.5456542969-2.6619873047h.0000610352c2.8804931641-1.7004394531,5.6771240234-3.5612182617,8.8795166016-4.6466064453,2.4767456055.0839233398,4.9534912109.1678466797,7.4305419922.2514648438.0002441406.0001220703.0004272461.0002441406.0006713867.0003662109,1.3004760742,2.4473876953,1.7250976562,5.1051025391,1.8773193359,7.8320922852v.0001220703c4.997253418-7.8746948242,4.4828491211-15.2269287109-1.244934082-22.7427368164Z"/>
  <path class="cls-5" d="M330.5202154599,186.3837979368c-2.4770507812-.0836181641-4.9537963867-.1675415039-7.4305419922-.2514648438-3.2023925781,1.0853881836-5.9990234375,2.9461669922-8.8795166016,4.6466064453h-.0000610352c-.7047119141,2.2064208984-3.0541992188,1.7307128906-4.5456542969,2.6619873047-.9471435547.5914306641-1.6995849609-.6810913086-1.1094360352-1.508972168,1.9557495117-2.7434082031.8604125977-5.7887573242,1.1486206055-8.6887817383-.4690551758-1.5450439453-1.8331298828-2.1744995117-3.0368652344-2.9680786133l-.0000610352-.0000610352c-2.7559204102.3193359375-5.5556640625-.6488037109-8.30078125,1.0811157227-1.7561645508,1.1066894531-2.1824951172-.7170410156-2.1890869141-2.213684082-.0180053711-4.0928344727-.0352783203-8.1856689453-.0527954102-12.278503418-3.1783447266-.9985961914-5.0126342773.3585205078-6.5783691406,3.1504516602-4.9151611328,8.764465332-8.1606445312,18.1781005859-11.1964111328,27.6828613281-.7307128906,2.2877807617-.4213256836,4.38671875.6716918945,6.7496337891,2.9000854492,6.2695922852,6.755065918,12.014465332,9.6187133789,18.2852172852-.0000610352.0001831055-.0001831055.0002441406-.0002441406.0004272461.0003662109-.0000610352.000793457-.0001220703.001159668-.0001831055,3.770324707.4110107422,6.4813842773,2.5599365234,8.4713134766,5.5633544922,6.9650878906,10.512878418,5.4990844727,26.7235107422-3.1475830078,35.880065918-.4283447266.4536132812-.8233642578,1.1625366211-1.3383789062,1.2752685547-4.2147827148.9223022461-5.1340942383,4.5569458008-6.6751098633,7.7638549805-2.3735961914,4.9395751953-5.9596557617,8.8969726562-10.3860473633,12.0932006836-2.0861816406,1.5065307617-4.2963867188,1.8377685547-5.8864135742-.520690918-1.427734375-2.1175537109-.5822753906-4.0463867187,1.3881835938-5.505065918,2.7772827148-2.055847168,5.3569946289-4.2941894531,7.1674804688-8.04296875-.0749511719-.1058349609-.1512451172-.2045898438-.2301635742-.2893066406-1.6265869141.6831665039-2.850769043,1.1954956055-4.0514526367,1.7033081055-21.3148193359,9.0142211914-43.561340332,1.8304443359-53.6301269531-17.2470092773-1.3123779297-2.4865722656-2.1042480469-4.8135375977.9483032227-6.3290405273,2.8128051758-1.396484375,4.3302612305.5872192383,5.6029663086,2.7973632812,10.3894042969,18.0423583984,29.1904907227,21.6514892578,48.0679931641,12.2451171875,3.755859375-1.8715209961,2.2272338867-5.4384155273,2.874206543-8.2718505859.5743408203-2.5152587891-1.9417114258-2.5156860352-3.3497314453-3.2389526367-5.0376586914-2.5875854492-9.6561279297-5.6743164062-13.5330200195-9.8826904297-5.3403320312-5.7969360352-5.4080200195-5.7345581055-1.356628418-12.3865966797-1.6695556641-.6063842773-1.5660400391-2.4246826172-2.4426269531-3.573059082-.0000610352-.0001220703-.0000610352-.0001831055-.0001220703-.0003051758-1.6490478516-1.0746459961-2.6809692383-2.5474853516-2.9246826172-4.529296875-2.7154541016-3.9834594727-6.4691772461-7.0075683594-9.6885986328-10.5243530273-1.9036865234-2.0795288086-4.2586669922-1.452331543-6.5372314453-1.501159668-.0000610352-.0001831055-.0001831055-.0003662109-.0002441406-.0005493164-.0000610352.0003662109-.0000610352.0007324219-.0001220703.0010986328-1.7803955078,2.2327270508-3.7913208008,2.2899169922-6.2744750977,1.0404052734-4.8153686523-2.4231567383-9.9456787109-3.9549560547-15.3251953125-4.5070800781-2.5798339844-.2647705078-4.4655761719-1.2516479492-4.0806884766-4.1468505859.3820800781-2.8740844727,2.5230102539-3.3148803711,5.0349731445-3.0610351562,4.8674926758.4919433594,9.5277099609,1.7917480469,14.1140136719,3.4194946289,2.3823242187-1.1805419922,3.0471191406-3.4963378906,3.0891113281-5.7391967773.0774536133-4.1469116211-.9660644531-8.0402832031-3.9739990234-11.197265625-2.4663696289-2.5885009766-4.7901000977-5.3181152344-7.8350219727-7.2791748047-1.8772583008-.4139404297-3.7136230469-.8930664062-4.6004638672-2.8856201172-1.4620361328-.5404052734-2.9240722656-1.0807495117-4.3861083984-1.62109375-.0000610352-.0000610352-.0001831055-.0000610352-.0002441406-.0001220703l.0001831055.0001831055c-1.5495605469-.3497314453-3.6789550781,1.0181884766-4.491027832-1.5160522461-.36328125-.0884399414-.7244873047-.1864013672-1.0900268555-.2639770508-9.3382568359-1.9819946289-12.1771850586,1.0112304688-9.3016357422,9.9356079102.9501342773,2.9489135742,2.3668212891,5.6768188477,4.4644775391,8.0590820312,2.3341064453,2.6507568359,2.0078125,3.4371337891-1.4479370117,4.3618774414-5.8555908203,1.5669555664-7.4266357422,4.7502441406-4.8336181641,10.6051635742-3.7327880859.4319458008-7.3416748047,1.0454101562-10.9224243164,1.6169433594-4.607421875.7353515625-9.139465332,1.6668701172-13.5692138672,2.8992919922l-11.2538452148,3.9628295898c-2.5228271484,1.1038818359-5.0001831055,2.3494262695-7.4235229492,3.7673339844-6.6646728516,3.8996582031-8.888671875,11.8681030273-5.0136108398,18.5180664062,1.3104858398,2.2489624023.9573974609,3.2535400391-1.8316650391,3.5310668945-3.3329467773.3316040039-6.6286621094,1.0686645508-9.9271240234,1.700012207-1.1910400391.2279663086-2.5305786133.3491821289-3.0210571289,1.8085327148,5.4362182617,4.4381713867,11.3168334961,8.5537719727,17.8741455078,10.6510620117,10.7870483398,3.4500732422,18.0194091797,10.5510253906,23.9460449219,19.5857543945.2049560547.3123779297.4766235352.5815429688.6763305664.8967285156,1.3173217773,2.0791015625,3.2263183594,3.3106689453,5.4470825195,4.3493652344,24.2913208008,11.3615112305,49.9064941406,16.4806518555,76.6349487305,16.4154052734,9.6497192383-.0235595703,17.7857666016-3.5946044922,24.1918334961-10.8079223633,10.1774902344-11.4600219726,18.6636352539-24.0349731445,24.7649536133-38.1579589843,2.1720581055-5.0277099609,4.1834716797-10.0931396484,6.9810180664-14.8811645508,6.92578125-11.8532714844,13.2027587891-24.0628051758,17.7992553711-37.0555419922-.1522216797-2.7269897461-.5768432617-5.3847045898-1.8773193359-7.8320922852-.0002441406-.0001220703-.0004272461-.0002441406-.0006713867-.0003662109ZM298.5667242489,192.4699795774c-2.7665405273,3.5435180664-5.4150390625,7.140625-7.451171875,11.1680908203-.6094360352,1.2054443359-1.7592163086,1.713684082-3.0927734375,1.7877807617-2.4530029297.0122680664-4.3173828125-2.2050170898-3.4519042969-4.5684204102,1.8645629883-5.091796875,4.7529907227-9.6124267578,8.7419433594-13.3197631836,1.3735961914-1.276550293,3.0993041992-1.6258544922,4.6994628906-.0989379883,1.5977172852,1.5245361328,1.8695678711,3.3468017578.5544433594,5.03125Z"/>
  <g>
    <path class="cls-5" d="M238.6680983361,95.3936005687c5.3505249023-18.3270874023,6.1370849609-35.8750610352-.6944580078-53.4020996094-1.181640625-3.0317382812-2.4844360352-3.4307250977-5.1690063477-2.1216430664-12.0026855469,5.8530273438-17.7963867187,15.8227539062-19.2943725586,28.7111206055-.1383666992,1.190246582.1776733398,2.153503418.9410400391,3.0946044922,7.0169067383,8.6506347656,15.432434082,15.8483886719,24.216796875,23.7180175781Z"/>
    <path class="cls-5" d="M175.0515211876,43.3364716624c6.6416625977.8469238281,12.9680175781,2.9511108398,20.1187133789,5.4813232422-4.3977661133-9.2315063477-9.3829345703-17.000793457-15.154296875-24.292175293-.9371948242-1.1840209961-1.5809326172-.9019165039-2.0596923828.3912963867-1.9478759766,5.2612304688-3.4428710938,10.6389770508-4.1934814453,16.2091064453-.1431884766,1.0626220703-.0924072266,2.034362793,1.2887573242,2.2104492188Z"/>
    <path class="cls-5" d="M160.4221266564,53.666000471c.8836669922-1.2311401367.4911499023-2.0328369141-.7001342773-2.7153930664-3.4889526367-1.9990234375-7.1512451172-3.5277099609-11.1268920898-4.2554321289-1.3349609375-.2443237305-2.2976074219.2010498047-2.4762573242,1.5607299805-.9946289062,7.5693969727-.7264404297,15.0612182617,1.4554443359,23.3884887695,4.617980957-6.4669189453,8.7219238281-12.2305297852,12.8478393555-17.9783935547Z"/>
    <path class="cls-5" d="M136.1659621056,87.8393403148c1.0422973633-1.6231689453-.4163208008-2.3004760742-1.5286254883-2.7185058594-2.3159790039-.8702392578-4.3598632812-3.0724487305-7.1716308594-1.7302856445-.2672729492.1275634766-.2829589844.9155273438-.3055419922,1.4019775391-.21875,4.7131958008-.2164916992,9.4161987305.828125,15.3304443359,3.1254882812-4.6762695312,5.7107543945-8.4418945312,8.1776733398-12.2836303711Z"/>
  </g>
  <path class="cls-4" d="M156.7252423547,264.6393335601c-5.625-1.966796875-10.7764282227-5.2686157227-16.3767700195-7.330078125-6.2215576172-2.290222168-13.0227661133-1.5125732422-19.5276489258-2.6965332031-6.6757202148-1.2150268555-11.1626586914-4.2102050781-13.9925537109-10.3656005859-2.4735717773-5.3803710938-4.2786865234-10.9841308594-6.2841186523-16.5179443359-2.1217041016-5.8544311523-1.2415771484-11.2476806641,3.9338989258-15.2351074219,18.5918579102-14.3239746094,37.7595825195-27.8046264648,58.2336425781-39.3509521484,17.2572631836-9.7321777344,35.026184082-18.3583984375,53.4268798828-25.7559814453,12.1079101562-4.8676757812,24.4085083008-9.110534668,36.8216552734-13.0678710938,9.7678222656-3.1140136719,19.6831054687-5.6773071289,29.6657104492-8.0382080078,8.4502563477-1.9984741211,17.0030517578-3.4413452148,25.4722290039-5.3110961914,3.1298217773-.6909790039,4.6627807617-.0007324219,4.7020263672,3.767578125.0634155273,6.0917358398,1.4291992188,12.112121582,1.3391113281,18.2682495117-.0355224609,2.4260253906,2.2912597656,4.5586547852,4.4202880859,4.5581054688,2.3782958984-.0006103516,1.2166137695-2.7662963867,1.3427734375-4.3120117188.6640014648-8.1371459961-.8932495117-16.1572265625-1.4214477539-24.2339477539-.0915527344-1.3998413086-.7103271484-2.118347168-1.9044799805-2.8825073242-7.8287353516-5.0093383789-15.8415527344-9.7210083008-23.7084350586-14.6576538086-13.3047485352-8.3490600586-27.2044677734-15.6157226562-40.8508300781-23.3435058594-1.9224853516-1.088684082-2.9575195312-.8201904297-3.3271484375,1.514465332-.6591186523,4.162902832-1.209777832,8.3648071289-2.2366943359,12.4418945312-1.2309570312,4.8876342773-2.255065918,9.8643798828-4.3688354492,14.493347168-.7575073242,1.6588134766-1.5910644531,1.9326171875-3.0040893555.4165649414-2.3354492188-2.5056762695-4.8094482422-4.8978881836-7.3689575195-7.1762695312-8.3921508789-7.4703979492-16.7292480469-14.9890136719-23.9359130859-23.6565551758-1.7979125977-2.1623535156-2.8973999023-4.244934082-2.0443115234-7.4083862305.7423706055-2.7528076172,1.4378662109-5.958984375-2.6810913086-7.7182617188-8.9524536133-3.8237304688-17.6861572266-8.1246337891-27.328125-10.1331176758-3.0685424805-.6391601562-5.1566772461-.2498779297-6.9892578125,2.5098876953-4.6195678711,6.9567260742-9.2709350586,13.9091186523-14.2681884766,20.5951538086-13.7059326172,18.3375244141-26.3726196289,37.3170776367-36.1956176758,58.0482788086-5.2692871094,11.1207885742-10.3999633789,22.3233032227-15.0941772461,33.6948852539-3.2755737305,7.9348144531-5.7518310547,16.2030639648-8.4985351562,24.3516235352-2.8654174805,8.5009155273-5.6418457031,17.0319213867-8.4154663086,25.5633544922-.3515014648,1.0811157227-.1937255859,2.2130737305.23828125,3.2994384766,5.282043457,13.2818603516,12.110168457,25.7805175781,19.4379882812,38.0098876953.7436523438,1.2410888672,1.4917602539,2.846862793,3.3376464844,3.2979125976,5.7492675781,1.4049072266,11.4322509766,3.0988769531,17.2102661133,4.3641357422,10.2518920898,2.244934082,20.4243774414,4.7856445312,30.5997924805,7.3417358398,2.6312866211.6610107422,5.3238525391,2.1173095703,8.8265380859,1.439453125-2.5620727539-3.8065185547-4.61328125-7.1853637695-9.1860351562-8.784362793Z"/>
  <path class="cls-4" d="M117.0489728234,223.0074365874c1.1137695312-3.7451171875,1.0774536133-7.8323364258,1.6742553711-12.8040161133-4.3910522461,3.4144287109-8.0119018555,6.0877075195-11.4436645508,8.9849853516-1.0323486328.8715209961-1.7562866211,2.1505126953-1.0895996094,3.9085693359,1.9512939453,5.1460571289,3.5252075195,10.4371948242,5.5333251953,15.5592651367,3.116027832,7.9481201172,5.1751098633,9.4110717773,13.6505737305,9.1686401367.0751342773-1.3123168945-.8613891602-1.8549804688-1.7294311523-2.5832519531-2.2587280273-1.8949584961-4.3712768555-3.9630737305-6.6026611328-5.8921508789-.979675293-.8469848633-2.0006713867-1.8383178711-1.6594238281-3.0778198242,1.1952514648-4.3413696289.3594970703-8.8688354492,1.6666259766-13.2642211914Z"/>
  <path class="cls-4" d="M297.289451339,130.4984033843c2.8219604492,2.8706054688,5.704284668,4.9221191406,8.9249267578,6.7857055664.9446411133-9.6763305664.7462768555-10.6312255859-8.9249267578-6.7857055664Z"/>
  <g>
    <path class="cls-3" d="M102.3398451485,269.6679670095c-.0020751953-.0023803711-.00390625-.0048217773-.0059814453-.0072021484-.0144042969-.0009765625-.0285644531-.0026855469-.04296875-.0036621094l.0489501953.0108642578Z"/>
    <path class="cls-3" d="M339.8620619454,167.6885968923c-2.9639282227-4.6500854492-7.3604125977-8.1793823242-9.7668457031-13.1966552734-1.6280517578-.5324707031-.903503418-1.76171875-.8458862305-2.8090820312.7139282227-12.9837646484-.0639648438-25.8864746094-2.0415039062-38.7315673828-.2014770508-1.30859375-.953125-1.7707519531-1.9598388672-2.405090332-8.7714233398-5.5269165039-17.3901977539-11.3007202148-26.2381591797-16.700012207-8.9978027344-5.4907836914-18.2038574219-10.6404418945-27.3187255859-15.9393920898-1.319519043-1.4019775391-2.8787841797-2.4348144531-4.705871582-3.0550537109-4.4719848633-2.4017944336-9.7257080078-3.3967895508-13.3099365234-7.3958740234-.9499511719-2.4654541016-.7055664062-5.1442260742-1.3686523437-7.6608886719-.0545654297-.9400024414-.1091308594-1.8799438477-.1636962891-2.8199462891-.3568725586-.3135375977-1.0048828125-.6072387695-1.0276489258-.943359375-.4219970703-6.2259521484-3.2610473633-11.7661743164-4.8908081055-17.6448974609-2.1240234375-7.6612548828-7.2365112305-10.3854370117-13.0915527344-8.8941040039-10.7706298828,2.7434082031-18.283996582,9.5727539062-24.2706298828,18.4590454102-.7487182617,1.1114501953-1.3153686523,2.2271118164-2.7487182617,2.8634643555-5.1526489258-12.4267578125-12.0895996094-23.5814819336-20.3602905273-33.916809082-3.4342651367-4.2916259766-12.2395629883-6.0540161133-15.9953613281.3951416016-2.2641601562,3.8878173828-3.5031738281,8.0669555664-4.5789794922,12.3492431641-1.2005615234,1.3605957031-.12109375,3.362121582-1.3272094727,4.7211303711-.0550537109.4403076172-.1101074219.8806152344-.1651611328,1.3208618164-.7572631836,1.4730224609-.3168334961,3.2827758789-1.3180541992,4.6871948242-.1953735352.6999511719-.2914428711,1.6152954102-1.3788452148,1.0332641602-5.6998901367-3.0506591797-11.745300293-4.5495605469-18.2272949219-4.145324707-2.5166015625.8600463867-4.5247802734,2.4055175781-6.1048583984,4.5280761719-2.0942993164,2.7565917969-1.8989257812,6.1990356445-2.7906494141,9.3157958984-.0015869141,3.7819824219-.0031738281,7.5640258789-.0047607422,11.3460083008.8103637695,2.5394897461.7311401367,5.2301635742,1.3266601562,7.8061523438.0985717773.975769043.1971435547,1.9514770508.2956542969,2.9272460938-.3487548828,1.0329589844-1.2443847656.7669677734-1.99609375.8407592773-1.3850708008-.217590332-2.9740600586.5838012695-4.1236572266-.8211669922-.5679931641-.9353027344-1.5614624023-.5130004883-2.3524169922-.737121582-.6361083984-.1968383789-1.2722167969-.393737793-1.9083251953-.5905761719-1.4304199219,1.1040649414-3.4370117188.1292724609-4.8377685547,1.3405151367l-.0699462891.0361328125c-2.1204833984.7946166992-4.1251220703,1.6817626953-3.6420898438,4.5568237305-1.3518066406,7.2042236328-.5024414062,14.4774169922-.6815795898,21.7182617188.1382446289.1506958008.135925293.2993164062-.0070800781.4457397461.5703735352,1.5567626953.6009521484,3.2007446289.7870483398,4.8206176758,1.5712280273,2.5051269531,2.1262817383,5.0389404297.2229614258,7.6419677734-1.3357543945,1.1658935547-1.7887573242,2.8746337891-2.6607055664,4.3256835938-1.1354370117,1.8416748047-2.3583984375,3.6386108398-2.9454956055,5.760559082-2.2515258789,5.0350952148-4.887512207,9.8864135742-7.244934082,14.8725585938-1.7077636719,3.6121826172-2.3599853516,7.65234375-4.6853637695,10.9688720703-1.2436523438,5.3643188477-3.7149047852,10.3132324219-5.7379150391,15.3602294922-4.6498413086,11.6001586914-8.7227172852,23.366027832-12.5920410156,35.2364501953-1.3103637695,4.0200195312-1.7854003906,8.395690918-4.2419433594,12.0269165039-.1603393555,3.4202880859-2.1572875977,6.4750366211-.5671386719,10.3137207031,3.8980102539,9.4099731445,8.04296875,18.6870117188,12.9943237305,27.5722045898,3.9904174805,7.1608276367,7.6594848633,14.5563964844,13.1395874023,20.7884521484,4.2152099609.2814941406,8.2816162109,1.1759033203,12.1323852539,2.9566650391.385559082.4444580078.806640625.5324707031,1.2769165039.1272583008,5.728515625.8556518555,11.278503418,2.3953857422,16.7166748047,4.3623657227,1.3919677734.0608520508,2.7842407227.1216430664,4.1764526367.1824951172,1.3732910156,1.0878295898,3.2792358398.2767944336,4.66796875,1.309387207,6.6209106445,1.590637207,13.2551269531,3.1285400391,19.8576049805,4.7922363281,3.8251953125.9638671875,7.9055786133,1.5335693359,11.3478393555,3.3001708984,26.5812988281,13.6422729492,54.9656982422,19.3871459961,84.5969848633,19.6399536133,14.0353393555.1197509766,25.8018188477-5.1504516602,34.7381591797-16.1952514648,3.4850463867-4.3073120117,6.8918457031-8.6778564453,10.3352661133-13.0198364258,1.8778686523-3.0379638672,3.7346801758-6.0883178711,5.6351928711-9.1112670898,7.0888671875-11.275390625,10.9057006836-24.2072753906,17.9586791992-35.4928588867,3.2462158203-5.1943969727,5.1398925781-11.1154174805,8.7900390625-16.0806884766.2239990234-.822265625.3558959961-1.6835327148.6861572266-2.4605712891,3.2058105469-7.5430908203,6.8115844727-14.9403686523,9.5772094727-22.6400146484,3.1190185547-8.6836547852-.2770385742-16.2868652344-4.9653320312-23.6422119141ZM212.5407728829,69.4418927907c1.4979858398-12.8883666992,7.2916870117-22.8580932617,19.2943725586-28.7111206055,2.6845703125-1.3090820312,3.9873657227-.9100952148,5.1690063477,2.1216430664,6.8315429688,17.5270385742,6.0449829102,35.075012207.6944580078,53.4020996094-8.784362793-7.8696289062-17.1998901367-15.0673828125-24.216796875-23.7180175781-.7633666992-.9411010742-1.0794067383-1.9043579102-.9410400391-3.0946044922ZM172.7932753243,41.986936736c.7506103516-5.5701293945,2.2456054688-10.9478759766,4.1934814453-16.2091064453.4787597656-1.2932128906,1.1224975586-1.5753173828,2.0596923828-.3912963867,5.7713623047,7.2913818359,10.7565307617,15.0606689453,15.154296875,24.292175293-7.1506958008-2.5302124023-13.4770507812-4.6343994141-20.1187133789-5.4813232422-1.3811645508-.1760864258-1.4319458008-1.1478271484-1.2887573242-2.2104492188ZM145.1493544258,49.1168195485c.1786499023-1.3596801758,1.1412963867-1.8050537109,2.4762573242-1.5607299805,3.9756469727.727722168,7.6379394531,2.2564086914,11.1268920898,4.2554321289,1.1912841797.6825561523,1.5838012695,1.4842529297.7001342773,2.7153930664-4.1259155273,5.7478637695-8.2298583984,11.5114746094-12.8478393555,17.9783935547-2.1818847656-8.3272705078-2.4500732422-15.8190917969-1.4554443359-23.3884887695ZM126.1906752266,85.6534406423c.0225830078-.4864501953.038269043-1.2744140625.3055419922-1.4019775391,2.8117675781-1.3421630859,4.8556518555.8600463867,7.1716308594,1.7302856445,1.1123046875.4180297852,2.5709228516,1.0953369141,1.5286254883,2.7185058594-2.4669189453,3.8417358398-5.0521850586,7.6073608398-8.1776733398,12.2836303711-1.0446166992-5.9142456055-1.046875-10.6172485352-.828125-15.3304443359ZM156.7912611641,272.3755475759c-10.1754150391-2.5560913086-20.3479003906-5.0968017578-30.5997924805-7.3417358398-5.7780151367-1.2652587891-11.4609985352-2.9592285156-17.2102661133-4.3641357422-1.8458862305-.4510498047-2.5939941406-2.0568237305-3.3376464844-3.2979125977-7.3278198242-12.2293701172-14.1559448242-24.7280273437-19.4379882812-38.0098876953-.4320068359-1.0863647461-.5897827148-2.2183227539-.23828125-3.2994384766,2.7736206055-8.5314331055,5.5500488281-17.0624389648,8.4154663086-25.5633544922,2.7467041016-8.1485595703,5.2229614258-16.416809082,8.4985351562-24.3516235352,4.6942138672-11.3715820312,9.8248901367-22.5740966797,15.0941772461-33.6948852539,9.8229980469-20.7312011719,22.4896850586-39.7107543945,36.1956176758-58.0482788086,4.997253418-6.6860351562,9.6486206055-13.6384277344,14.2681884766-20.5951538086,1.8325805664-2.759765625,3.920715332-3.1490478516,6.9892578125-2.5098876953,9.6419677734,2.0084838867,18.3756713867,6.309387207,27.328125,10.1331176758,4.1189575195,1.7592773438,3.4234619141,4.9654541016,2.6810913086,7.7182617188-.8530883789,3.1634521484.2463989258,5.2460327148,2.0443115234,7.4083862305,7.2066650391,8.6675415039,15.543762207,16.1861572266,23.9359130859,23.6565551758,2.5595092773,2.2783813477,5.0335083008,4.6705932617,7.3689575195,7.1762695312,1.4130249023,1.5160522461,2.2465820312,1.2422485352,3.0040893555-.4165649414,2.1137695312-4.6289672852,3.137878418-9.6057128906,4.3688354492-14.493347168,1.0269165039-4.0770874023,1.5775756836-8.2789916992,2.2366943359-12.4418945312.3696289062-2.3346557617,1.4046630859-2.6031494141,3.3271484375-1.514465332,13.6463623047,7.7277832031,27.546081543,14.9944458008,40.8508300781,23.3435058594,7.8668823242,4.9366455078,15.879699707,9.6483154297,23.7084350586,14.6576538086,1.194152832.7641601562,1.8129272461,1.4826660156,1.9044799805,2.8825073242.5281982422,8.0767211914,2.0854492188,16.0968017578,1.4214477539,24.2339477539-.126159668,1.545715332,1.0355224609,4.3114013672-1.3427734375,4.3120117188-2.1290283203.0005493164-4.4558105469-2.1320800781-4.4202880859-4.5581054688.0900878906-6.1561279297-1.2756958008-12.1765136719-1.3391113281-18.2682495117-.0392456055-3.7683105469-1.5722045898-4.4585571289-4.7020263672-3.767578125-8.4691772461,1.8697509766-17.0219726562,3.3126220703-25.4722290039,5.3110961914-9.9826049805,2.3609008789-19.8978881836,4.9241943359-29.6657104492,8.0382080078-12.4131469727,3.9573364258-24.7137451172,8.2001953125-36.8216552734,13.0678710938-18.4006958008,7.3975830078-36.1696166992,16.0238037109-53.4268798828,25.7559814453-20.4740600586,11.5463256836-39.641784668,25.0269775391-58.2336425781,39.3509521484-5.1754760742,3.9874267578-6.0556030273,9.3806762695-3.9338989258,15.2351074219,2.0054321289,5.5338134766,3.810546875,11.1375732422,6.2841186523,16.5179443359,2.8298950195,6.1553955078,7.3168334961,9.1505737305,13.9925537109,10.3656005859,6.5048828125,1.1839599609,13.3060913086.4063110352,19.5276489258,2.6965332031,5.6003417969,2.0614624023,10.7517700195,5.36328125,16.3767700195,7.330078125,4.5727539062,1.5989990234,6.6239624023,4.9778442383,9.1860351562,8.784362793-3.5026855469.6778564453-6.1952514648-.7784423828-8.8265380859-1.439453125ZM305.920899836,137.6754132985c-3.2206420898-1.8635864258-6.1029663086-3.9151000977-8.9249267578-6.7857055664,9.6712036133-3.8455200195,9.8695678711-2.890625,8.9249267578,6.7857055664ZM116.7482924141,239.7407819509c2.2313842773,1.9290771484,4.3439331055,3.9971923828,6.6026611328,5.8921508789.8680419922.7282714844,1.8045654297,1.2709350586,1.7294311523,2.5832519531-8.4754638672.2424316406-10.5345458984-1.2205200195-13.6505737305-9.1686401367-2.0081176758-5.1220703125-3.58203125-10.4132080078-5.5333251953-15.5592651367-.6666870117-1.7580566406.0572509766-3.0370483398,1.0895996094-3.9085693359,3.4317626953-2.897277832,7.0526123047-5.5705566406,11.4436645508-8.9849853516-.5968017578,4.9716796875-.5604858398,9.0588989258-1.6742553711,12.8040161133-1.3071289062,4.3953857422-.4713745117,8.9228515625-1.6666259766,13.2642211914-.3412475586,1.2395019531.6797485352,2.2308349609,1.6594238281,3.0778198242ZM331.9178480782,195.1946393728v-.0001220703c-4.596496582,12.9927368164-10.8734741211,25.2022705078-17.7992553711,37.0555419922-2.7975463867,4.7880249023-4.8089599609,9.8534545898-6.9810180664,14.8811645508-6.1013183594,14.1229858398-14.5874633789,26.6979370117-24.7649536133,38.1579589843-6.4060668945,7.2133178711-14.5421142578,10.784362793-24.1918334961,10.8079223633-26.7284545898.065246582-52.3436279297-5.053894043-76.6349487305-16.4154052734-2.2207641602-1.0386962891-4.1297607422-2.2702636719-5.4470825195-4.3493652344-.1997070312-.3151855469-.4713745117-.5843505859-.6763305664-.8967285156-5.9266357422-9.0347290039-13.158996582-16.1356811523-23.9460449219-19.5857543945-6.5573120117-2.0972900391-12.4379272461-6.212890625-17.8741455078-10.6510620117l-.0001831055.0003662109c-.1207885742-.0355224609-.2622070312-.0400390625-.3578491211-.1084594727-11.1524658203-7.9841308594-11.439453125-8.033203125-9.1387939453-21.5530395508,3.8031005859-22.3487548828.0635986328-16.2298583984,18.0095825195-28.0710449219,43.3187255859-28.5826416016,90.364074707-48.7008666992,140.9149169922-60.5932006836,2.5210571289-.5931396484,4.4940185547-.453125,6.6091308594,1.110534668,14.9760131836,11.0717773438,29.5994873047,22.4641113281,41.0338745117,37.467956543,5.7277832031,7.5158081055,6.2421875,14.8680419922,1.244934082,22.7427368164Z"/>
    <path class="cls-3" d="M288.1602186836,222.7323697141c-.0003662109.0000610352-.000793457.0001220703-.001159668.0001831055-.1049194336.2170410156-.2269287109.4017944336-.3594970703.5660400391-.8602294922,1.0658569336-2.2474975586,1.1123657227-3.471862793,1.27734375-7.7905883789,1.0499267578-15.3939208984,2.8029174805-22.7221069336,5.6867675781-.7129516602.2805786133-1.4630126953.5111083984-2.2166748047.2165527344-.0975952148-.0381469727-.1952514648-.0826416016-.2929077148-.1395263672-4.0513916016,6.6520385742-3.9837036133,6.5896606445,1.356628418,12.3865966797,3.8768920898,4.2083740234,8.4953613281,7.2951049805,13.5330200195,9.8826904297,1.4080200195.7232666016,3.9240722656.7236938477,3.3497314453,3.2389526367-.6469726562,2.8334350586.881652832,6.4003295898-2.874206543,8.2718505859-18.8775024414,9.4063720703-37.6785888672,5.7972412109-48.0679931641-12.2451171875-1.2727050781-2.210144043-2.7901611328-4.1938476562-5.6029663086-2.7973632812-3.0525512695,1.5155029297-2.2606811523,3.8424682617-.9483032227,6.3290405273,10.0687866211,19.0774536133,32.3153076172,26.2612304687,53.6301269531,17.2470092773,1.2006835938-.5078125,2.4248657227-1.0201416016,4.0514526367-1.7033081055.078918457.0847167969.1552124023.1834716797.2301635742.2893066406-1.8104858398,3.7487792969-4.3901977539,5.987121582-7.1674804688,8.04296875-1.9704589844,1.4586791992-2.8159179688,3.387512207-1.3881835938,5.505065918,1.5900268555,2.3584594727,3.8002319336,2.0272216797,5.8864135742.520690918,4.4263916016-3.1962280273,8.0124511719-7.1536254883,10.3860473633-12.0932006836,1.541015625-3.2069091797,2.4603271484-6.8415527344,6.6751098633-7.7638549805.5150146484-.1127319336.9100341797-.8216552734,1.3383789062-1.2752685547,8.6466674805-9.1565551758,10.1126708984-25.3671875,3.1475830078-35.880065918-1.9899291992-3.0034179688-4.7009887695-5.15234375-8.4713134766-5.5633544922Z"/>
    <path class="cls-3" d="M237.5023817696,210.3099321292c.0000610352-.0003662109.0000610352-.0007324219.0001220703-.0010986328-.0919799805-.2594604492-.2155761719-.4857177734-.3298950195-.7218017578-1.3262939453-2.7392578125-4.0521850586-4.0140991211-6.3535766602-5.7369995117-.0729980469-.0546875-.1497192383-.10546875-.2218017578-.1611328125-.3887329102-.3004150391.1636352539.0844726562-.0819091797-.3477783203-.1032714844-.1817016602.1254882812-.3208007812.4556884766-.2862548828-4.5863037109-1.627746582-9.2465209961-2.9275512695-14.1140136719-3.4194946289-2.5119628906-.2538452148-4.6528930664.1869506836-5.0349731445,3.0610351562-.3848876953,2.8952026367,1.5008544922,3.8820800781,4.0806884766,4.1468505859,5.3795166016.5521240234,10.5098266602,2.0839233398,15.3251953125,4.5070800781,2.4831542969,1.2495117188,4.4940795898,1.1923217773,6.2744750977-1.0404052734Z"/>
    <path class="cls-3" d="M287.5424208321,206.404112029c1.3335571289-.0740966797,2.4833374023-.5823364258,3.0927734375-1.7877807617,2.0361328125-4.0274658203,4.6846313477-7.6245727539,7.451171875-11.1680908203,1.3151245117-1.6844482422,1.0432739258-3.5067138672-.5544433594-5.03125-1.6001586914-1.5269165039-3.3258666992-1.1776123047-4.6994628906.0989379883-3.9889526367,3.7073364258-6.8773803711,8.2279663086-8.7419433594,13.3197631836-.8654785156,2.3634033203.9989013672,4.5806884766,3.4519042969,4.5684204102Z"/>
  </g>
  <g>
    <path class="cls-1" d="M72.6929995467,372.3104027338c.4104254031.9234571569,1.0610429454,1.7699595507,1.9518526271,2.5395071815s1.8515782389,1.3875176979,2.8823056716,1.8539102014,1.9238690769.6995887552,2.6794249326.6995887552h-16.6642041498c.7742115558,0,1.6020582495-.1492456011,2.4835400811-.4477368034s1.6393696498-.7648837057,2.2736634545-1.3991775105.9980799575-1.4504806859,1.0913584582-2.4485606433l-2.9102892218-7.4436243557h-15.5588539165c-.8488343564,2.4718802685-1.6930047877,4.939096612-2.532511294,7.4016490304.0746228006,1.0074078075.4290811032,1.8305905762,1.063374908,2.469548306s1.396845548,1.1100141583,2.2876552296,1.4131692856,1.7233203004.4547326909,2.4975318562.4547326909h-13.7119396027c.7742115558,0,1.6650212375-.1725652263,2.672429045-.5176956789s1.9355288895-.8465023938,2.7843632458-1.5041158238,1.4598085359-1.4528126484,1.8329225387-2.3855976554c.0559671004-.1585734512.1119342008-.3218108274.1679013013-.4897121287,1.072702758-3.1341576235,2.1454055161-6.272979172,3.2181082741-9.4164646455.5969824045-1.7256522629,1.1893008839-3.4513045258,1.7769554383-5.1769567888l1.6790130126-4.9251048369c.3917697029-1.1473255586.7835394059-2.2993150422,1.1753091088-3.4559684509.3824418529-1.1100141583.7648837057-2.2246922417,1.1473255586-3.34403425.0652949505-.1958848515.135253826-.396433628.2098766266-.6016463295.0466392503-.139917751.0932785007-.2844994271.139917751-.4337450282l.0279835502-.0559671004v-.0559671004c0-.0279835502-.004663925-.0606310255-.0139917751-.0979424257,0-.0466392503-.004663925-.0932785007-.0139917751-.139917751-.0279835502-.1958848515-.0652949505-.3871057779-.1119342008-.5736627793-.2798355021-1.0820306081-.8185188436-1.9635124397-1.6160500246-2.6444454948s-1.7186563754-1.0213995826-2.7633755832-1.0213995826h7.4436243557l12.3267538673,31.5514528612v.0139917751h.0139917751l.0699588755.1818930764ZM63.0666582746,365.1046385549h3.1901247239l-8.0732542354-20.6658518297c-.0652949505.1958848515-.135253826.3871057779-.2098766266.5736627793-.0466392503.1492456011-.0979424257.2938272772-.1539095262.4337450282-.0559671004.1772291513-.1165981259.3591222277-.1818930764.5456792291l-.2798355021.8395065063c-.4290811032,1.2312762092-.8534982814,2.4625524184-1.2732515345,3.6938286277l-1.2592597594,3.6938286277c-.5783267043,1.6976687127-1.1566534087,3.3906735004-1.734980113,5.079014363l-1.7629636632,5.1489732385c-.0279835502.0932785007-.0606310255.1912209264-.0979424257.2938272772-.0373114003.1212620509-.0792867256.2425241018-.1259259759.3637861527h11.9629677146Z"/>
    <path class="cls-1" d="M95.9333379957,368.9243931585c.5503431541,1.1566534087.6389577298,2.3412903675.265843727,3.5539108766-.3917697029,1.0913584582-1.0400552828,2.00082384-1.9448567396,2.7283961454s-1.8935535642,1.2732515345-2.9662563222,1.6370376873c-2.2013726165.7369001555-4.4447205583.8768179066-6.7300438254.4197532531-.9794242573-.1865570014-1.9262010394-.5013719413-2.8403303463-.9444448196s-1.7209883379-1.0237315452-2.4205770931-1.7419760005c-.6902609052-.7182444554-1.1566534087-1.5577509617-1.3991775105-2.5185195189-.1119342008-.5223596039-.139917751-1.0447192078-.0839506506-1.5670788117.0466392503-.3451304526.1259259759-.6809330551.2378601768-1.0074078075.0746228006-.2984912022.2052127015-.5736627793.3917697029-.8255147312.1958848515-.2145405516.4360769908-.3474624151.7205764179-.3987655905s.5573390417-.0023319625.8185188436.1469136386c.2052127015.130589901.3591222277.3031551273.4617285785.5176956789.1119342008.2425241018.1165981259.4897121287.0139917751.7415640806-.3171469024,1.0447192078-.2798355021,2.0754466405.1119342008,3.0921822981.3917697029.9234571569.9864201449,1.6976687127,1.7839513259,2.3226346674s1.6673532,1.0866945331,2.609466057,1.3851857354c.5410153041.1772291513,1.0913584582.3078190523,1.6510294624.3917697029.3264747524.0652949505.662277355.0932785007,1.0074078075.0839506506h.2098766266c.2798355021,0,.5456792291-.0233196252.797531181-.0699588755.2331962517-.0559671004.4524007284-.1585734512.6576134299-.3078190523s.3824418529-.3124829773.531687454-.4897121287c.3917697029-.4197532531.7089166053-.8954736067.9514407071-1.4271610607.4477368034-1.0260635077.6949248302-2.0941023407.7415640806-3.204116499.0652949505-1.1379977085-.1679013013-2.2107004666-.6995887552-3.2181082741-.5223596039-.9700964073-1.2592597594-1.730316188-2.2107004665-2.2806593421-.9048014568-.4384089533-1.8562421639-.7135805303-2.8543221214-.8255147312-.1772291513-.0279835502-.3497943776-.0513031754-.5176956789-.0699588755-.1958848515-.0186557001-.3871057779-.0419753253-.5736627793-.0699588755-.6809330551-.1026063508-1.3432104101-.2751715771-1.9868320649-.5176956789-1.0260635077-.3824418529-1.9401928145-.9421128571-2.7423879205-1.6790130126-.7835394059-.7182444554-1.3058990098-1.5903984369-1.5670788117-2.6164619446-.2425241018-1.1100141583-.1026063508-2.1733890663.4197532531-3.1901247239.4757203536-.8861457566,1.135665746-1.609054137,1.9798361773-2.1687251412s1.7419760005-.9700964073,2.6934167077-1.2312762092c2.0614548654-.5596710042,4.1135818808-.5270235289,6.1563810461.0979424257,1.063374908.3264747524,2.0311393527.8534982814,2.9032933342,1.5810705868s1.4714683485,1.6370376873,1.797943101,2.7283961454c.0839506506.3078190523.135253826.6203020296.1539095262.937448932.0466392503.3078190523-.004663925.5969824045-.1539095262.8674900565-.1585734512.2518519519-.3754459653.4244171782-.6506175424.5176956789s-.5526751166.0886145757-.8325106187-.0139917751c-.261179802-.1026063508-.4663925035-.2798355021-.6156381046-.531687454-.1026063508-.2145405516-.139917751-.4384089533-.1119342008-.671605205.0093278501-.5037039038-.0606310255-.9934160324-.2098766266-1.469136386-.3171469024-.9514407071-.8581622064-1.7536358131-1.6230459121-2.406585318-.3917697029-.3451304526-.8208508061-.6342938047-1.2872433096-.8674900565-.2425241018-.1212620509-.4943760537-.2285323267-.7555558557-.3218108274-.0279835502-.0093278501-.0513031754-.0186557001-.0699588755-.0279835502-.2425241018-.1026063508-.4850482036-.1725652263-.7275723054-.2098766266-.3358026025-.0279835502-.6762691301-.0419753253-1.0213995826-.0419753253h-.0279835502c-.130589901-.0093278501-.265843727.004663925-.405761478.0419753253-.0932785007.0279835502-.1865570014.0606310255-.2798355021.0979424257-.3917697029.1865570014-.7322362305.4337450282-1.0213995826.7415640806-.6902609052.7835394059-1.1426616336,1.6930047877-1.3572021852,2.7283961454-.2331962517,1.0447192078-.265843727,2.0941023407-.0979424257,3.1481493986.0746228006.5037039038.202880739.995747995.3847738154,1.4761322736s.4407409158.9071334193.7765435183,1.2802474221c.3917697029.4104254031.8581622064.7089166053,1.3991775105.8954736067.4477368034.1585734512.9094653818.270507652,1.3851857354.3358026025.2238684017.0373114003.4524007284.0606310255.6855969801.0699588755.6809330551.0466392503,1.3525382601.135253826,2.0148156151.265843727,1.2406040593.2518519519,2.4135812056.7135805303,3.5189314388,1.3851857354s1.9565165521,1.5764066618,2.5534989566,2.7144043703Z"/>
    <path class="cls-1" d="M104.8740822876,373.0099914891c.1585734512,1.2592597594.6599453924,2.3039789672,1.5041158238,3.1341576235s1.8445823513,1.2452679843,3.00123576,1.2452679843h-12.4107045179c1.1566534087,0,2.1570653286-.4127573656,3.00123576-1.2382720968s1.3455423726-1.8679019765,1.5041158238-3.1271617359v-16.2304591215c-.6063102545.1119342008-1.1846369589.0606310255-1.734980113-.1539095262-.0279835502-.0186557001-.0559671004-.0326474752-.0839506506-.0419753253-.1492456011-.0839506506-.2238684017-.2052127015-.2238684017-.3637861527,0-.1212620509.0419753253-.2215364392.1259259759-.3008231648s.1818930764-.1189300884.2938272772-.1189300884c.0559671004,0,.1026063508.004663925.139917751.0139917751.0279835502.0093278501.0513031754.0186557001.0699588755.0279835502.401097553.1772291513.8301786562.265843727,1.2872433096.265843727.4757203536,0,.9234571569-.0979424257,1.3432104101-.2938272772.3637861527-.1585734512.6809330551-.3777779278.9514407071-.6576134299.0559671004-.0652949505.1119342008-.1259259759.1679013013-.1818930764v.0139917751-.0139917751c.4197532531-.4943760537.7648837057-1.0400552828,1.0353913578-1.6370376873v19.4485673956l.0279835502.2098766266ZM103.1670857248,351.5745920286c-.5689988543,0-1.0517150954-.198216814-1.4481487233-.5946504419s-.594650442-.874485944-.594650442-1.4341569482.198216814-1.0400552828.594650442-1.4411528358.8791498691-.6016463295,1.4481487233-.6016463295c.5596710042,0,1.0377233203.2005487765,1.4341569482.6016463295s.594650442.8814818316.594650442,1.4411528358-.198216814,1.0377233203-.594650442,1.4341569482-.874485944.5946504419-1.4341569482.5946504419Z"/>
    <path class="cls-1" d="M156.1119627212,373.0379750393c.1585734512,1.2685876095.6576134299,2.3179707424,1.4971199362,3.1481493986s1.8422503888,1.2452679843,3.0082316475,1.2452679843h-5.1629650136v-.0139917751h-2.0847744906v.0139917751h-5.1629650137c1.1566534087,0,2.1570653286-.4150893281,3.00123576-1.2452679843s1.3455423726-1.8795617891,1.5041158238-3.1481493986c.0093278501-.0559671004.0139917751-.1119342008.0139917751-.1679013013v-13.7958902533c-.0186557001-.6436216548-.1772291513-1.2266122842-.4757203536-1.7489718881l-.0839506506-.139917751c-.0279835502-.0559671004-.0606310255-.1072702758-.0979424257-.1539095262-.0279835502-.0373114003-.0606310255-.0746228006-.0979424257-.1119342008-.0839506506-.1026063508-.1679013013-.1958848515-.2518519519-.2798355021l-.0559671004-.0559671004-.0839506506-.0839506506-.0279835502-.0279835502c-.2891633522-.261179802-.5969824045-.4850482036-.9234571569-.671605205l-.0559671004-.0279835502h-.0139917751c-.2518519519-.139917751-.5083678288-.2518519519-.7695476308-.3358026025-.2984912022-.1026063508-.5969824045-.1679013013-.8954736067-.1958848515-.0652949505-.0093278501-.135253826-.0186557001-.2098766266-.0279835502-.4477368034-.0186557001-.8861457566.0139917751-1.3152268598.0979424257-.6436216548.139917751-1.2639236845.3871057779-1.8609060889.7415640806-.4943760537.2798355021-.9607685572.6203020296-1.3991775105,1.0213995826-.1865570014.1679013013-.3684500778.3451304526-.5456792291.531687454-.2331962517.270507652-.4570646534.5410153041-.671605205.8115229561v.0139917751l-.8674900565,1.0913584582-.0839506506.1119342008-.7835394059.9794242573-.1679013013.2098766266-.6855969801.8674900565-.1679013013.2098766266-.2938272772.3777779278c-.4850482036.5596710042-.9794242573,1.1193420084-1.4831281611,1.6790130126-.8954736067.9980799575-1.8189307636,1.9775042148-2.7703714707,2.938272772-.2984912022.2984912022-.5969824045.5923184794-.8954736067.8814818316l5.34485809-4.9111130618,1.1193420084-1.0353913578.5736627793-.5456792291v11.5432144614l.0139917751.0139917751c0,.0652949505.004663925.135253826.0139917751.2098766266.1585734512,1.2592597594.6599453924,2.3039789672,1.5041158238,3.1341576235s1.8492462763,1.2452679843,3.0152275351,1.2452679843h-5.1769567888l-.0139917751-.0139917751h-2.0427991653c-.0093278501.0093278501-.0186557001.0139917751-.0279835502.0139917751h-5.1629650137c1.1566534087,0,2.1570653286-.4127573656,3.00123576-1.2382720968s1.3455423726-1.8679019765,1.5041158238-3.1271617359v-5.6386853672c0-.4570646534-.1119342008-.7462280056-.3358026025-.8674900565s-.5106997913-.1329218635-.8604941689-.0349794378-.7205764179.2565158769-1.1123461208.4757203536-.7532238931.4477368034-1.0843625706.6855969801-.594650442.4360769908-.7905352934.594650442c-1.4551446109,1.3898496604-2.9802480973,2.7050765203-4.5753104593,3.9456805795-.4663925035.3544583027-.937448932.6995887552-1.4131692856,1.0353913578-1.0167356576.7275723054-2.0754466405,1.3898496604-3.1761329488,1.9868320649-.0746228006.0373114003-.1492456011.0792867256-.2238684017.1259259759-.0186557001.0093278501-.0419753253.0186557001-.0699588755.0279835502-.0652949505.0373114003-.1259259759.0699588755-.1818930764.0979424257-.0279835502.0186557001-.0559671004.0326474752-.0839506506.0419753253-.0186557001.0093278501-.0326474752.0186557001-.0419753253.0279835502h-.0139917751c-.0466392503.0279835502-.0932785007.0513031754-.139917751.0699588755-.0746228006.0373114003-.1445816761.0746228006-.2098766266.1119342008l-.0559671004.0279835502h-.0139917751l-.2518519519.1119342008c-.0279835502.0186557001-.0559671004.0326474752-.0839506506.0419753253l-.5037039038.2238684017-.2798355021.1119342008c-.7555558557.3171469024-1.5344313365.5736627793-2.3366264425.7695476308-.0559671004.0093278501-.1119342008.0233196252-.1679013013.0419753253-.0746228006.0186557001-.1445816761.0373114003-.2098766266.0559671004-.0466392503.0093278501-.0979424257.0233196252-.1539095262.0419753253l-.1679013013.0279835502c-.0279835502.0093278501-.0513031754.0139917751-.0699588755.0139917751l-.1119342008.0279835502c-.0466392503.0093278501-.0979424257.0186557001-.1539095262.0279835502-.8861457566.139917751-1.7629636632.139917751-2.6304537197,0l-.4197532531-.0559671004c-.0652949505-.0093278501-.1259259759-.0233196252-.1818930764-.0419753253-.0466392503-.0093278501-.0839506506-.0233196252-.1119342008-.0419753253-2.1454055161-.531687454-3.8337463787-1.739644038-5.0650225879-3.6238697521-.8488343564-1.4271610607-1.2219483591-2.9452686595-1.1193420084-4.5543227966s.6576134299-3.0711946355,1.6650212375-4.3864214953c.9887521074-1.2219483591,2.2060365415-2.0917703782,3.6518533023-2.609466057s2.942936697-.6319618422,4.4913598086-.3427984901c2.1174219659.4663925035,3.7917710534,1.5484231116,5.0230472626,3.2460918243v-7.1637888536c-.1212620509-1.2406040593-.5433472666-2.271331492-1.266255647-3.0921822981s-1.5834025494-1.2312762092-2.5814825068-1.2312762092c-.9048014568,0-1.6976687127.33347064-2.3786017678,1.00041192s-1.1379977085,1.5274354489-1.3711939603,2.5814825068c-.0186557001.0746228006-.0326474752.1585734512-.0419753253.2518519519,0,.0093278501-.004663925.0233196252-.0139917751.0419753253v.0559671004l-.0279835502.2798355021c0,.0373114003-.004663925.0746228006-.0139917751.1119342008v.0699588755l-.0139917751.1818930764c0,.0373114003-.0093278501.0792867256-.0279835502.1259259759-.0746228006.2331962517-.2005487765.4244171782-.3777779278.5736627793-.2238684017.1958848515-.4850482036.2938272772-.7835394059.2938272772-.4757203536,0-.8395065063-.2238684017-1.0913584582-.671605205-.0186557001-.0466392503-.0373114003-.0886145757-.0559671004-.1259259759-.0186557001-.0652949505-.0326474752-.130589901-.0419753253-.1958848515-.0093278501-.0279835502-.0139917751-.0513031754-.0139917751-.0699588755-.0093278501-.0466392503-.0139917751-.0979424257-.0139917751-.1539095262v-.0419753253c0-.1585734512.0466392503-.3427984901.139917751-.5526751166s.2052127015-.4174212906.3358026025-.6226339922.2471880269-.3801098903.3497943776-.5246915664.1585734512-.2262003642.1679013013-.2448560643c.3078190523-.4197532531.6482855799-.806859031,1.0213995826-1.1613173337.6436216548-.5876545544,1.3758578853-1.0400552828,2.1967086914-1.3572021852.0466392503-.0186557001.0979424257-.0373114003.1539095262-.0559671004l.2798355021-.0839506506c.1679013013-.0559671004.3404665275-.1026063508.5176956789-.139917751.0186557001,0,.0419753253-.004663925.0699588755-.0139917751.2798355021-.0559671004.5596710042-.0932785007.8395065063-.1119342008.5783267043-.0373114003,1.1473255586,0,1.7069965628.1119342008,1.6883408626.3637861527,3.078190523,1.2359401343,4.1695489812,2.6164619446.1958848515.2518519519.3731140028.5176956789.531687454.797531181.4384089533.7742115558.7275723054,1.5903984369.8674900565,2.4485606433.1026063508.5410153041.139917751,1.0866945331.1119342008,1.6370376873.0186557001.1865570014.0279835502.3777779278.0279835502.5736627793v11.5991815618c.6902609052-.4943760537,1.3618661102-1.0120717326,2.0148156151-1.5530870366,2.0241434652-1.6510294624,3.9363527295-3.4139931256,5.7366277929-5.2888909896.8395065063-.8674900565,1.6556933874-1.7489718881,2.4485606433-2.6444454948v-6.282307022c-.6063102545.1026063508-1.1846369589.0466392503-1.734980113-.1679013013-.0279835502-.0093278501-.0559671004-.0233196252-.0839506506-.0419753253-.1492456011-.0839506506-.2238684017-.2052127015-.2238684017-.3637861527,0-.1212620509.0419753253-.2215364392.1259259759-.3008231648s.1818930764-.1189300884.2938272772-.1189300884c.0559671004,0,.1026063508.004663925.139917751.0139917751.0279835502.0093278501.0513031754.0233196252.0699588755.0419753253.401097553.1679013013.8301786562.2518519519,1.2872433096.2518519519.4757203536,0,.9234571569-.0932785007,1.3432104101-.2798355021.3544583027-.1679013013.671605205-.3871057779.9514407071-.6576134299l.1679013013-.1958848515v.0139917751-.0139917751c.4197532531-.4850482036.7648837057-1.0307274327,1.0353913578-1.6370376873v5.7086442427c.3171469024-.4663925035.6576134299-.9234571569,1.0213995826-1.3711939603l.1679013013-.1958848515c.8581622064-1.0260635077,1.8492462763-1.8935535642,2.9732522098-2.6024701695s2.3622780302-1.1519894836,3.7148162903-1.3292186349c.9048014568-.1026063508,1.7956111384-.0279835502,2.672429045.2238684017.2425241018.0652949505.4757203536.1445816761.6995887552.2378601768.0932785007.0373114003.1818930764.0746228006.265843727.1119342008.401097553.1585734512.7695476308.3497943776,1.1053502333.5736627793.270507652.1492456011.5176956789.3404665275.7415640806.5736627793l.0139917751.0139917751c.1585734512.1772291513.3031551273.3731140028.4337450282.5876545544.1119342008.1772291513.2052127015.3637861527.2798355021.5596710042.0466392503.1026063508.0839506506.2052127015.1119342008.3078190523.0559671004.1865570014.1026063508.3824418529.139917751.5876545544l.0279835502.2798355021v15.3209937397c0,.0279835502.004663925.0513031754.0139917751.0699588755ZM118.3201781633,362.0264480318c-1.0260635077.4850482036-1.8632380514,1.3991775105-2.5115236313,2.7423879205s-.9724283698,2.8962974467-.9724283698,4.6592611099c0,1.734980113.3171469024,3.2694114495.9514407071,4.6032940095s1.4504806859,2.2526757919,2.4485606433,2.7563796956c.531687454-.0186557001,1.0587109829-.0746228006,1.5810705868-.1679013013.1585734512-.0279835502.3171469024-.0606310255.4757203536-.0979424257,1.1193420084-.270507652,2.1967086914-.6529495049,3.2321000492-1.1473255586.0279835502-.0093278501.0559671004-.0233196252.0839506506-.0419753253.0093278501,0,.0186557001-.004663925.0279835502-.0139917751.3917697029-.1865570014.7742115558-.3824418529,1.1473255586-.5876545544.0279835502-.0093278501.0513031754-.0186557001.0699588755-.0279835502-.0466392503-.2145405516-.0699588755-.4290811032-.0699588755-.6436216548v-8.1851884363c-.662277355-1.1473255586-1.5647468492-2.063786828-2.7074084828-2.7493838081s-2.3949255054-1.0517150954-3.7567916156-1.0983543457ZM128.2963138129,373.8355062202c.2891633522,1.0540470579.8301786562,1.9168731893,1.6230459122,2.5884783944s1.7069965628,1.0074078075,2.7423879205,1.0074078075h-4.5053515837c-.3171469024,0-.6203020296-.0419753253-.9094653818-.1259259759-.5689988543-.1679013013-1.0587109829-.4570646534-1.469136386-.8674900565-.2145405516-.2145405516-.396433628-.4524007284-.5456792291-.7135805303,1.063374908-.5689988543,2.0847744906-1.198628734,3.0641987479-1.8888896391Z"/>
    <path class="cls-1" d="M207.2658925041,372.3104027338c.4104254031.9234571569,1.0610429454,1.7699595507,1.9518526271,2.5395071815s1.8515782389,1.3875176979,2.8823056716,1.8539102014,1.9238690769.6995887552,2.6794249326.6995887552h-16.6642041497c.7742115558,0,1.6020582495-.1492456011,2.4835400811-.4477368034s1.6393696498-.7648837057,2.2736634545-1.3991775105.9980799575-1.4504806859,1.0913584582-2.4485606433l-2.9102892218-7.4436243557h-15.5588539165c-.8488343564,2.4718802685-1.6930047877,4.939096612-2.532511294,7.4016490304.0746228006,1.0074078075.4290811032,1.8305905762,1.063374908,2.469548306s1.396845548,1.1100141583,2.2876552296,1.4131692856,1.7233203004.4547326909,2.4975318562.4547326909h-13.7119396026c.7742115558,0,1.6650212375-.1725652263,2.672429045-.5176956789s1.9355288895-.8465023938,2.7843632458-1.5041158238,1.4598085359-1.4528126484,1.8329225387-2.3855976554c.0559671004-.1585734512.1119342008-.3218108274.1679013013-.4897121287,1.072702758-3.1341576235,2.1454055161-6.272979172,3.2181082741-9.4164646455.5969824045-1.7256522629,1.1893008839-3.4513045258,1.7769554383-5.1769567888l1.6790130126-4.9251048369c.3917697029-1.1473255586.7835394059-2.2993150422,1.1753091088-3.4559684509.3824418529-1.1100141583.7648837057-2.2246922417,1.1473255586-3.34403425.0652949505-.1958848515.135253826-.396433628.2098766266-.6016463295.0466392503-.139917751.0932785007-.2844994271.139917751-.4337450282l.0279835502-.0559671004v-.0559671004c0-.0279835502-.004663925-.0606310255-.0139917751-.0979424257,0-.0466392503-.004663925-.0932785007-.0139917751-.139917751-.0279835502-.1958848515-.0652949505-.3871057779-.1119342008-.5736627793-.2798355021-1.0820306081-.8185188436-1.9635124397-1.6160500246-2.6444454948s-1.7186563754-1.0213995826-2.7633755832-1.0213995826h7.4436243557l12.3267538673,31.5514528612v.0139917751h.0139917751l.0699588755.1818930764ZM197.6395512321,365.1046385549h3.1901247239l-8.0732542354-20.6658518297c-.0652949505.1958848515-.135253826.3871057779-.2098766266.5736627793-.0466392504.1492456011-.0979424257.2938272772-.1539095262.4337450282-.0559671004.1772291513-.1165981259.3591222277-.1818930764.5456792291l-.2798355021.8395065063c-.4290811032,1.2312762092-.8534982814,2.4625524184-1.2732515345,3.6938286277l-1.2592597594,3.6938286277c-.5783267043,1.6976687127-1.1566534087,3.3906735004-1.734980113,5.079014363l-1.7629636632,5.1489732385c-.0279835502.0932785007-.0606310255.1912209264-.0979424257.2938272772-.0373114003.1212620509-.0792867256.2425241018-.1259259759.3637861527h11.9629677146Z"/>
    <path class="cls-1" d="M224.6086977464,376.1441491125c.8441704313.8301786562,1.8492462763,1.2452679843,3.0152275351,1.2452679843h-12.424696293c1.1659812587,0,2.1687251412-.4127573656,3.0082316475-1.2382720968s1.3432104101-1.8679019765,1.5111117113-3.1271617359v-29.0469251174c-.6156381046.1119342008-1.1939648089.0606310255-1.734980113-.1539095262-.0373114003-.0186557001-.0699588755-.0326474752-.0979424257-.0419753253-.139917751-.0839506506-.2098766266-.2052127015-.2098766266-.3637861527,0-.1212620509.0396433628-.2215364392.1189300884-.3008231648s.1795611138-.1189300884.3008231648-.1189300884c.0466392503,0,.0932785007.004663925.139917751.0139917751l.0559671004.0279835502c.401097553.1772291513.8301786562.265843727,1.2872433096.265843727.4850482036,0,.932785007-.0979424257,1.3432104101-.2938272772.4384089533-.1958848515.8115229561-.4710564285,1.1193420084-.8255147312v-.0139917751h.0139917751c.4197532531-.4943760537.7602197807-1.0400552828,1.0213995826-1.6370376873v32.2650333915c.1772291513,1.3991775105.6879289427,2.5138555938,1.532099374,3.34403425Z"/>
    <path class="cls-1" d="M237.4531472926,376.1441491125c.8441704313.8301786562,1.8492462763,1.2452679843,3.0152275351,1.2452679843h-12.424696293c1.1659812587,0,2.1687251412-.4127573656,3.0082316475-1.2382720968s1.3432104101-1.8679019765,1.5111117113-3.1271617359v-29.0469251174c-.6156381046.1119342008-1.1939648089.0606310255-1.734980113-.1539095262-.0373114003-.0186557001-.0699588755-.0326474752-.0979424257-.0419753253-.139917751-.0839506506-.2098766266-.2052127015-.2098766266-.3637861527,0-.1212620509.0396433628-.2215364392.1189300884-.3008231648s.1795611138-.1189300884.3008231648-.1189300884c.0466392503,0,.0932785007.004663925.139917751.0139917751l.0559671004.0279835502c.401097553.1772291513.8301786562.265843727,1.2872433096.265843727.4850482036,0,.932785007-.0979424257,1.3432104101-.2938272772.4384089533-.1958848515.8115229561-.4710564285,1.1193420084-.8255147312v-.0139917751h.0139917751c.4197532531-.4943760537.7602197807-1.0400552828,1.0213995826-1.6370376873v32.2650333915c.1772291513,1.3991775105.6879289426,2.5138555938,1.532099374,3.34403425Z"/>
    <path class="cls-1" d="M288.6840318386,358.3186276291c.0279835502.7369001555.0093278501,1.473800311-.0559671004,2.2107004666-.5037039038,4.7385478355-2.6444454948,8.7401955154-6.4222247731,12.0049430399-.7742115558.6529495049-1.5950623619,1.2406040593-2.4625524184,1.7629636632v.0139917751c-2.7423879205,1.8002750635-5.8532259188,2.8403303463-9.3325139949,3.1201658484h-3.3720178002c-.2518519519.0093278501-.4757203536.0139917751-.671605205.0139917751h-11.5711980116c1.2219483591,0,2.271331492-.4617285785,3.1481493986-1.3851857354.1399177511-.1492456011.265843727-.3031551273.3777779278-.4617285785.0466392503-.0559671004.0886145757-.1119342008.1259259759-.1679013013.2052127015-.3078190523.3777779278-.6436216548.5176956789-1.0074078075.0373114003-.0839506506.0699588755-.1679013013.0979424257-.2518519519.1212620509-.3544583027.2005487765-.7229083804.2378601768-1.1053502333.0093278501-.0652949505.0186557001-.135253826.0279835502-.2098766266v-27.7456900327c-.0093278501-.0466392503-.0139917751-.0886145757-.0139917751-.1259259759-.0559671004-.4943760537-.1725652263-.9561046322-.3497943776-1.3851857354-.1958848515-.5130317538-.4663925035-.9747603323-.8115229561-1.3851857354-.0093278501-.0186557001-.0233196252-.0373114003-.0419753253-.0559671004-.130589901-.139917751-.265843727-.2751715771-.405761478-.405761478-.8301786562-.7648837057-1.8002750635-1.1473255586-2.9102892218-1.1473255586h6.939920452c.0186557001-.0093278501.0373114003-.0139917751.0559671004-.0139917751h7.0938299781c.7555558557,0,1.5111117113.0139917751,2.266667567.0419753253s1.5064477863.1026063508,2.2526757919.2238684017c2.9942398724.531687454,5.6899885426,1.7163244128,8.0872460105,3.5539108766h.0139917751c1.874897864,1.5577509617,3.4000013505,3.4046652755,4.5753104593,5.5407429415,1.5857345119,2.6024701695,2.4532245684,5.3914973404,2.6024701695,8.3670815126ZM270.3967817767,376.7877707673c.1492456011-.0186557001.3031551273-.0326474752.4617285785-.0419753253,1.8375864638-.3451304526,3.5352551765-1.0353913578,5.0930061381-2.0707827155s2.9196170719-2.3459542926,4.0855983306-3.9316888044,2.0754466405-3.3766817253,2.7283961454-5.3728416402.9794242573-4.1135818808.9794242573-6.3522658976c0-.2145405516-.004663925-.4290811032-.0139917751-.6436216548v-.0699588755c-.1119342008-2.9196170719-.7415640806-5.5850502293-1.8888896391-7.9962994724s-2.6747610075-4.4097411205-4.5823063468-5.9954756324-4.0646106679-2.5978062444-6.4711959859-3.0362151977c-.3544583027-.0373114003-.7135805303-.0652949505-1.0773666831-.0839506506-.3731140028-.0279835502-.7508919306-.0419753253-1.1333337835-.0419753253-.1772291513-.0093278501-.3544583027-.0139917751-.531687454-.0139917751h-.7275723054c-.1585734512.0093278501-.3218108274.0139917751-.4897121287.0139917751h-1.7069965628c-.0093278501.0093278501-.0233196252.0186557001-.0419753253.0279835502s-.0373114003.0233196252-.0559671004.0419753253c-.7369001555.4477368034-1.3198907849,1.072702758-1.7489718881,1.874897864-.2984912022.5689988543-.4897121287,1.198628734-.5736627793,1.8888896391,0,.0373114003-.004663925.0792867256-.0139917751.1259259759v27.8995995589c.0093278501.0186557001.0139917751.0373114003.0139917751.0559671004.1679013013,1.3152268598.6995887552,2.3879296179,1.5950623619,3.2181082741.1865570014.1679013013.3824418529.3218108274.5876545544.4617285785.0466392503.0279835502.0979424257.0559671004.1539095262.0839506506.0093278501.0093278501.0233196252.0186557001.0419753253.0279835502l.0139917751.0139917751h3.4139931256c.6342938047,0,1.2639236845-.0279835502,1.8888896391-.0839506506Z"/>
    <path class="cls-1" d="M311.2247815324,363.3696584419c.0093278501.0466392503.0139917751.0932785007.0139917751.139917751v.139917751h-15.1810759886c-.0186557001.139917751-.0326474752.2798355021-.0419753253.4197532531-.0279835502.4663925035-.0419753253.932785007-.0419753253,1.3991775105v.9094653818c.0093278501.0559671004.0139917751.1119342008.0139917751.1679013013.0093278501.270507652.0233196252.531687454.0419753253.7835394059l.0279835502.2238684017c0,.0746228006.004663925.1492456011.0139917751.2238684017.0093278501.0466392503.0139917751.0932785007.0139917751.139917751.2145405516,1.6696851625.6319618422,3.1551452861,1.2522638719,4.4563803709s1.3851857354,2.3319625175,2.2946511172,3.0921822981,1.8958855267,1.140329671,2.9592604347,1.140329671c1.1006863082,0,2.1174219659-.401097553,3.0502069728-1.203292659s1.7023326377-1.8935535642,2.3086428923-3.2740753745c.0279835502-.0559671004.0513031754-.1072702758.0699588755-.1539095262.1026063508-.2984912022.1842250389-.5503431541.2448560643-.7555558557s.0956104632-.3264747524.1049383133-.3637861527v-.0139917751c.0093278501-.0373114003.0233196252-.0746228006.0419753253-.1119342008.0373114003-.1026063508.0886145757-.1865570014.1539095262-.2518519519,0-.0093278501.004663925-.0139917751.0139917751-.0139917751v-.0139917751c.261179802-.270507652.5829906294-.3451304526.9654324822-.2238684017.2052127015.0839506506.3567902652.2215364392.4547326909.4127573656s.1235940134.3941016654.0769547631.6086422171c-.0093278501.0373114003-.0186557001.0699588755-.0279835502.0979424257-.0279835502.0746228006-.0652949505.1445816761-.1119342008.2098766266-.1585734512.3171469024-.3264747524.6296298797-.5037039038.937448932-.0839506506.139917751-.1725652263.2751715771-.265843727.405761478v.0139917751c-.9794242573,1.473800311-2.2153643916,2.6164619446-3.7078204028,3.4279849007-.4104254031.2238684017-.8348425812.4150893281-1.2732515345.5736627793l-.2798355021.0839506506c-.0186557001.0093278501-.0419753253.0186557001-.0699588755.0279835502h-.0139917751l-.0139917751.0139917751c-.0186557001,0-.0419753253.004663925-.0699588755.0139917751-.0093278501.0093278501-.0186557001.0139917751-.0279835502.0139917751h-.0279835502l-.0139917751.0139917751-.1119342008.0279835502c-.4570646534.1212620509-.9001375317.2005487765-1.329218635.2378601768l-.2798355021.0279835502c-.4850482036.0279835502-.9281210819.0279835502-1.3292186349,0l-.139917751-.0279835502c-.6902609052-.0559671004-1.3572021852-.1865570014-2.00082384-.3917697029h-.0139917751c-1.7722915133-.5876545544-3.2880671496-1.6230459122-4.547326909-3.1061740733l-.0139917751-.0139917751c-1.7443079631-2.0521270154-2.7190682954-4.5986300844-2.9242809969-7.6395092072-.0093278501-.2331962517-.0139917751-.4710564285-.0139917751-.7135805303v-.1679013013c0-.401097553.0233196252-.802195106.0699588755-1.203292659v-.1119342008c.3451304526-2.8543221214,1.3758578853-5.2352558517,3.0921822981-7.142801191s3.8197546036-2.9919079099,6.3102905722-3.2530877119c.2425241018-.0186557001.4897121287-.0279835502.7415640806-.0279835502.4104254031,0,.8115229561.0279835502,1.203292659.0839506506,2.2107004666.3358026025,4.1042540307,1.3432104101,5.6806606925,3.0222234226s2.6117980196,3.7637875032,3.1061740733,6.2543234718v.0139917751c.0093278501.0466392503.0186557001.0979424257.0279835502.1539095262,0,.0186557001.004663925.0466392503.0139917751.0839506506.0093278501.0466392503.0139917751.0932785007.0139917751.139917751v.0419753253ZM296.1136644192,363.0898229398h10.7876586058c-.4943760537-3.7964349784-1.6277098372-6.4362165482-3.4000013505-7.9193447093-.1772291513-.130589901-.3544583027-.2471880268-.531687454-.3497943776-.3171469024-.1772291513-.6389577298-.2938272772-.9654324822-.3497943776-.1679013013-.0279835502-.3358026025-.0419753253-.5037039038-.0419753253-.6063102545,0-1.1846369589.1865570014-1.734980113.5596710042-.9234571569.6249659547-1.7069965628,1.6486974998-2.3506182176,3.0711946355s-1.0773666831,3.0991781857-1.3012350847,5.0300431502Z"/>
    <path class="cls-1" d="M331.8626498119,368.9243931585c.5503431541,1.1566534087.6389577298,2.3412903675.265843727,3.5539108766-.3917697029,1.0913584582-1.0400552828,2.00082384-1.9448567396,2.7283961454s-1.8935535642,1.2732515345-2.9662563222,1.6370376873c-2.2013726165.7369001555-4.4447205583.8768179066-6.7300438254.4197532531-.9794242573-.1865570014-1.9262010394-.5013719413-2.8403303463-.9444448196s-1.7209883379-1.0237315452-2.4205770931-1.7419760005c-.6902609052-.7182444554-1.1566534087-1.5577509617-1.3991775105-2.5185195189-.1119342008-.5223596039-.139917751-1.0447192078-.0839506506-1.5670788117.0466392503-.3451304526.1259259759-.6809330551.2378601768-1.0074078075.0746228006-.2984912022.2052127015-.5736627793.3917697029-.8255147312.1958848515-.2145405516.4360769908-.3474624151.7205764179-.3987655905s.5573390417-.0023319625.8185188436.1469136386c.2052127015.130589901.3591222277.3031551273.4617285785.5176956789.1119342008.2425241018.1165981259.4897121287.0139917751.7415640806-.3171469024,1.0447192078-.2798355021,2.0754466405.1119342008,3.0921822981.3917697029.9234571569.9864201449,1.6976687127,1.7839513259,2.3226346674s1.6673532,1.0866945331,2.609466057,1.3851857354c.5410153041.1772291513,1.0913584582.3078190523,1.6510294624.3917697029.3264747524.0652949505.662277355.0932785007,1.0074078075.0839506506h.2098766266c.2798355021,0,.5456792291-.0233196252.797531181-.0699588755.2331962517-.0559671004.4524007284-.1585734512.6576134299-.3078190523s.3824418529-.3124829773.531687454-.4897121287c.3917697029-.4197532531.7089166053-.8954736067.9514407071-1.4271610607.4477368034-1.0260635077.6949248302-2.0941023407.7415640806-3.204116499.0652949505-1.1379977085-.1679013013-2.2107004666-.6995887552-3.2181082741-.5223596039-.9700964073-1.2592597594-1.730316188-2.2107004666-2.2806593421-.9048014568-.4384089533-1.8562421639-.7135805303-2.8543221214-.8255147312-.1772291513-.0279835502-.3497943776-.0513031754-.5176956789-.0699588755-.1958848515-.0186557001-.3871057779-.0419753253-.5736627793-.0699588755-.6809330551-.1026063508-1.3432104101-.2751715771-1.9868320649-.5176956789-1.0260635077-.3824418529-1.9401928145-.9421128571-2.7423879205-1.6790130126-.7835394059-.7182444554-1.3058990098-1.5903984369-1.5670788117-2.6164619446-.2425241018-1.1100141583-.1026063508-2.1733890663.4197532531-3.1901247239.4757203536-.8861457566,1.135665746-1.609054137,1.9798361773-2.1687251412s1.7419760005-.9700964073,2.6934167077-1.2312762092c2.0614548654-.5596710042,4.1135818808-.5270235289,6.1563810461.0979424257,1.063374908.3264747524,2.0311393527.8534982814,2.9032933342,1.5810705868s1.4714683485,1.6370376873,1.797943101,2.7283961454c.0839506506.3078190523.135253826.6203020296.1539095262.937448932.0466392503.3078190523-.004663925.5969824045-.1539095262.8674900565-.1585734512.2518519519-.3754459653.4244171782-.6506175424.5176956789s-.5526751166.0886145757-.8325106187-.0139917751c-.261179802-.1026063508-.4663925035-.2798355021-.6156381046-.531687454-.1026063508-.2145405516-.139917751-.4384089533-.1119342008-.671605205.0093278501-.5037039038-.0606310255-.9934160324-.2098766266-1.469136386-.3171469024-.9514407071-.8581622064-1.7536358131-1.6230459121-2.406585318-.3917697029-.3451304526-.8208508061-.6342938047-1.2872433096-.8674900565-.2425241018-.1212620509-.4943760537-.2285323267-.7555558557-.3218108274-.0279835502-.0093278501-.0513031754-.0186557001-.0699588755-.0279835502-.2425241018-.1026063508-.4850482036-.1725652263-.7275723054-.2098766266-.3358026025-.0279835502-.6762691301-.0419753253-1.0213995826-.0419753253h-.0279835502c-.130589901-.0093278501-.265843727.004663925-.405761478.0419753253-.0932785007.0279835502-.1865570014.0606310255-.2798355021.0979424257-.3917697029.1865570014-.7322362305.4337450282-1.0213995826.7415640806-.6902609052.7835394059-1.1426616336,1.6930047877-1.3572021852,2.7283961454-.2331962517,1.0447192078-.265843727,2.0941023407-.0979424257,3.1481493986.0746228006.5037039038.202880739.995747995.3847738154,1.4761322736s.4407409158.9071334193.7765435183,1.2802474221c.3917697029.4104254031.8581622064.7089166053,1.3991775105.8954736067.4477368034.1585734512.9094653818.270507652,1.3851857354.3358026025.2238684017.0373114003.4524007284.0606310255.6855969801.0699588755.6809330551.0466392503,1.3525382601.135253826,2.0148156151.265843727,1.2406040593.2518519519,2.4135812056.7135805303,3.5189314388,1.3851857354s1.9565165521,1.5764066618,2.5534989566,2.7144043703Z"/>
    <path class="cls-1" d="M340.8033941038,373.0099914891c.1585734512,1.2592597594.6599453924,2.3039789672,1.5041158238,3.1341576235s1.8445823513,1.2452679843,3.00123576,1.2452679843h-12.4107045179c1.1566534087,0,2.1570653286-.4127573656,3.00123576-1.2382720968s1.3455423726-1.8679019765,1.5041158238-3.1271617359v-16.2304591215c-.6063102545.1119342008-1.1846369589.0606310255-1.734980113-.1539095262-.0279835502-.0186557001-.0559671004-.0326474752-.0839506506-.0419753253-.1492456011-.0839506506-.2238684017-.2052127015-.2238684017-.3637861527,0-.1212620509.0419753253-.2215364392.1259259759-.3008231648s.1818930764-.1189300884.2938272772-.1189300884c.0559671004,0,.1026063508.004663925.139917751.0139917751.0279835502.0093278501.0513031754.0186557001.0699588755.0279835502.401097553.1772291513.8301786562.265843727,1.2872433096.265843727.4757203536,0,.9234571569-.0979424257,1.3432104101-.2938272772.3637861527-.1585734512.6809330551-.3777779278.9514407071-.6576134299.0559671004-.0652949505.1119342008-.1259259759.1679013013-.1818930764v.0139917751-.0139917751c.4197532531-.4943760537.7648837057-1.0400552828,1.0353913578-1.6370376873v19.4485673956l.0279835502.2098766266ZM339.096397541,351.5745920286c-.5689988543,0-1.0517150954-.198216814-1.4481487233-.5946504419s-.594650442-.874485944-.594650442-1.4341569482.198216814-1.0400552828.594650442-1.4411528358.8791498691-.6016463295,1.4481487233-.6016463295c.5596710042,0,1.0377233203.2005487765,1.4341569482.6016463295s.594650442.8814818316.594650442,1.4411528358-.198216814,1.0377233203-.594650442,1.4341569482-.874485944.5946504419-1.4341569482.5946504419Z"/>
    <path class="cls-1" d="M372.5507318165,379.2643149609c-.0932785007.7928672559-.3264747524,1.5600829242-.6995887552,2.3016470047s-.8348425812,1.4294930232-1.3851857354,2.063786828c-.802195106,1.3525382601-1.9448567396,2.3459542926-3.4279849007,2.9802480973-2.0987662657.8488343564-4.1742129063.7835394059-6.2263399216-.1958848515-.5783267043-.2984912022-1.1426616336-.6203020296-1.6930047877-.9654324822-.531687454-.3451304526-1.0820306081-.662277355-1.6510294624-.9514407071-1.2499319094-.6156381046-2.5604948442-1.0260635077-3.9316888044-1.2312762092-.0186557001-.0093278501-.0373114003-.0139917751-.0559671004-.0139917751h-.0419753253c-1.2499319094.0373114003-2.3552821426.2868313896-3.3160506998.7485599681s-1.6743490875,1.0610429454-2.140741591,1.797943101v.0139917751c-.0093278501.0279835502-.0233196252.0513031754-.0419753253.0699588755-.2518519519.3731140028-.5876545544.5596710042-1.0074078075.5596710042-.3358026025,0-.6203020296-.1189300884-.8534982814-.3567902652s-.3497943776-.5200276414-.3497943776-.8465023938v-.139917751c.0093278501-.0373114003.0139917751-.0699588755.0139917751-.0979424257,0-.0093278501.004663925-.0139917751.0139917751-.0139917751v-.0139917751c0-.0279835502.004663925-.0559671004.0139917751-.0839506506.0093278501-.0093278501.0139917751-.0186557001.0139917751-.0279835502l.0279835502-.0839506506c.0093278501-.0093278501.0139917751-.0186557001.0139917751-.0279835502.0093278501-.0279835502.0186557001-.0513031754.0279835502-.0699588755l.0279835502-.0279835502c.0093278501-.0279835502.0233196252-.0513031754.0419753253-.0699588755.0093278501-.0186557001.0186557001-.0326474752.0279835502-.0419753253.0093278501-.0186557001.0186557001-.0326474752.0279835502-.0419753253.0186557001-.0279835502.0419753253-.0559671004.0699588755-.0839506506v-.0139917751c.0186557001-.0093278501.0373114003-.0233196252.0559671004-.0419753253l.0139917751-.0139917751c.0466392503-.0466392503.1026063508-.0886145757.1679013013-.1259259759.3917697029-.3264747524.8161868811-.6016463295,1.2732515345-.8255147312,1.1379977085-.531687454,2.3412903675-.8138549186,3.609877977-.8465023938s2.5045277437.1049383133,3.7078204028.4127573656c1.2592597594.3078190523,2.4532245684.7882033309,3.5818944268,1.4411528358.3078190523.1772291513.6109741796.3591222277.9094653818.5456792291.8115229561.5410153041,1.6650212375.9887521074,2.5604948442,1.3432104101,1.0167356576.3544583027,2.0497950528.4570646534,3.0991781857.3078190523s2.0218115026-.5130317538,2.9172851093-1.0913584582c.9234571569-.6156381046,1.6323737622-1.3945135854,2.1267498159-2.3366264425s.7462280056-1.9635124397.7555558557-3.0641987479c.0093278501-1.1379977085-.2448560643-2.2246922417-.7625517432-3.2600835994s-1.2802474221-1.8375864638-2.2876552296-2.406585318c-.8301786562-.4290811032-1.6626892749-.5829906294-2.4975318562-.4617285785s-1.6370376873.405761478-2.406585318.8534982814-1.4761322736.9421128571-2.1197539284,1.4831281611c-.1585734512.1212620509-.3124829773.2471880269-.4617285785.3777779278-.8674900565.7462280056-1.7886152509,1.4201651731-2.7633755832,2.0218115026s-2.0451311278.9257891194-3.2111123865.9724283698c-1.0820306081,0-2.0871064531-.2751715771-3.0152275351-.8255147312s-1.6860089001-1.2732515345-2.2736634545-2.1687251412c-.6995887552-1.1006863082-1.0610429454-2.2899871921-1.0843625706-3.5679026517s.2168725141-2.5091916688.7205764179-3.6938286277c.4197532531-.9141293068.9467767821-1.7582997382,1.5810705868-2.532511294-.4104254031-.3451304526-.8488343564-.797531181-1.3152268598-1.3572021852-.4384089533-.531687454-.8161868811-1.1449935961-1.1333337835-1.8399184263s-.4850482036-1.4621404984-.5037039038-2.3016470047c.0279835502-1.4924560112.5410153041-2.8286705337,1.5390952615-4.0086435675s2.266667567-2.1150900033,3.8057628285-2.8053509085,3.078190523-1.0353913578,4.6172857846-1.0353913578c1.5484231116,0,2.9849120223.2518519519,4.3094667323.7555558557.139917751-1.072702758.5223596039-2.0334713152,1.1473255586-2.8823056716s1.4248290982-1.5251034864,2.3995894305-2.0288073902,2.0404672028-.7555558557,3.1971206114-.7555558557c.671605205,0,1.3198907849.0886145757,1.9448567396.265843727.1026063508.0279835502.2052127015.0606310255.3078190523.0979424257.3078190523.1772291513.4617285785.4337450282.4617285785.7695476308,0,.2425241018-.0839506506.4500687659-.2518519519.6226339922s-.3731140028.2588478394-.6156381046.2588478394c-.0466392503,0-.0932785007-.004663925-.139917751-.0139917751-.0652949505-.0093278501-.130589901-.0279835502-.1958848515-.0559671004-.5410153041-.1492456011-1.1006863082-.2238684017-1.6790130126-.2238684017-1.3711939603,0-2.5954742819.3801098903-3.672840965,1.140329671s-1.8585741264,1.7559677756-2.34362233,2.9872439849c1.5390952615.6902609052,2.7680395082,1.6300417997,3.6868327401,2.8193426836s1.3921816229,2.5255154064,1.4201651731,4.0086435675v.3218108274c-.0186557001.4757203536-.0886145757.937448932-.2098766266,1.3851857354-.5130317538,1.7909472134-1.6300417997,3.2600835994-3.3510301376,4.407409158s-3.7754473158,1.7582997382-6.1633769336,1.8329225387h-.3777779278c-.4197532531,0-.8255147312-.0233196252-1.2172844341-.0699588755-.5130317538-.0652949505-.9934160324-.1492456011-1.4411528358-.2518519519l-.1119342008-.0279835502c-1.2965711597-.3637861527-2.2060365415-.7042526803-2.7283961454-1.0213995826l-.3917697029-.2238684017-.1259259759-.0839506506-.0139917751-.0139917751-.3358026025-.2518519519-.0839506506-.0559671004c-.2238684017.270507652-.4384089533.5503431541-.6436216548.8395065063-.0652949505.0932785007-.130589901.1912209264-.1958848515.2938272772h.0139917751c-.3078190523.5130317538-.4617285785,1.1753091088-.4617285785,1.9868320649,0,.8488343564.1679013013,1.5344313365.5037039038,2.0567909404v.0139917751c.4850482036.6809330551,1.1123461208,1.2685876095,1.8818937516,1.7629636632s1.6673532.6529495049,2.6934167077.4757203536c.4943760537-.1026063508,1.0470511703-.3078190523,1.6580253499-.6156381046s1.270919572-.6576134299,1.9798361773-1.0493831329c1.1473255586-.662277355,2.3646099927-1.275583497,3.6518533023-1.8399184263s2.5838144693-.869822019,3.8897134791-.9164612694,2.5604948442.3731140028,3.7637875032,1.2592597594c.5689988543.4290811032,1.0587109829.932785007,1.469136386,1.5111117113,1.33388256,1.865570014,1.8888896391,3.9410166545,1.6650212375,6.2263399216ZM357.257721627,354.037144447c-.9421128571.0186557001-1.7932791759.3567902652-2.5534989566,1.0144036951s-1.3665300352,1.5437591866-1.8189307636,2.6584372699-.6786010926,2.3529501801-.6786010926,3.7148162903c0,1.5204395614.2844994271,2.8916335216.8534982814,4.1135818808.3544583027.7648837057.7882033309,1.4085053605,1.3012350847,1.9308649645.8395065063.8768179066,1.8049389885,1.3245547099,2.8962974467,1.3432104101h.2518519519c.9048014568-.0746228006,1.7186563754-.4454048408,2.4415647558-1.1123461208s1.3012350847-1.5484231116,1.734980113-2.6444454948.6506175424-2.3063109298.6506175424-3.6308656397c0-1.3618661102-.2285323267-2.600138207-.6855969801-3.7148162903s-1.068038833-2.005487765-1.8329225387-2.672429045-1.6137180621-1.00041192-2.5465030691-1.00041192h-.0139917751Z"/>
    <path class="cls-1" d="M395.3573252372,373.0099914891c.1585734512,1.2592597594.6576134299,2.3039789672,1.4971199362,3.1341576235s1.8422503888,1.2452679843,3.0082316475,1.2452679843h-12.4107045179c1.1659812587,0,2.1687251412-.4150893281,3.0082316475-1.2452679843s1.338546485-1.874897864,1.4971199362-3.1341576235c.0093278501-.0559671004.0139917751-.1119342008.0139917751-.1679013013v-13.7958902533c-.0186557001-.6529495049-.1772291513-1.2406040593-.4757203536-1.7629636632l-.0839506506-.139917751c-.0279835502-.0466392503-.0606310255-.0932785007-.0979424257-.139917751-.0279835502-.0466392503-.0606310255-.0886145757-.0979424257-.1259259759-.0839506506-.0932785007-.1679013013-.1818930764-.2518519519-.265843727l-.0559671004-.0559671004-.0839506506-.0839506506-.0279835502-.0279835502c-.2891633522-.261179802-.5969824045-.4850482036-.9234571569-.671605205-.0186557001-.0093278501-.0979424257-.0513031754-.2378601768-.1259259759s-.3404665276-.1585734512-.6016463295-.2518519519c-.2984912022-.0932785007-.5969824045-.1585734512-.8954736067-.1958848515-.0652949505-.0093278501-.135253826-.0139917751-.2098766266-.0139917751-.4477368034-.0279835502-.8861457566.004663925-1.3152268598.0979424257-.6436216548.139917751-1.2639236845.3824418529-1.8609060889.7275723054-.4943760537.2891633522-.9561046322.6296298797-1.3851857354,1.0213995826-.1958848515.1772291513-.3824418529.3591222277-.5596710042.5456792291-.671605205.7648837057-1.2732515345,1.5857345119-1.8049389885,2.4625524184l-.0279835502.0419753253v12.7185235702l.0279835502.2098766266c.1585734512,1.2592597594.6599453924,2.3039789672,1.5041158238,3.1341576235s1.8492462763,1.2452679843,3.0152275351,1.2452679843h-12.424696293c1.1566534087,0,2.1570653286-.4127573656,3.00123576-1.2382720968s1.3455423726-1.8632380514,1.5041158238-3.1131699608v-16.2444508966c-.6063102545.1026063508-1.1846369589.0466392503-1.734980113-.1679013013l-.0839506506-.0279835502c-.1492456011-.0932785007-.2238684017-.2192044766-.2238684017-.3777779278,0-.1119342008.0419753253-.2098766266.1259259759-.2938272772s.1818930764-.1259259759.2938272772-.1259259759c.0559671004,0,.1026063508.0093278501.139917751.0279835502.0279835502.0093278501.0513031754.0186557001.0699588755.0279835502.401097553.1772291513.8301786562.265843727,1.2872433096.265843727.4757203536,0,.9234571569-.0979424257,1.3432104101-.2938272772.3544583027-.1585734512.671605205-.3777779278.9514407071-.6576134299l.1679013013-.1958848515v.0279835502-.0139917751c.4197532531-.4943760537.7648837057-1.0400552828,1.0353913577-1.6370376873v5.6946524676c.3171469024-.4663925035.6576134299-.9187932319,1.0213995826-1.3572021852l.1679013013-.1958848515c.8581622064-1.0260635077,1.8492462763-1.8958855267,2.9732522098-2.609466057s2.3622780302-1.1543214461,3.7148162903-1.3222227474c.9048014568-.1026063508,1.7956111384-.0326474752,2.672429045.2098766266.2425241018.0746228006.4757203536.1585734512.6995887552.2518519519.0932785007.0373114003.1818930764.0746228006.265843727.1119342008.401097553.1585734512.7532238931.3311386775,1.0563790204.5176956789s.5666668917.396433628.7905352934.6296298797l.0139917751.0139917751c.1585734512.1679013013.3031551273.3591222277.4337450282.5736627793.1119342008.1772291513.2052127015.3684500778.2798355021.5736627793.0466392503.0932785007.0839506506.1912209264.1119342008.2938272772.0559671004.1958848515.1026063508.396433628.139917751.6016463295.0093278501.0839506506.0186557001.1725652263.0279835502.265843727v15.3349855148c0,.0186557001.004663925.0419753253.0139917751.0699588755Z"/>
  </g>
</svg>